<svg width="168" height="34" viewBox="0 0 168 34" fill="none" xmlns="http://www.w3.org/2000/svg">
<path d="M14.9711 13.3539C14.9711 13.5497 14.9151 13.7176 14.8032 13.8295C14.6913 13.9414 14.5234 13.9974 14.3276 13.9974H11.5297C10.6903 13.9974 10.2706 13.5497 10.2706 12.6824V12.6264C10.2706 11.7311 10.6903 11.2834 11.5577 11.2555H13.2924V10.0524H11.5577C10.8582 10.0524 10.2706 10.3042 9.76702 10.8078C9.2634 11.3114 9.01159 11.927 9.01159 12.6544C9.01159 13.158 9.15149 13.6057 9.4033 13.9974H6.40956V7.45034L6.38158 7.17055C5.73806 7.14257 5.26242 7.14257 4.95465 7.17055V13.9974H3.63965L3.33188 12.0109C3.27592 11.7311 3.21996 11.3954 3.16401 10.9477C3.08007 10.5 3.05209 10.2202 3.02411 10.0524H1.56921L2.18475 13.9974H0.114307V15.1725H14.4955C15.8384 15.1725 16.5099 14.529 16.5099 13.214V7.17055H14.9711V13.3539Z" fill="#F4F3E5"/>
<path d="M19.1959 7.14257H17.741V15.1445H19.1959V7.14257Z" fill="#F4F3E5"/>
<path d="M24.2321 8.96119C24.7637 8.96119 25.0155 8.70938 25.0155 8.20576C25.0155 7.70214 24.7357 7.45033 24.2041 7.45033C23.7005 7.45033 23.4487 7.70214 23.4487 8.20576C23.4767 8.70938 23.7285 8.96119 24.2321 8.96119Z" fill="#F4F3E5"/>
<path d="M26.2466 8.96119C26.7782 8.96119 27.03 8.70938 27.03 8.20576C27.03 7.70214 26.7502 7.45033 26.2186 7.45033C25.715 7.45033 25.4632 7.70214 25.4632 8.20576C25.4912 8.70938 25.743 8.96119 26.2466 8.96119Z" fill="#F4F3E5"/>
<path d="M34.3884 8.96119C34.92 8.96119 35.1718 8.70938 35.1718 8.20576C35.1718 7.70214 34.8921 7.45033 34.3605 7.45033C33.8568 7.45033 33.605 7.70214 33.605 8.20576C33.633 8.70938 33.8848 8.96119 34.3884 8.96119Z" fill="#F4F3E5"/>
<path d="M44.0691 8.96119C44.6007 8.96119 44.8525 8.70938 44.8525 8.20576C44.8525 7.70214 44.5728 7.45033 44.0412 7.45033C43.5375 7.45033 43.2857 7.70214 43.2857 8.20576C43.3137 8.70938 43.5655 8.96119 44.0691 8.96119Z" fill="#F4F3E5"/>
<path d="M44.9924 11.2275V13.9694H43.7054C42.866 13.9694 42.4464 13.5217 42.4464 12.6544V12.5984C42.4464 11.7031 42.866 11.2555 43.7334 11.2275H44.9924ZM31.4227 13.9974C31.4227 13.242 31.4507 12.7943 31.5066 12.6264C31.6745 12.0109 32.0382 11.6192 32.6537 11.4513C32.7936 11.3954 33.0175 11.3954 33.2693 11.3674C33.577 11.3674 33.9688 11.3394 34.4164 11.3394C34.8641 11.3394 35.2278 11.3394 35.5635 11.3674C35.8154 11.3674 36.0112 11.3954 36.1791 11.4513C36.7946 11.6192 37.1583 12.0109 37.2982 12.6264C37.3262 12.7943 37.3542 13.242 37.3822 13.9974H31.4227ZM24.8756 13.9974C24.0363 13.9974 23.6166 13.5497 23.6166 12.6544V12.5984C23.6166 11.7031 24.0363 11.2555 24.9036 11.2275H26.1626V13.9974H24.8756ZM41.9148 10.7798C41.4111 11.2834 41.1593 11.899 41.1593 12.6264C41.1593 13.13 41.2992 13.5777 41.551 13.9694H38.5573V13.7176C38.5573 12.7943 38.4734 12.1228 38.3335 11.7031C37.9977 10.7798 37.2982 10.2202 36.291 10.0803C36.0672 10.0524 35.6195 10.0244 35.004 10.0244H33.7729C33.2693 10.0244 32.8216 10.0524 32.4859 10.0803C32.0382 10.1363 31.6745 10.2762 31.3667 10.472V7.0866H29.8838V13.9414H27.4497V9.9964L24.9036 9.96843C24.2041 9.96843 23.6166 10.2202 23.1129 10.7239C22.6093 11.2275 22.3575 11.871 22.3575 12.5705C22.3575 14.2492 23.2249 15.0886 24.9036 15.0886H46.2795V9.9964H43.7334C43.0059 10.0524 42.4184 10.3042 41.9148 10.7798Z" fill="#F4F3E5"/>
<path d="M59.9891 14.2492C59.3456 14.2492 59.0099 13.7456 59.0099 12.7104C59.0099 11.7031 59.3456 11.1715 59.9891 11.1715C60.6326 11.1715 60.9684 11.6751 60.9684 12.7104C60.9684 13.7176 60.6606 14.2492 59.9891 14.2492ZM64.9414 13.3539C64.9414 13.5497 64.8854 13.7176 64.7735 13.8295C64.6616 13.9414 64.4937 13.9974 64.2979 13.9974H63.7942C63.4585 13.9974 63.1787 13.9974 62.9828 13.9694C62.7031 13.9135 62.5072 13.7736 62.4513 13.4938C62.5352 13.214 62.5632 12.9622 62.5632 12.7104C62.5632 11.9829 62.3114 11.3674 61.8077 10.8358C61.3041 10.3322 60.7166 10.0524 59.9891 10.0524C59.2896 10.0524 58.6741 10.3042 58.1705 10.8358C57.6669 11.3394 57.4151 11.9829 57.4151 12.7104C57.4151 12.9902 57.443 13.242 57.527 13.4658C57.471 13.7456 57.2752 13.9135 56.9674 13.9694C56.9394 13.9974 56.6876 13.9974 56.156 13.9974H55.0089V13.7456C55.0089 12.7943 54.9249 12.1228 54.785 11.7311C54.4493 10.8078 53.7498 10.2482 52.7426 10.1083C52.4348 10.0803 52.0151 10.0524 51.4556 10.0524H50.5882V11.3394C50.6162 11.3394 50.7001 11.3394 50.868 11.3394C51.0079 11.3394 51.1478 11.3394 51.3157 11.3394C51.4835 11.3394 51.6234 11.3394 51.7353 11.3394C51.8473 11.3394 51.9312 11.3394 51.9871 11.3394C52.239 11.3394 52.4348 11.3674 52.6027 11.4233C53.1902 11.5912 53.5819 11.9829 53.7498 12.6264C53.8058 12.7943 53.8058 13.242 53.8058 13.9974H49.4411H49.8048H48.6577V7.17054H47.1748V15.1725H49.8048H49.4411H56.8275C57.3311 15.1725 57.7508 15.0046 58.0586 14.6689L58.1985 14.5849L58.1425 14.529C58.6461 15.0886 59.2617 15.3684 60.0171 15.3684C60.7166 15.3684 61.3321 15.1165 61.8357 14.5849L61.9476 14.6689C62.2554 15.0046 62.6751 15.1725 63.1787 15.1725H64.4098C65.7528 15.1725 66.4243 14.529 66.4243 13.214V7.17054H64.9414V13.3539Z" fill="#F4F3E5"/>
<path d="M70.705 8.20576C70.705 8.70938 70.9568 8.96119 71.4605 8.96119C71.9921 8.96119 72.2439 8.70938 72.2439 8.20576C72.2439 7.70214 71.9641 7.45033 71.4325 7.45033C70.9568 7.45033 70.705 7.70214 70.705 8.20576Z" fill="#F4F3E5"/>
<path d="M72.7195 8.20576C72.7195 8.70938 72.9713 8.96119 73.4749 8.96119C74.0065 8.96119 74.2583 8.70938 74.2583 8.20576C74.2583 7.70214 73.9786 7.45033 73.447 7.45033C72.9713 7.45033 72.7195 7.70214 72.7195 8.20576Z" fill="#F4F3E5"/>
<path d="M76.7205 16.1797C76.2169 16.1797 75.965 16.4316 75.965 16.9352C75.965 17.4388 76.2169 17.6906 76.7205 17.6906C77.2521 17.6906 77.5039 17.4388 77.5039 16.9352C77.5319 16.4316 77.2521 16.1797 76.7205 16.1797Z" fill="#F4F3E5"/>
<path d="M78.735 16.1797C78.2313 16.1797 77.9795 16.4316 77.9795 16.9352C77.9795 17.4388 78.2313 17.6906 78.735 17.6906C79.2666 17.6906 79.5184 17.4388 79.5184 16.9352C79.5463 16.4316 79.2666 16.1797 78.735 16.1797Z" fill="#F4F3E5"/>
<path d="M98.0684 14.2492C97.4249 14.2492 97.0891 13.7456 97.0891 12.7104C97.0891 11.6751 97.4249 11.1715 98.0684 11.1715C98.7119 11.1715 99.0476 11.6751 99.0476 12.7104C99.0476 13.7456 98.7399 14.2492 98.0684 14.2492ZM72.104 13.9974C71.2646 13.9974 70.8449 13.5497 70.8449 12.6824V12.6264C70.8449 11.7311 71.2646 11.2834 72.132 11.2555H73.391V14.0254H72.104V13.9974ZM102.489 15.1725C103.832 15.1725 104.504 14.529 104.504 13.214V7.17054H103.021V13.3539C103.021 13.5497 102.965 13.7176 102.853 13.8295C102.741 13.9414 102.573 13.9974 102.377 13.9974H101.873C101.538 13.9974 101.258 13.9974 101.062 13.9694C100.782 13.9135 100.586 13.7456 100.531 13.4938C100.614 13.214 100.642 12.9622 100.642 12.7104C100.642 11.9829 100.391 11.3674 99.887 10.8358C99.3834 10.3322 98.7958 10.0524 98.0684 10.0524C97.3409 10.0524 96.7534 10.3042 96.2497 10.8358C95.7461 11.3394 95.4943 11.9829 95.4943 12.7104C95.4943 12.9902 95.5223 13.242 95.6062 13.4658C95.5503 13.7456 95.3544 13.9135 95.0466 13.9694C95.0187 13.9974 94.7669 13.9974 94.2353 13.9974H93.0881V7.17054H91.6332V13.9974H88.9752V13.0461C88.9752 12.5984 88.9193 12.1788 88.7794 11.815C88.4157 10.7798 87.6882 10.2202 86.569 10.1083C86.5411 10.1083 86.4851 10.1083 86.4012 10.1083C86.3172 10.1083 86.2333 10.0803 86.1773 10.0803H82.1204C82.1204 9.6047 82.1484 9.26896 82.1484 9.07311C82.2043 8.8213 82.3442 8.65342 82.624 8.62544C82.7639 8.59747 82.9318 8.59746 83.0437 8.59746H86.1773V7.19852L85.8976 7.17054H82.8758C82.68 7.17054 82.4841 7.19852 82.2883 7.2265C81.5888 7.39437 81.1411 7.87001 80.9733 8.59746C80.9453 8.79331 80.9173 8.98917 80.9173 9.18502V11.4513C81.5049 11.4513 82.1204 11.4513 82.708 11.4513C83.2116 11.4513 83.7991 11.4513 84.4706 11.4513H84.5546L85.2261 11.4793H85.4219C85.6737 11.4793 85.8696 11.5073 86.0095 11.5352C86.681 11.7031 87.1006 12.1228 87.2685 12.7943C87.3245 12.9622 87.3245 13.13 87.3245 13.3539V13.7176L87.2965 13.9974H78.0914V10.0524H77.0842V13.9974H74.5941H74.65V10.0524L72.104 10.0244C71.4045 10.0244 70.8169 10.2762 70.3133 10.7798C69.8097 11.2834 69.5579 11.9269 69.5579 12.6264C69.5579 14.3052 70.4252 15.1445 72.104 15.1445H94.9068C95.4104 15.1445 95.8301 14.9766 96.1378 14.6409L96.2777 14.557L96.2218 14.501C96.7254 15.0606 97.3409 15.3404 98.0963 15.3404C98.7958 15.3404 99.4114 15.0886 99.915 14.557L100.027 14.6409C100.335 14.9766 100.754 15.1445 101.258 15.1445H102.489V15.1725Z" fill="#F4F3E5"/>
<path d="M107.245 7.14257H105.791V15.1445H107.245V7.14257Z" fill="#F4F3E5"/>
<path d="M111.526 8.20576C111.526 8.70938 111.778 8.96119 112.282 8.96119C112.813 8.96119 113.065 8.70938 113.065 8.20576C113.065 7.70214 112.785 7.45033 112.254 7.45033C111.778 7.45033 111.526 7.70214 111.526 8.20576Z" fill="#F4F3E5"/>
<path d="M113.541 8.20576C113.541 8.70938 113.793 8.96119 114.296 8.96119C114.828 8.96119 115.08 8.70938 115.08 8.20576C115.08 7.70214 114.8 7.45033 114.268 7.45033C113.792 7.45033 113.541 7.70214 113.541 8.20576Z" fill="#F4F3E5"/>
<path d="M117.905 9.0731H119.528V8.56948H118.857C118.717 8.56948 118.633 8.51353 118.633 8.37363V8.20576C118.661 8.03788 118.745 7.95395 118.913 7.95395C118.941 7.95395 119.025 7.95395 119.22 7.95395H119.332V7.56224C119.136 7.47831 118.941 7.45033 118.745 7.50629C118.241 7.6182 118.045 7.92597 118.157 8.42959L118.185 8.56948H117.905V9.0731Z" fill="#F4F3E5"/>
<path d="M120.927 16.9352C120.927 17.4388 121.179 17.6906 121.683 17.6906C122.214 17.6906 122.466 17.4388 122.466 16.9352C122.466 16.4316 122.186 16.1797 121.655 16.1797C121.179 16.1797 120.927 16.4316 120.927 16.9352Z" fill="#F4F3E5"/>
<path d="M122.942 16.9352C122.942 17.4388 123.193 17.6906 123.697 17.6906C124.229 17.6906 124.48 17.4388 124.48 16.9352C124.48 16.4316 124.201 16.1797 123.669 16.1797C123.193 16.1797 122.942 16.4316 122.942 16.9352Z" fill="#F4F3E5"/>
<path d="M112.925 13.9974C112.086 13.9974 111.666 13.5497 111.666 12.6824V12.6264C111.666 11.7311 112.086 11.2834 112.953 11.2555H114.212V14.0254H112.925V13.9974ZM128.034 12.5425C128.537 12.5425 128.817 12.7943 128.817 13.2979C128.817 13.6337 128.677 13.8575 128.342 13.9974H127.726C127.418 13.8575 127.25 13.6337 127.25 13.2979C127.278 12.7943 127.53 12.5425 128.034 12.5425ZM128.845 11.4793C129.097 11.4793 129.321 11.5073 129.461 11.5632C130.048 11.7311 130.44 12.1228 130.58 12.7663C130.608 12.9342 130.636 13.3259 130.664 13.9974H129.796C129.88 13.7736 129.936 13.5497 129.936 13.2979C129.936 12.2907 129.433 11.6751 128.397 11.4793C128.649 11.4793 128.789 11.4793 128.845 11.4793ZM119.864 15.1725H133.993C135.336 15.1725 136.008 14.529 136.008 13.214V7.17054H134.525V13.3539C134.525 13.5497 134.469 13.7176 134.357 13.8295C134.245 13.9414 134.077 13.9974 133.881 13.9974H131.895V13.7456C131.895 12.7943 131.811 12.1228 131.671 11.7311C131.335 10.7798 130.636 10.2482 129.629 10.1083C129.349 10.0803 128.901 10.0524 128.342 10.0524H127.446V11.4793H127.726C126.663 11.6472 126.131 12.2627 126.131 13.2979C126.131 13.5497 126.187 13.7736 126.271 13.9974H123.501V10.0524H122.018V13.9974H119.416V10.0524H117.933V13.9974H115.471V10.0524L112.925 10.0244C112.226 10.0244 111.638 10.2762 111.135 10.7798C110.631 11.2834 110.379 11.9269 110.379 12.6264C110.379 14.3051 111.246 15.1445 112.925 15.1445H119.864V15.1725Z" fill="#F4F3E5"/>
<path d="M138.75 7.14257H137.295V15.1445H138.75V7.14257Z" fill="#F4F3E5"/>
<path d="M166.169 19.2294C165.805 19.1175 165.442 19.0336 165.106 18.9776C164.043 18.8098 163.063 18.8937 162.14 19.1735C161.692 19.3134 161.273 19.4812 160.853 19.6771C160.573 19.817 160.293 19.9569 160.042 20.1248C159.846 20.2367 159.65 20.3766 159.454 20.4885C159.006 20.7963 158.559 21.132 158.167 21.4677C158.643 21.8874 159.062 22.2791 159.454 22.6429C159.65 22.8387 159.846 23.0066 160.042 23.1745C160.349 23.4543 160.629 23.6781 160.853 23.818C160.965 23.8739 161.049 23.9579 161.133 23.9858C161.273 23.79 161.552 23.6501 161.832 23.734C161.944 23.762 162.056 23.818 162.14 23.9019C162.224 23.9858 162.308 24.0978 162.336 24.2377C162.392 24.4615 162.28 24.7413 162.196 24.8252C162.168 24.8532 162.168 24.8532 162.14 24.8812C161.776 25.1889 161.357 25.161 160.853 24.9092C160.601 24.7693 160.321 24.5734 160.042 24.3496C159.846 24.2097 159.65 24.0418 159.454 23.846C158.95 23.3983 158.419 22.8667 157.831 22.3351C157.719 22.2232 157.607 22.1392 157.496 22.0273C157.384 22.1392 157.272 22.2232 157.16 22.3351C155.873 23.5102 154.81 24.6294 153.97 24.9931C153.523 25.1889 153.131 25.161 152.823 24.8252C152.711 24.7133 152.655 24.4615 152.683 24.2377C152.739 23.9858 152.935 23.79 153.187 23.734C153.467 23.6781 153.746 23.79 153.886 23.9858C153.914 23.9579 153.942 23.9579 153.97 23.9299C154.586 23.5662 155.621 22.5309 156.852 21.4677C155.985 20.7403 155.033 20.0688 153.97 19.5932C153.215 19.2574 152.403 19.0056 151.564 18.9496C150.781 18.8937 149.941 18.9496 149.074 19.2015C148.99 19.2294 148.934 19.2294 148.85 19.2574C148.822 19.2574 148.794 19.2294 148.822 19.2015C148.878 19.1735 148.962 19.1175 149.074 19.0616C149.55 18.8098 150.417 18.474 151.564 18.4181C152.263 18.3901 153.103 18.474 153.97 18.7538C154.082 18.7818 154.166 18.8098 154.278 18.8657C155.145 19.2015 156.013 19.761 156.824 20.3766C157.3 17.4668 157.076 14.7808 156.964 13.4658C156.964 13.4658 156.964 13.4658 156.936 13.4658C155.901 14.1093 156.208 15.9279 156.404 16.4315C156.404 16.4315 156.404 16.4595 156.376 16.4315C155.089 14.9207 155.733 13.242 155.985 12.8223C155.985 12.8223 155.985 12.7943 155.957 12.8223C154.81 13.7456 154.866 14.9767 154.921 15.6761C154.921 15.6761 154.893 15.7041 154.893 15.6761C154.418 14.7528 154.278 13.214 155.705 11.9549V11.9269C154.418 12.2347 153.914 13.4378 153.914 14.3331C153.914 14.3611 153.914 14.3611 153.914 14.3891H153.886C153.69 13.7176 153.746 13.158 153.914 12.7383C154.278 11.7591 155.285 11.3114 155.761 11.2555V11.2275C154.81 11.1435 154.222 11.4233 153.914 11.7311C153.718 11.899 153.606 12.0948 153.55 12.1788H153.523C153.551 11.815 153.69 11.5073 153.886 11.2834C154.446 10.6119 155.509 10.4161 156.181 10.7239C156.181 10.7239 156.208 10.7239 156.181 10.6959C155.733 10.0524 154.865 9.99641 154.39 10.2202C154.39 10.2202 154.362 10.2202 154.39 10.1923C155.089 9.38087 156.236 9.38087 156.852 10.3042C156.852 10.3042 156.852 10.3042 156.88 10.3042C156.936 10.1923 157.02 10.0524 157.076 9.91247C157.216 9.57673 157.328 9.213 157.384 8.84928H157.412C157.468 9.213 157.579 9.57673 157.719 9.91247C157.775 10.0524 157.859 10.1923 157.915 10.3042C157.915 10.3042 157.915 10.3042 157.943 10.3042C158.307 9.77258 158.811 9.54875 159.342 9.6047C159.538 9.63268 159.734 9.68864 159.93 9.80056C160.098 9.91247 160.265 10.0244 160.405 10.1923V10.2202C160.265 10.1643 160.098 10.1083 159.93 10.1083C159.734 10.1083 159.538 10.1083 159.342 10.1643C159.062 10.2482 158.783 10.4161 158.615 10.6959V10.7239C158.839 10.6399 159.09 10.584 159.342 10.584C159.538 10.584 159.734 10.6119 159.93 10.6679C160.237 10.7518 160.517 10.8917 160.741 11.0876C161.049 11.3394 161.245 11.7031 161.301 12.1788C161.301 12.1788 161.273 12.2067 161.273 12.1788C161.217 12.0668 161.049 11.815 160.741 11.5912C160.545 11.4513 160.265 11.3394 159.93 11.2555C159.762 11.2275 159.566 11.1995 159.342 11.1995C159.258 11.1995 159.174 11.1995 159.062 11.2275C159.062 11.2275 159.034 11.2555 159.062 11.2555C159.146 11.2555 159.23 11.2834 159.342 11.3114C159.51 11.3674 159.706 11.4513 159.93 11.5632C160.237 11.7311 160.517 12.0109 160.741 12.3466C161.049 12.8223 161.189 13.4938 160.937 14.3891H160.909C160.909 14.0813 160.853 13.7176 160.713 13.3819C160.545 12.9622 160.293 12.5705 159.902 12.2907C159.734 12.1788 159.538 12.0668 159.314 11.9829C159.23 11.9549 159.174 11.9269 159.09 11.9269C159.09 11.9269 159.062 11.927 159.09 11.9549C159.174 12.0389 159.258 12.0948 159.314 12.1788C159.566 12.4306 159.762 12.7104 159.902 12.9622C160.433 13.9694 160.265 14.9767 159.902 15.6761C159.902 15.6202 159.902 15.5642 159.902 15.5362C159.93 15.3404 159.93 15.0886 159.902 14.8368C159.874 14.3611 159.706 13.8015 159.314 13.2979C159.174 13.13 159.034 12.9622 158.839 12.8223H158.811C159.062 13.242 159.706 14.9207 158.419 16.4315H158.391C158.615 15.9279 158.894 14.1093 157.859 13.4658H157.831C157.719 14.7808 157.496 17.4947 157.971 20.3766C158.391 20.0408 158.839 19.761 159.258 19.4812C159.454 19.3693 159.65 19.2574 159.846 19.1455C160.07 19.0336 160.293 18.9217 160.517 18.8377C160.573 18.8098 160.601 18.8098 160.657 18.7818C161.105 18.6139 161.524 18.502 161.944 18.446C163.147 18.2502 164.182 18.4181 164.91 18.6699C165.414 18.8377 165.777 19.0336 166.001 19.1455C166.225 19.2015 166.197 19.2574 166.169 19.2294ZM147.143 33.2469H167.932V0.679443H147.143V33.2469Z" fill="#F4F3E5"/>
<path d="M3.49975 22.7548H1.59719V24.7133H3.49975C4.03135 24.7133 4.3671 24.6573 4.59093 24.4895C4.78678 24.3496 4.8987 24.0978 4.8987 23.7061C4.8987 23.3703 4.84274 23.1745 4.73082 23.0346C4.53497 22.8667 4.11529 22.7548 3.49975 22.7548ZM0.0583496 29.134V21.3558H3.86348C4.73082 21.3558 5.40232 21.5517 5.822 21.9154C6.24168 22.2791 6.46551 22.8947 6.46551 23.7061C6.46551 24.9092 5.9619 25.6366 4.98263 25.8884L6.80126 29.134H5.06657L3.4438 26.0843H1.62517V29.134H0.0583496Z" fill="#F4F3E5"/>
<path d="M9.96287 28.0148C10.2986 28.0148 10.6064 27.9029 10.8582 27.6791C11.1939 27.3713 11.3618 26.9236 11.3618 26.3081C11.3618 25.7485 11.2219 25.3009 10.9701 24.9931C10.7183 24.7133 10.4105 24.5734 10.0188 24.5734C9.59915 24.5734 9.2634 24.7133 9.01159 25.0211C8.75978 25.3288 8.61989 25.7485 8.61989 26.3081C8.61989 26.8397 8.75978 27.2314 9.01159 27.5671C9.23542 27.8749 9.57117 28.0148 9.96287 28.0148ZM9.99085 29.2459C8.98361 29.2459 8.22818 28.9101 7.72456 28.2386C7.33286 27.707 7.10903 27.0635 7.10903 26.2801C7.10903 25.4967 7.33286 24.8252 7.78052 24.2936C8.31212 23.6501 9.03957 23.3423 9.99085 23.3423C10.7743 23.3423 11.4178 23.5662 11.9494 24.0418C12.5369 24.5734 12.8447 25.3288 12.8447 26.3081C12.8447 27.1754 12.5929 27.8749 12.1172 28.4065C11.5857 28.9661 10.8862 29.2459 9.99085 29.2459Z" fill="#F4F3E5"/>
<path d="M15.9224 27.9029H17.0695V23.4543H18.4964V28.9941C18.4964 30.449 17.8249 31.1764 16.482 31.1764H13.6841V30.0293H16.2301C16.7897 30.0293 17.0975 29.7215 17.0975 29.134H15.8105C15.055 29.134 14.4955 28.9661 14.1317 28.6583C13.768 28.3226 13.5722 27.735 13.5722 26.9516V23.4543H14.9711V26.8397C14.9711 27.2034 15.0271 27.4552 15.111 27.5951C15.2509 27.791 15.5027 27.9029 15.9224 27.9029Z" fill="#F4F3E5"/>
<path d="M21.658 28.0148H23.4487V26.8117H21.77C21.2104 26.8117 20.9306 27.0076 20.9026 27.3993C20.9026 27.6511 20.9586 27.819 21.1264 27.9029C21.2384 27.9868 21.4062 28.0148 21.658 28.0148ZM22.1617 24.6294H19.7835V23.4543H22.6933C24.1761 23.4543 24.9036 24.1537 24.9036 25.5806V29.134H21.0985C20.5669 29.134 20.1752 28.9941 19.8674 28.6863C19.5596 28.3785 19.4197 27.9868 19.4197 27.4552C19.4197 26.7558 19.6436 26.2801 20.0632 26.0003C20.399 25.8045 20.9026 25.6926 21.5741 25.6926H23.4487C23.4487 25.3009 23.3648 25.0211 23.1689 24.8532C23.001 24.7133 22.6373 24.6294 22.1617 24.6294Z" fill="#F4F3E5"/>
<path d="M27.5336 21.3838H26.0507V29.1619H27.5336V21.3838Z" fill="#F4F3E5"/>
<path d="M37.6899 22.7268H35.1439C34.5563 22.7268 34.1086 22.9226 33.8289 23.2864C33.4931 23.734 33.3252 24.4895 33.3252 25.5247C33.3252 26.476 33.4931 27.1195 33.8289 27.4552C34.0807 27.6791 34.5004 27.791 35.1159 27.791H37.662V29.134H35.1159C32.8216 29.134 31.6745 27.8749 31.6745 25.3848C31.6745 24.0978 31.9263 23.1465 32.4019 22.475C32.9615 21.7196 33.8848 21.3558 35.1439 21.3558H37.6899V22.7268Z" fill="#F4F3E5"/>
<path d="M41.0754 28.0148C41.4111 28.0148 41.7189 27.9029 41.9707 27.6791C42.3065 27.3713 42.4743 26.9236 42.4743 26.3081C42.4743 25.7485 42.3344 25.3009 42.0826 24.9931C41.8308 24.7133 41.5231 24.5734 41.1313 24.5734C40.7117 24.5734 40.3759 24.7133 40.1241 25.0211C39.8723 25.3288 39.7324 25.7485 39.7324 26.3081C39.7324 26.8397 39.8723 27.2314 40.1241 27.5671C40.3479 27.8749 40.6557 28.0148 41.0754 28.0148ZM41.0754 29.2459C40.0681 29.2459 39.3127 28.9101 38.8091 28.2386C38.4174 27.707 38.1936 27.0635 38.1936 26.2801C38.1936 25.4967 38.4174 24.8252 38.8651 24.2936C39.3967 23.6501 40.1241 23.3423 41.0754 23.3423C41.8588 23.3423 42.5023 23.5662 43.0339 24.0418C43.6215 24.5734 43.9292 25.3288 43.9292 26.3081C43.9292 27.1754 43.6774 27.8749 43.2018 28.4065C42.6702 28.9661 41.9707 29.2459 41.0754 29.2459Z" fill="#F4F3E5"/>
<path d="M44.7406 29.134V23.4543H50.1965C50.9519 23.4543 51.5115 23.5941 51.8473 23.9019C52.239 24.2377 52.4348 24.7693 52.4348 25.5247V29.134H51.0079V25.7205C51.0079 25.3568 50.9519 25.077 50.868 24.9371C50.7281 24.7693 50.4763 24.6573 50.1126 24.6573C50.0007 24.6573 49.8887 24.6573 49.7768 24.6853H49.525C49.4131 24.6853 49.3571 24.6853 49.3292 24.6853V29.106H47.8743V24.6853H46.1955V29.134H44.7406Z" fill="#F4F3E5"/>
<path d="M55.0089 29.134H53.6099V23.4543H59.0658C59.8212 23.4543 60.3808 23.5941 60.7166 23.9019C61.1083 24.2377 61.3041 24.7693 61.3041 25.5247V29.134H59.8772V25.7205C59.8772 25.3568 59.8212 25.077 59.7373 24.9371C59.5974 24.7693 59.3456 24.6573 58.9819 24.6573C58.87 24.6573 58.758 24.6573 58.6461 24.6853H58.3384C58.2264 24.6853 58.1705 24.6853 58.1425 24.6853V29.106H56.6596V24.6853H54.9809V29.134H55.0089Z" fill="#F4F3E5"/>
<path d="M62.4233 23.4543H63.9062V29.134H62.4233V23.4543ZM62.4233 21.3838H63.9062V22.8107H62.4233V21.3838Z" fill="#F4F3E5"/>
<path d="M68.6066 29.134H64.9694V27.9589H67.9631C68.4667 27.9589 68.7185 27.763 68.7185 27.3993C68.7185 27.0355 68.4667 26.8397 67.9631 26.8397H66.732C66.0885 26.8397 65.6408 26.7558 65.389 26.5879C65.0253 26.3641 64.8574 25.9164 64.8574 25.2449C64.8574 24.0418 65.501 23.4263 66.76 23.4263H69.8097V24.6014H67.2916C66.9279 24.6014 66.704 24.6294 66.5641 24.6853C66.3963 24.7693 66.3123 24.9092 66.3123 25.161C66.3123 25.4687 66.5362 25.6366 66.9838 25.6366H68.2709C69.446 25.6366 70.0615 26.1682 70.0615 27.2314C70.0615 27.763 69.9496 28.2107 69.6698 28.5744C69.418 28.9661 69.0822 29.134 68.6066 29.134Z" fill="#F4F3E5"/>
<path d="M74.5941 29.134H70.9568V27.9589H73.9506C74.4542 27.9589 74.706 27.763 74.706 27.3993C74.706 27.0356 74.4542 26.8397 73.9506 26.8397H72.7195C72.076 26.8397 71.6283 26.7558 71.3765 26.5879C71.0128 26.3641 70.8449 25.9164 70.8449 25.2449C70.8449 24.0418 71.4884 23.4263 72.7475 23.4263H75.7972V24.6014H73.2791C72.9154 24.6014 72.6915 24.6294 72.5516 24.6853C72.3838 24.7693 72.2998 24.9092 72.2998 25.161C72.2998 25.4687 72.5237 25.6366 72.9713 25.6366H74.2583C75.4334 25.6366 76.049 26.1682 76.049 27.2314C76.049 27.763 75.9371 28.2107 75.6573 28.5744C75.4055 28.9661 75.0418 29.134 74.5941 29.134Z" fill="#F4F3E5"/>
<path d="M77.0003 23.4543H78.4832V29.134H77.0003V23.4543ZM77.0003 21.3838H78.4832V22.8107H77.0003V21.3838Z" fill="#F4F3E5"/>
<path d="M82.0924 28.0148C82.4282 28.0148 82.7359 27.9029 82.9878 27.6791C83.3235 27.3713 83.4914 26.9236 83.4914 26.3081C83.4914 25.7485 83.3515 25.3009 83.0997 24.9931C82.8479 24.7133 82.5401 24.5734 82.1484 24.5734C81.7287 24.5734 81.393 24.7133 81.1412 25.0211C80.8893 25.3288 80.7494 25.7485 80.7494 26.3081C80.7494 26.8397 80.8893 27.2314 81.1412 27.5671C81.365 27.8749 81.7007 28.0148 82.0924 28.0148ZM82.0924 29.2459C81.0852 29.2459 80.3298 28.9101 79.8261 28.2386C79.4344 27.707 79.2106 27.0635 79.2106 26.2801C79.2106 25.4967 79.4344 24.8252 79.8821 24.2936C80.4137 23.6501 81.1411 23.3423 82.0924 23.3423C82.8758 23.3423 83.5193 23.5662 84.0509 24.0418C84.6385 24.5734 84.9463 25.3288 84.9463 26.3081C84.9463 27.1754 84.6945 27.8749 84.2188 28.4065C83.7152 28.9661 82.9878 29.2459 82.0924 29.2459Z" fill="#F4F3E5"/>
<path d="M87.1566 29.134H85.7577V23.4543H88.4157C89.227 23.4543 89.7866 23.6221 90.1503 23.9299C90.5141 24.2377 90.6819 24.7693 90.6819 25.5527V29.1619H89.255V25.7485C89.255 25.3288 89.1991 25.049 89.0872 24.9371C88.9752 24.7972 88.7234 24.7413 88.3037 24.7413H87.1566V29.134Z" fill="#F4F3E5"/>
<path d="M97.0891 29.134H95.6062V24.5734H94.599V23.4543H95.6062V23.1185C95.6062 22.447 95.6622 22.0273 95.8021 21.8315C95.9979 21.5237 96.4176 21.3558 97.0891 21.3558H98.4601V22.475C97.7606 22.475 97.3689 22.503 97.285 22.531C97.1451 22.5869 97.0891 22.8387 97.0891 23.2584V23.4543H98.4601V24.6014H97.0891V29.134Z" fill="#F4F3E5"/>
<path d="M101.538 28.0148C101.873 28.0148 102.181 27.9029 102.433 27.6791C102.769 27.3713 102.937 26.9236 102.937 26.3081C102.937 25.7485 102.797 25.3009 102.545 24.9931C102.293 24.7133 101.985 24.5734 101.594 24.5734C101.174 24.5734 100.838 24.7133 100.586 25.0211C100.335 25.3288 100.195 25.7485 100.195 26.3081C100.195 26.8397 100.335 27.2314 100.586 27.5671C100.81 27.8749 101.118 28.0148 101.538 28.0148ZM101.538 29.2459C100.531 29.2459 99.7751 28.9101 99.2715 28.2386C98.8798 27.707 98.6559 27.0635 98.6559 26.2801C98.6559 25.4967 98.8798 24.8252 99.3274 24.2936C99.859 23.6501 100.586 23.3423 101.538 23.3423C102.321 23.3423 102.965 23.5662 103.496 24.0418C104.084 24.5734 104.392 25.3288 104.392 26.3081C104.392 27.1754 104.14 27.8749 103.664 28.4065C103.133 28.9661 102.433 29.2459 101.538 29.2459Z" fill="#F4F3E5"/>
<path d="M106.574 29.134H105.175V23.4543H107.553C108.197 23.4543 108.616 23.5941 108.812 23.8739C108.98 24.1257 109.036 24.6573 109.036 25.4967V25.8325H107.693V25.3848C107.693 24.9651 107.637 24.7133 107.553 24.6573C107.469 24.6014 107.134 24.5454 106.574 24.5454V29.134Z" fill="#F4F3E5"/>
<path d="M115.163 25.9164H117.374L116.255 22.9506L115.163 25.9164ZM114.044 29.134H112.422L115.499 21.3558H117.122L120.256 29.134H118.549L117.877 27.2874H114.688L114.044 29.134Z" fill="#F4F3E5"/>
<path d="M122.018 21.3838H120.535V29.1619H122.018V21.3838Z" fill="#F4F3E5"/>
<path d="M123.137 26.0843V21.3838H124.676V26.0563C124.676 26.6998 124.76 27.1754 124.956 27.4552C125.208 27.819 125.656 28.0148 126.355 28.0148C126.943 28.0148 127.362 27.8749 127.586 27.6231C127.866 27.3433 127.978 26.8117 127.978 26.0563V21.3838H129.517V26.0843C129.517 27.1754 129.321 27.9309 128.957 28.3785C128.481 28.9381 127.614 29.2179 126.327 29.2179C125.096 29.2179 124.229 28.9381 123.753 28.4065C123.333 27.9309 123.137 27.1754 123.137 26.0843Z" fill="#F4F3E5"/>
<path d="M132.231 21.3838H130.748V29.1619H132.231V21.3838Z" fill="#F4F3E5"/>
<path d="M135.336 28.0148H137.127V26.8117H135.448C134.889 26.8117 134.609 27.0076 134.581 27.3993C134.581 27.6511 134.637 27.819 134.805 27.9029C134.917 27.9868 135.084 28.0148 135.336 28.0148ZM135.812 24.6294H133.434V23.4543H136.343C137.826 23.4543 138.554 24.1537 138.554 25.5806V29.134H134.749C134.217 29.134 133.825 28.9941 133.518 28.6863C133.21 28.3785 133.07 27.9868 133.07 27.4552C133.07 26.7558 133.294 26.2801 133.713 26.0003C134.049 25.8045 134.553 25.6926 135.224 25.6926H137.099C137.099 25.3009 137.015 25.0211 136.819 24.8532C136.651 24.7133 136.315 24.6294 135.812 24.6294Z" fill="#F4F3E5"/>
</svg>
