<svg width="63" height="50" viewBox="0 0 63 50" fill="none" xmlns="http://www.w3.org/2000/svg">
<path d="M12.8938 43.382H13.8438L15.4588 46.0654L17.058 43.382H18.008L18.2614 49.0664H17.2797L17.0897 45.1286L15.6805 47.4468H15.1897L13.7646 45.1762L13.5905 49.0664H12.6404L12.8938 43.382Z" fill="#F4F3E5"/>
<path d="M23.5815 46.7323L22.869 44.5252L22.1406 46.7323H23.5815ZM22.3623 43.382H23.4073L25.4499 49.0664H24.3098L23.8348 47.6215H21.824L21.3489 49.0664H20.2881L22.3623 43.382Z" fill="#F4F3E5"/>
<path d="M29.6616 45.9384C29.915 45.9384 30.1208 45.859 30.2633 45.7002C30.4058 45.5414 30.485 45.3509 30.485 45.1127C30.485 44.8745 30.4058 44.6681 30.2633 44.5093C30.105 44.3506 29.915 44.287 29.6775 44.287H28.6008V45.9384H29.6616ZM29.6458 43.382C29.9783 43.382 30.2791 43.4296 30.5166 43.5408C30.7542 43.6519 30.9442 43.7789 31.0867 43.9536C31.2292 44.1283 31.34 44.3029 31.4033 44.5093C31.4667 44.7158 31.4983 44.9063 31.4983 45.081C31.4983 45.4303 31.4192 45.7637 31.2767 46.0336C31.1342 46.3036 30.8967 46.5259 30.5958 46.7005L31.8467 49.0823H30.6908L29.5983 46.8434H28.5691V49.0823H27.5874V43.382H29.6458Z" fill="#F4F3E5"/>
<path d="M36.2009 45.9384C36.4543 45.9384 36.6601 45.859 36.8026 45.7002C36.9451 45.5414 37.0243 45.3509 37.0243 45.1127C37.0243 44.8745 36.9451 44.6681 36.8026 44.5093C36.6443 44.3506 36.4543 44.287 36.2168 44.287H35.1401V45.9384H36.2009ZM34.1584 43.382H36.2009C36.5334 43.382 36.8343 43.4296 37.0718 43.5408C37.3093 43.6519 37.4993 43.7789 37.6418 43.9536C37.7843 44.1283 37.8951 44.3029 37.9585 44.5093C38.0218 44.7158 38.0535 44.9063 38.0535 45.081C38.0535 45.4303 37.9743 45.7637 37.8318 46.0336C37.6893 46.3036 37.4518 46.5259 37.151 46.7005L38.4018 49.0823H37.246L36.1534 46.8434H35.1401V49.0823H34.1584V43.382Z" fill="#F4F3E5"/>
<path d="M41.9644 43.382H40.951V49.0664H41.9644V43.382Z" fill="#F4F3E5"/>
<path d="M47.237 48.209C47.5062 48.209 47.7437 48.1613 47.9654 48.0502C48.187 47.939 48.3612 47.7961 48.5195 47.6056C48.6779 47.4151 48.7887 47.2086 48.8679 46.9546C48.947 46.7164 48.9945 46.4624 48.9945 46.1924C48.9945 45.9225 48.947 45.6685 48.8679 45.4144C48.7887 45.1762 48.6779 44.9539 48.5195 44.7793C48.3612 44.5887 48.187 44.4458 47.9654 44.3506C47.7437 44.2394 47.5062 44.1918 47.237 44.1918C46.9678 44.1918 46.7303 44.2394 46.5087 44.3506C46.3028 44.4617 46.1128 44.6046 45.9703 44.7793C45.812 44.9539 45.7011 45.1762 45.622 45.4144C45.5428 45.6526 45.4953 45.9066 45.4953 46.1924C45.4953 46.4624 45.5428 46.7164 45.622 46.9546C45.7011 47.1928 45.812 47.4151 45.9703 47.6056C46.1286 47.7961 46.3028 47.939 46.5087 48.0502C46.7303 48.1455 46.9678 48.209 47.237 48.209ZM47.237 49.2093C46.8412 49.2093 46.477 49.1299 46.1286 48.9711C45.7961 48.8123 45.4953 48.6059 45.242 48.336C44.9886 48.0661 44.7828 47.7485 44.6403 47.3833C44.4978 47.0181 44.4186 46.637 44.4186 46.2083C44.4186 45.7955 44.4978 45.3985 44.6403 45.0333C44.7828 44.6681 44.9886 44.3506 45.242 44.0806C45.4953 43.8107 45.7803 43.6043 46.1286 43.4455C46.477 43.2867 46.8412 43.2073 47.237 43.2073C47.6328 43.2073 47.997 43.2867 48.3454 43.4455C48.6779 43.6043 48.9787 43.8107 49.232 44.0806C49.4854 44.3506 49.6912 44.6681 49.8337 45.0333C49.9762 45.3985 50.0554 45.7796 50.0554 46.2083C50.0554 46.6211 49.9762 47.0181 49.8337 47.3833C49.6912 47.7485 49.4854 48.0661 49.232 48.336C48.9787 48.6059 48.6779 48.8282 48.3454 48.9711C47.997 49.1299 47.6328 49.2093 47.237 49.2093Z" fill="#F4F3E5"/>
<path d="M53.2063 44.3188H51.3854V43.382H56.0564V44.3188H54.2355V49.0664H53.2063V44.3188Z" fill="#F4F3E5"/>
<path d="M59.6189 44.3188H57.7822V43.382H62.469V44.3188H60.6323V49.0664H59.6189V44.3188Z" fill="#F4F3E5"/>
<path d="M40.2227 37.6976H49.327L34.0951 1.30478L26.4474 5.02028L31.7675 17.6911L29.2975 23.5819L19.7656 0.717285L12.0388 4.25812L18.2455 18.8661L18.2139 18.9296C14.3821 28.1548 9.69537 30.6794 9.23619 30.8541C8.14367 31.2987 6.97198 31.5527 5.73695 31.5527C5.35694 31.5527 4.99277 31.5369 4.62859 31.4892L0.891846 39.5236C2.12687 40.2381 3.52024 40.6509 4.99277 40.6509C6.86114 40.6509 8.57118 39.9999 9.99621 38.9202L9.98037 38.952C9.98037 38.952 13.5113 37.1577 17.2955 27.3291C17.2955 27.3133 18.6889 24.1853 19.4331 22.1846L19.5122 21.9623L26.1624 37.7135H35.2509L30.5641 26.6305L33.05 20.7397L40.2227 37.6976Z" fill="#F4F3E5"/>
</svg>
