<svg width="80" height="50" viewBox="0 0 80 50" fill="none" xmlns="http://www.w3.org/2000/svg">
<path d="M4.53881 29.6413L3.83623 28.9291L3.13365 29.6413L3.83623 30.3517L4.53881 29.6413Z" fill="#F4F3E5"/>
<path d="M2.884 29.6413L2.18142 28.9291L1.48062 29.6413L2.18142 30.3517L2.884 29.6413Z" fill="#F4F3E5"/>
<path d="M16.3401 29.5845L15.6393 28.8741L14.9367 29.5845L15.6393 30.2949L16.3401 29.5845Z" fill="#F4F3E5"/>
<path d="M16.9927 32.0992C16.6878 31.4972 16.2402 31.1971 15.6517 31.1971C15.4092 31.1971 15.1828 31.2521 14.9723 31.3604C14.7601 31.4688 14.5765 31.6197 14.4231 31.8115C14.268 32.0033 14.1449 32.2289 14.054 32.4882C13.963 32.7475 13.9185 33.0245 13.9185 33.3176C13.9185 33.8361 14.0593 34.2411 14.3429 34.5305C14.6264 34.82 15.0169 34.9656 15.5144 34.9656C15.7409 34.9656 15.9549 34.9319 16.1546 34.8644C16.3543 34.7969 16.5309 34.7028 16.6824 34.582V35.3723C16.6824 35.5233 16.4328 35.6352 15.9353 35.7098C15.436 35.7861 6.92652 35.8217 5.94576 35.8217H5.68541C5.31451 35.8217 5.04703 35.7542 4.88119 35.6139C4.71535 35.4736 4.63511 35.2427 4.64224 34.9212L4.6886 31.0958L3.79344 31.2521V31.9412C2.87865 32.1294 2.16715 32.4278 1.65716 32.8327C1.14716 33.2394 0.892164 33.7313 0.892164 34.3103C0.892164 34.5518 0.942094 34.7685 1.04017 34.9603C1.13825 35.1503 1.2702 35.312 1.43782 35.438C1.60366 35.5659 1.79625 35.6636 2.02093 35.7311C2.24562 35.7986 2.48278 35.8323 2.74135 35.8323C3.1711 35.8323 3.54557 35.7417 3.86298 35.5606C3.99137 36.4113 4.59944 36.8357 5.6872 36.8357H5.94754C6.34877 36.8357 14.4677 36.8304 14.7691 36.8197C15.0722 36.8091 15.3415 36.7878 15.5751 36.7576C15.8087 36.7274 16.0102 36.6919 16.1813 36.6493C16.3508 36.6084 16.5095 36.5534 16.6503 36.4859C16.9446 36.3491 17.1532 36.1538 17.2727 35.8927C17.3939 35.6334 17.4546 35.2569 17.4546 34.7596C17.4546 33.5875 17.3012 32.6995 16.9945 32.0975M16.1903 34.0262C16.0048 34.0794 15.814 34.1061 15.6179 34.1061C15.3004 34.1061 15.0579 34.0333 14.8867 33.8912C14.7173 33.7491 14.6317 33.5378 14.6317 33.2589C14.6317 32.9428 14.7263 32.6782 14.9135 32.4633C15.1025 32.2484 15.3379 32.1419 15.6161 32.1419C15.9174 32.1419 16.1493 32.2733 16.3115 32.5379C16.4756 32.8007 16.5826 33.2252 16.6343 33.813C16.5219 33.9036 16.3721 33.9747 16.1867 34.0279M2.87152 34.852C2.71281 34.852 2.55946 34.8378 2.41145 34.8129C2.26523 34.7863 2.13327 34.7454 2.02093 34.6886C1.90859 34.6335 1.81943 34.5589 1.75523 34.4684C1.68926 34.3778 1.65716 34.2659 1.65716 34.1309C1.65716 33.9658 1.716 33.813 1.8337 33.6745C1.95139 33.536 2.10831 33.4117 2.30981 33.3016C2.50953 33.1932 2.73778 33.1027 2.99634 33.0316C3.25134 32.9588 3.52061 32.9091 3.80057 32.8789L3.82197 34.6957C3.55092 34.8023 3.23351 34.8538 2.87152 34.8538" fill="#F4F3E5"/>
<path d="M30.8161 30.7797L30.1153 30.0693L29.4127 30.7797L30.1153 31.4901L30.8161 30.7797Z" fill="#F4F3E5"/>
<path d="M32.4709 30.7797L31.7683 30.0693L31.0657 30.7797L31.7683 31.4901L32.4709 30.7797Z" fill="#F4F3E5"/>
<path d="M44.0368 30.5986L43.3342 29.8882L42.6316 30.5986L43.3342 31.3107L44.0368 30.5986Z" fill="#F4F3E5"/>
<path d="M44.1598 32.7652L44.8624 32.0548L44.1598 31.3445L43.459 32.0548L44.1598 32.7652Z" fill="#F4F3E5"/>
<path d="M43.2094 32.0548L42.5068 31.3445L41.8042 32.0548L42.5068 32.7652L43.2094 32.0548Z" fill="#F4F3E5"/>
<path d="M53.9121 29.7195L53.9442 35.248C53.9442 35.3528 53.905 35.4434 53.8265 35.518C53.7463 35.5926 53.6447 35.6529 53.5198 35.6991C53.395 35.7435 53.2541 35.7755 53.0972 35.7932C52.9367 35.8128 45.0229 35.8217 44.8517 35.8217C43.9529 35.8217 43.5036 35.589 43.5036 35.1219C43.5036 35.0615 43.5178 34.8999 43.5482 34.6371C43.5785 34.3742 43.6124 34.0848 43.6498 33.7686L42.8795 33.6781C42.8634 33.7757 42.8491 33.8876 42.8349 34.0155C42.8188 34.1434 42.801 34.2712 42.7778 34.3991C42.7546 34.527 42.7332 34.6531 42.7101 34.7756C42.6869 34.8999 42.6673 35.0029 42.653 35.0864C42.5924 35.3492 42.4426 35.5375 42.2054 35.6512C41.9665 35.7631 33.8404 35.8199 33.3447 35.8199C33.1182 35.8199 32.9024 35.8163 32.6974 35.8092C32.4941 35.8021 32.3051 35.7897 32.1321 35.7755C32.5244 35.4079 32.7206 34.9497 32.7206 34.3991C32.7206 34.1203 32.6724 33.8592 32.5797 33.6141C32.4852 33.3691 32.3568 33.1577 32.1945 32.9766C32.0322 32.7954 31.8432 32.6533 31.6275 32.5486C31.4117 32.442 31.1834 32.3905 30.9427 32.3905C30.702 32.3905 30.4719 32.442 30.2562 32.5486C30.0404 32.6533 29.8532 32.7972 29.6891 32.9766C29.5268 33.1577 29.3984 33.3691 29.3039 33.6141C29.2112 33.8592 29.1631 34.1203 29.1631 34.3991C29.1631 34.955 29.3592 35.4132 29.7515 35.7755C29.5714 35.7897 29.3788 35.8021 29.1738 35.8092C28.9687 35.8163 20.9889 35.8199 20.7695 35.8199C20.3986 35.8199 20.1329 35.7506 19.9707 35.6121C19.8084 35.4718 19.7264 35.2427 19.7264 34.9195L19.7709 29.5596L18.8758 29.7177L18.9221 35.2569C18.9382 36.31 19.5516 36.8357 20.7677 36.8357C21.1904 36.8357 29.377 36.802 29.7836 36.7345C30.192 36.667 30.5771 36.5693 30.9391 36.4415C31.3011 36.5693 31.6863 36.667 32.0947 36.7345C32.503 36.802 32.9185 36.8357 33.3411 36.8357C33.8172 36.8357 41.995 36.77 42.3392 36.6368C42.6833 36.5054 42.9294 36.3189 43.081 36.0792C43.377 36.5835 43.9636 36.8357 44.8481 36.8357C45.1299 36.8357 53.1507 36.8073 53.4039 36.7505C53.6571 36.6954 53.8836 36.5995 54.0833 36.4681C54.283 36.3367 54.4453 36.1626 54.5701 35.9495C54.695 35.7364 54.7556 35.47 54.7556 35.1539L54.802 29.5578L53.9068 29.7159L53.9121 29.7195ZM30.9409 35.5517C30.2455 35.3262 29.8995 34.9532 29.8995 34.4346C29.8995 34.2837 29.9245 34.1451 29.978 34.0173C30.0297 33.8894 30.1046 33.7775 30.1973 33.6798C30.2918 33.5822 30.4024 33.5076 30.5326 33.4543C30.661 33.401 30.7965 33.3762 30.9409 33.3762C31.0854 33.3762 31.2191 33.4028 31.3493 33.4543C31.4777 33.5076 31.5882 33.5822 31.6827 33.6798C31.7772 33.7775 31.8504 33.8894 31.9038 34.0173C31.9573 34.1451 31.9841 34.2837 31.9841 34.4346C31.9841 34.9532 31.6364 35.3262 30.9409 35.5517Z" fill="#F4F3E5"/>
<path d="M56.2909 36.8375L56.2339 29.7195L57.129 29.5614L57.0738 36.8375H56.2909Z" fill="#F4F3E5"/>
<path d="M64.335 35.1468C64.335 35.6885 64.1602 36.12 63.8143 36.4397C63.4665 36.7594 62.9922 36.9192 62.3877 36.9192C61.7458 36.9192 61.2589 36.7629 60.9273 36.4521C60.5956 36.1396 60.428 35.6902 60.428 35.1042C60.428 34.7348 60.4815 34.3867 60.5867 34.0599C60.6937 33.7331 60.8328 33.4454 61.0129 33.1968C61.1894 32.9481 61.398 32.7528 61.6352 32.6107C61.8724 32.4686 62.1238 32.3958 62.3877 32.3958C62.6516 32.3958 62.9137 32.4669 63.1527 32.6107C63.3899 32.7546 63.5967 32.9499 63.7697 33.1968C63.9444 33.4454 64.0835 33.7367 64.1834 34.0706C64.2868 34.4062 64.3367 34.7632 64.3367 35.1486M61.5496 31.4936L60.8488 30.7833L61.5496 30.0729L62.254 30.7833L61.5496 31.4936ZM63.5664 35.2516C63.5664 34.9887 63.5379 34.7454 63.4808 34.5234C63.4237 34.3014 63.3435 34.1096 63.2383 33.948C63.1313 33.7864 63.0083 33.6603 62.8638 33.5697C62.7194 33.4809 62.5625 33.4348 62.3877 33.4348C62.229 33.4348 62.0774 33.4738 61.9294 33.552C61.7832 33.6301 61.6548 33.7385 61.5496 33.8752C61.4462 34.0084 61.3588 34.1682 61.2946 34.3476C61.2304 34.5288 61.1983 34.7188 61.1983 34.923C61.1983 35.2462 61.3017 35.4913 61.505 35.6618C61.7083 35.8305 62.0043 35.9158 62.3877 35.9158C62.5464 35.9158 62.698 35.8998 62.8406 35.8643C62.9851 35.8305 63.1081 35.7826 63.2151 35.7187C63.3203 35.6547 63.4059 35.5837 63.4701 35.5038C63.5343 35.4256 63.5664 35.3404 63.5664 35.2498M63.2044 31.4919L62.5018 30.7815L63.2044 30.0711L63.907 30.7815L63.2044 31.4919Z" fill="#F4F3E5"/>
<path d="M64.0158 38.2032C64.4241 38.0523 64.8022 37.88 65.1481 37.6846C65.4958 37.4893 65.7954 37.285 66.0504 37.0702C66.3018 36.8553 66.5015 36.6404 66.6442 36.4273C66.7869 36.2124 66.86 36.0081 66.86 35.8128C66.86 35.692 66.8332 35.5393 66.7815 35.351C66.728 35.1646 66.6549 34.9585 66.5604 34.7365C66.4659 34.5145 66.3536 34.2837 66.2252 34.0421C66.0968 33.8024 65.9612 33.568 65.8168 33.3424L66.6317 32.8913C66.9491 33.3122 67.1988 33.7793 67.3789 34.2908C67.5608 34.8023 67.6517 35.28 67.6517 35.724C67.6517 36.4308 67.3789 37.079 66.8368 37.6704C66.2929 38.2618 65.5261 38.7378 64.5365 39.0983L64.0158 38.2068V38.2032Z" fill="#F4F3E5"/>
<path d="M69.2156 36.8375L69.1585 29.7195L70.0537 29.5614L69.9984 36.8375H69.2156Z" fill="#F4F3E5"/>
<path d="M70.6208 38.2032C71.0273 38.054 71.4054 37.88 71.7531 37.6846C72.1008 37.4893 72.4004 37.285 72.6536 37.0702C72.9068 36.8553 73.1048 36.6404 73.2474 36.4273C73.3918 36.2124 73.4632 36.0081 73.4632 35.8128C73.4632 35.692 73.4364 35.5375 73.3829 35.3493C73.3294 35.161 73.2563 34.9568 73.1618 34.7348C73.0673 34.5128 72.9567 34.2819 72.8284 34.0404C72.7 33.8006 72.5627 33.5662 72.42 33.3406L73.2349 32.8895C73.5523 33.3104 73.802 33.7775 73.9821 34.289C74.164 34.8005 74.2531 35.2782 74.2531 35.7222C74.2531 36.429 73.9821 37.0773 73.4382 37.6687C72.8943 38.2583 72.1276 38.7342 71.1379 39.0948L70.6172 38.2032H70.6208ZM72.6946 31.9767L71.992 31.2663L72.6946 30.5559L73.3954 31.2663L72.6946 31.9767Z" fill="#F4F3E5"/>
<path d="M75.7421 38.1695C77.3737 37.9439 78.3135 37.3543 78.5631 36.3971C78.4116 36.5107 78.235 36.5978 78.0353 36.6564C77.8356 36.7167 77.6216 36.7469 77.3951 36.7469C76.8976 36.7469 76.4964 36.5729 76.195 36.2284C75.8919 35.882 75.7403 35.4274 75.7403 34.8626C75.7403 34.5465 75.7867 34.2553 75.8759 33.9889C75.9668 33.7225 76.0916 33.4898 76.2503 33.2945C76.4072 33.0991 76.5981 32.9464 76.8174 32.838C77.0367 32.7297 77.2739 32.6747 77.5307 32.6747C78.1191 32.6747 78.5792 32.9393 78.9073 33.4685C79.2354 33.9995 79.4012 34.7454 79.4012 35.708C79.4012 36.1591 79.3246 36.5764 79.1694 36.9618C79.0143 37.3454 78.7967 37.6829 78.5132 37.9777C78.2297 38.2707 77.8873 38.514 77.4879 38.7058C77.0866 38.8976 76.6408 39.0273 76.1522 39.0948L75.7439 38.1695H75.7421ZM77.5431 35.8341C77.7536 35.8341 77.9604 35.8039 78.1601 35.7435C78.3616 35.6831 78.5168 35.6085 78.6309 35.518C78.6006 34.923 78.4882 34.4648 78.2974 34.1416C78.1049 33.8184 77.8374 33.6568 77.4986 33.6568C77.2043 33.6568 76.9636 33.7651 76.7782 33.9835C76.5927 34.202 76.5 34.4879 76.5 34.8413C76.5 35.1574 76.5927 35.4025 76.7782 35.5748C76.9636 35.7471 77.2186 35.8341 77.5431 35.8341Z" fill="#F4F3E5"/>
<path d="M1.20066 40.8494H2.12079L4.14829 44.3019L6.17579 40.8494H7.07453L7.38302 47.4844H6.44506L6.22572 42.3909L4.34801 45.5237H3.86833L2.02093 42.4318L1.7909 47.4844H0.890381L1.20066 40.8494Z" fill="#F4F3E5"/>
<path d="M9.01822 40.821L9.72972 41.5314L9.01822 42.2418L8.30494 41.5314L9.01822 40.821ZM8.5742 42.8598H9.47294V47.4862H8.5742V42.8598Z" fill="#F4F3E5"/>
<path d="M10.7497 47.4844V43.1528C10.7497 43.0889 10.7461 42.9912 10.739 42.858H11.5985L11.6288 43.5542C11.6877 43.4743 11.7608 43.3873 11.8482 43.2896C11.9355 43.1954 12.0407 43.1067 12.1674 43.0267C12.294 42.9468 12.442 42.8793 12.6114 42.8278C12.7808 42.7745 12.9734 42.7479 13.1856 42.7479C13.7919 42.7479 14.243 42.9237 14.5354 43.2754C14.8261 43.627 14.9741 44.1047 14.9741 44.7068V47.4826H14.0736V44.7761C14.0736 44.3445 13.9809 44.0284 13.7954 43.8259C13.6082 43.6235 13.3461 43.5222 13.0055 43.5222C12.7451 43.5222 12.5293 43.5755 12.3564 43.6821C12.1834 43.7886 12.0461 43.9254 11.9427 44.0941C11.8375 44.2646 11.7626 44.4564 11.718 44.6713C11.6716 44.8879 11.6484 45.1082 11.6484 45.3337V47.4826H10.7479L10.7497 47.4844Z" fill="#F4F3E5"/>
<path d="M16.5095 40.821L17.2227 41.5314L16.5095 42.2418L15.7962 41.5314L16.5095 40.821ZM16.0654 42.8598H16.9642V47.4862H16.0654V42.8598Z" fill="#F4F3E5"/>
<path d="M18.4621 46.3211C18.6279 46.4863 18.8294 46.6195 19.0612 46.719C19.293 46.8184 19.5641 46.8681 19.869 46.8681C20.1739 46.8681 20.4182 46.8202 20.618 46.7243C20.8177 46.6284 20.9175 46.4774 20.9175 46.2714C20.9175 46.1649 20.8944 46.0743 20.8533 45.9979C20.8088 45.9216 20.7356 45.8541 20.6322 45.7937C20.5288 45.7351 20.3915 45.68 20.2239 45.6303C20.0545 45.5806 19.8423 45.5255 19.5908 45.4651C19.4107 45.4243 19.2324 45.3728 19.0559 45.3053C18.8776 45.2378 18.7206 45.1508 18.5815 45.0424C18.4407 44.9341 18.3265 44.7991 18.2427 44.6446C18.1554 44.4883 18.1126 44.3019 18.1126 44.0834C18.1126 43.865 18.1643 43.659 18.2677 43.492C18.3693 43.3233 18.5084 43.1795 18.6796 43.064C18.8544 42.9468 19.047 42.8598 19.2645 42.7994C19.4803 42.7408 19.705 42.7106 19.9386 42.7106C20.3326 42.7106 20.6697 42.7621 20.9532 42.8651C21.2367 42.9681 21.4864 43.112 21.6986 43.2985L21.2082 43.9147C21.0691 43.7886 20.8944 43.6821 20.6839 43.595C20.4735 43.5098 20.2292 43.4654 19.9493 43.4654C19.6693 43.4654 19.4321 43.5133 19.2609 43.6057C19.088 43.6998 19.0006 43.8508 19.0006 44.0639C19.0006 44.2628 19.1147 44.4102 19.3447 44.5079C19.5748 44.6038 19.8744 44.6944 20.2471 44.7814C20.4682 44.8347 20.6732 44.895 20.8623 44.9661C21.0531 45.0353 21.2189 45.1259 21.3616 45.2343C21.506 45.3426 21.6183 45.4776 21.7021 45.6374C21.7842 45.7972 21.827 45.989 21.827 46.2146C21.827 46.4401 21.7735 46.6497 21.6665 46.8273C21.5595 47.0031 21.4168 47.1505 21.2385 47.2713C21.0584 47.3903 20.8516 47.4791 20.618 47.5395C20.3861 47.5981 20.1418 47.6283 19.8886 47.6283C19.0095 47.6283 18.3515 47.3938 17.9111 46.9214L18.4603 46.3247L18.4621 46.3211Z" fill="#F4F3E5"/>
<path d="M23.2767 43.6057H22.4386V42.8598H23.2767V41.3467H24.1754V42.8598H25.5342V43.6057H24.1754V45.8843C24.1754 46.2554 24.2325 46.5112 24.3502 46.6515C24.4679 46.79 24.6319 46.8593 24.8459 46.8593C25.0171 46.8593 25.1616 46.8326 25.2757 46.7811C25.388 46.7278 25.5021 46.6479 25.6163 46.5414L26.0246 47.0884C25.8303 47.2731 25.6323 47.408 25.4308 47.4915C25.2275 47.575 24.985 47.6158 24.7068 47.6158C24.2129 47.6158 23.8527 47.4844 23.6227 47.218C23.3926 46.9534 23.2785 46.5378 23.2785 45.9748V43.6075L23.2767 43.6057Z" fill="#F4F3E5"/>
<path d="M26.7932 47.4844V43.1475C26.7932 43.0871 26.7896 42.9912 26.7825 42.858H27.642L27.6723 43.6039C27.7258 43.5258 27.7953 43.437 27.8809 43.3411C27.9665 43.2452 28.0735 43.1564 28.1948 43.0782C28.3178 42.9983 28.4623 42.9308 28.6245 42.874C28.7868 42.8189 28.974 42.7905 29.188 42.7905C29.2879 42.7905 29.3788 42.7959 29.4626 42.8101C29.5447 42.8243 29.6231 42.8438 29.698 42.8704L29.4983 43.7052C29.3788 43.659 29.2255 43.6359 29.0382 43.6359C28.851 43.6359 28.6673 43.6732 28.5033 43.746C28.341 43.8188 28.1984 43.92 28.0807 44.0497C27.9594 44.1793 27.8649 44.3303 27.7953 44.5026C27.7258 44.6748 27.6919 44.8577 27.6919 45.0496V47.4862H26.7914L26.7932 47.4844Z" fill="#F4F3E5"/>
<path d="M30.6092 48.6192C30.6752 48.6796 30.7537 48.7311 30.8393 48.7791C30.9267 48.8252 31.0319 48.8483 31.1585 48.8483C31.2655 48.8483 31.3564 48.8252 31.4331 48.7791C31.5098 48.7311 31.5793 48.6601 31.6435 48.5642C31.7059 48.4683 31.7665 48.3528 31.8236 48.2161C31.8807 48.0811 31.9449 47.9231 32.018 47.7437L32.1374 47.4453L30.06 42.8598H31.0889L32.585 46.3513L33.9046 42.8598H34.8836L33.0255 47.3654C32.9381 47.5785 32.8507 47.8112 32.7598 48.0669C32.6688 48.3227 32.5583 48.5642 32.4245 48.7933C32.2908 49.0224 32.1285 49.2124 31.9359 49.3651C31.7434 49.5179 31.4991 49.5942 31.2066 49.5942C30.973 49.5942 30.7769 49.564 30.6182 49.5001C30.4577 49.4362 30.3186 49.3527 30.1973 49.2462L30.6075 48.6192H30.6092Z" fill="#F4F3E5"/>
<path d="M39.3095 47.6247C38.9511 47.6247 38.6194 47.5608 38.3216 47.4311C38.022 47.3032 37.7635 47.1239 37.5477 46.8983C37.3301 46.6728 37.1607 46.4117 37.0377 46.1169C36.9129 45.8221 36.8522 45.506 36.8522 45.1668C36.8522 44.8276 36.9129 44.5114 37.0377 44.2166C37.1607 43.9218 37.3284 43.6625 37.5477 43.4352C37.7635 43.2114 38.022 43.0338 38.3216 42.9042C38.6212 42.7745 38.9511 42.7106 39.3095 42.7106C39.6679 42.7106 39.9907 42.7745 40.2885 42.9042C40.588 43.0338 40.8484 43.2114 41.0677 43.4352C41.2888 43.6608 41.46 43.9218 41.5813 44.2166C41.7043 44.5114 41.7667 44.8276 41.7667 45.1668C41.7667 45.506 41.7043 45.8221 41.5813 46.1169C41.4583 46.4117 41.2871 46.6728 41.0677 46.8983C40.8484 47.1239 40.5898 47.3015 40.2885 47.4311C39.9889 47.5608 39.6608 47.6247 39.3095 47.6247ZM39.3095 46.8486C39.5484 46.8486 39.766 46.8007 39.9586 46.7048C40.1512 46.6106 40.3152 46.4828 40.449 46.3265C40.5827 46.1702 40.6843 45.9908 40.7539 45.7901C40.8234 45.5877 40.8591 45.3817 40.8591 45.1685C40.8591 44.9554 40.8234 44.7601 40.7539 44.5558C40.6843 44.3552 40.5809 44.174 40.4436 44.0142C40.3063 43.8543 40.144 43.7265 39.9532 43.6323C39.766 43.5364 39.5484 43.4867 39.3095 43.4867C39.0705 43.4867 38.853 43.5347 38.6622 43.6323C38.4678 43.7282 38.3055 43.8543 38.1718 44.0106C38.0381 44.1669 37.9382 44.3463 37.8669 44.547C37.7973 44.7494 37.7617 44.9572 37.7617 45.1685C37.7617 45.3799 37.7973 45.5859 37.8669 45.7848C37.9364 45.9837 38.0399 46.1631 38.1772 46.3211C38.3127 46.481 38.4767 46.6088 38.6675 46.703C38.8566 46.7989 39.0705 46.8468 39.3113 46.8468" fill="#F4F3E5"/>
<path d="M43.138 43.6057H42.2981V42.8598H43.138V42.4815C43.138 42.1689 43.1826 41.899 43.2718 41.6699C43.3609 41.4408 43.4804 41.2525 43.6302 41.1069C43.78 40.9613 43.9512 40.853 44.1455 40.7837C44.3381 40.7144 44.5414 40.6789 44.7554 40.6789C45.0015 40.6789 45.2422 40.718 45.4794 40.7943C45.7148 40.8707 45.9341 41.0004 46.132 41.1868L45.6827 41.764C45.4366 41.5598 45.1727 41.455 44.8945 41.455C44.6341 41.455 44.4255 41.5385 44.2704 41.7036C44.1134 41.8706 44.035 42.1547 44.035 42.5597V42.858H45.3635V43.6039H44.035V47.4844H43.1362V43.6039L43.138 43.6057Z" fill="#F4F3E5"/>
<path d="M54.0084 46.3211C53.9353 46.4401 53.8212 46.5751 53.6696 46.7296C53.5163 46.8823 53.329 47.0262 53.1097 47.1629C52.8904 47.2979 52.6371 47.4134 52.3501 47.5057C52.0647 47.5998 51.7473 47.646 51.4014 47.646C50.9092 47.646 50.4581 47.559 50.0533 47.3867C49.6467 47.2145 49.2972 46.9729 49.0048 46.6657C48.7105 46.3584 48.4841 45.9926 48.32 45.5717C48.156 45.1508 48.0757 44.6926 48.0757 44.1953C48.0757 43.698 48.1577 43.2576 48.32 42.8332C48.4823 42.4087 48.7105 42.0375 49.0048 41.7196C49.2972 41.4017 49.6503 41.1513 50.0586 40.9684C50.4688 40.7855 50.9235 40.6949 51.4228 40.6949C51.7759 40.6949 52.0915 40.7375 52.3715 40.8245C52.6514 40.9098 52.8957 41.0181 53.1043 41.1478C53.3166 41.2774 53.4949 41.4177 53.6447 41.5704C53.7944 41.7232 53.9157 41.8688 54.0102 42.0091L53.3308 42.5845C53.2506 42.4726 53.1561 42.3554 53.0473 42.2311C52.9367 42.1086 52.8066 41.9967 52.6514 41.899C52.4981 41.7995 52.3215 41.7161 52.1218 41.6504C51.9221 41.5847 51.6921 41.5509 51.4335 41.5509C51.0661 41.5509 50.738 41.6202 50.4492 41.7605C50.1585 41.9008 49.9142 42.089 49.7091 42.327C49.5058 42.565 49.3507 42.8438 49.2455 43.1617C49.1385 43.4796 49.085 43.8188 49.085 44.1758C49.085 44.5327 49.1403 44.8702 49.2509 45.1863C49.3596 45.5024 49.5148 45.7759 49.7145 46.0068C49.9142 46.2395 50.1567 46.4224 50.4438 46.5538C50.7309 46.687 51.0501 46.7527 51.4032 46.7527C51.7028 46.7527 51.9613 46.7154 52.1771 46.639C52.3928 46.5627 52.5765 46.4721 52.7263 46.3655C52.8761 46.259 52.9991 46.1507 53.0954 46.0423C53.1917 45.934 53.2738 45.8416 53.3397 45.7688L54.0102 46.3265L54.0084 46.3211Z" fill="#F4F3E5"/>
<path d="M54.9464 42.8598H55.8469V45.5752C55.8469 46.0139 55.9361 46.33 56.1162 46.5254C56.2963 46.7207 56.5566 46.8184 56.8954 46.8184C57.1558 46.8184 57.3698 46.7651 57.541 46.6586C57.7121 46.552 57.8494 46.4153 57.9564 46.2466C58.0634 46.0761 58.1383 45.886 58.1811 45.6694C58.2239 45.4545 58.2453 45.2343 58.2453 45.0069V42.858H59.1458V47.2002C59.1458 47.2979 59.1494 47.392 59.1565 47.4844H58.297L58.2667 46.7971C58.2061 46.877 58.133 46.9623 58.0474 47.0564C57.96 47.1487 57.853 47.2322 57.7282 47.3086C57.6016 47.3849 57.4554 47.4507 57.2877 47.5039C57.1219 47.5554 56.9329 47.5821 56.7189 47.5821C56.1126 47.5821 55.6668 47.4098 55.3815 47.0599C55.0944 46.7119 54.95 46.2359 54.95 45.6321V42.8562L54.9464 42.8598Z" fill="#F4F3E5"/>
<path d="M61.2821 40.8494H60.3816V47.4844H61.2821V40.8494Z" fill="#F4F3E5"/>
<path d="M62.9102 43.6057H62.0721V42.8598H62.9102V41.3467H63.8089V42.8598H65.1677V43.6057H63.8089V45.8843C63.8089 46.2554 63.866 46.5112 63.9837 46.6515C64.1014 46.79 64.2654 46.8593 64.4776 46.8593C64.6506 46.8593 64.7932 46.8326 64.9074 46.7811C65.0197 46.7278 65.1338 46.6479 65.248 46.5414L65.6581 47.0884C65.4637 47.2731 65.2658 47.408 65.0643 47.4915C64.861 47.575 64.6185 47.6158 64.3403 47.6158C63.8464 47.6158 63.4862 47.4844 63.2579 47.218C63.0279 46.9534 62.9137 46.5378 62.9137 45.9748V43.6075L62.9102 43.6057Z" fill="#F4F3E5"/>
<path d="M66.2145 42.8598H67.115V45.5752C67.115 46.0139 67.2041 46.33 67.3842 46.5254C67.5643 46.7207 67.8247 46.8184 68.1635 46.8184C68.4239 46.8184 68.6378 46.7651 68.809 46.6586C68.9802 46.552 69.1175 46.4153 69.2245 46.2466C69.3315 46.0761 69.4064 45.886 69.4492 45.6694C69.492 45.4545 69.5134 45.2343 69.5134 45.0069V42.858H70.4139V47.2002C70.4139 47.2979 70.4175 47.392 70.4246 47.4844H69.5651L69.5348 46.7971C69.4742 46.877 69.401 46.9623 69.3154 47.0564C69.2281 47.1487 69.1211 47.2322 68.9963 47.3086C68.8696 47.3849 68.7234 47.4507 68.5558 47.5039C68.39 47.5554 68.2009 47.5821 67.987 47.5821C67.3807 47.5821 66.9349 47.4098 66.6496 47.0599C66.3625 46.7119 66.218 46.2359 66.218 45.6321V42.8562L66.2145 42.8598Z" fill="#F4F3E5"/>
<path d="M71.6586 43.1475C71.6586 43.0871 71.655 42.9912 71.6479 42.858H72.5074L72.5377 43.6039C72.5912 43.5258 72.6607 43.437 72.7463 43.3411C72.8337 43.2452 72.9389 43.1564 73.0602 43.0782C73.1832 42.9983 73.3277 42.9308 73.4899 42.874C73.6522 42.8189 73.8412 42.7905 74.0534 42.7905C74.1533 42.7905 74.2442 42.7959 74.328 42.8101C74.4101 42.8243 74.4885 42.8438 74.5634 42.8704L74.3637 43.7052C74.2442 43.659 74.0909 43.6359 73.9036 43.6359C73.7164 43.6359 73.5327 43.6732 73.3705 43.746C73.2064 43.8188 73.0655 43.92 72.9478 44.0497C72.8266 44.1793 72.7321 44.3303 72.6625 44.5026C72.593 44.6748 72.5591 44.8577 72.5591 45.0496V47.4862H71.6586V43.1475Z" fill="#F4F3E5"/>
<path d="M79.28 46.8095C79.2265 46.8681 79.1462 46.9463 79.041 47.0386C78.9358 47.131 78.795 47.2198 78.6255 47.3068C78.4544 47.3938 78.2564 47.4684 78.0264 47.5306C77.7964 47.5927 77.5342 47.6247 77.2418 47.6247C76.8798 47.6247 76.5517 47.5661 76.2539 47.4453C75.9525 47.3263 75.6957 47.1558 75.4835 46.9374C75.2713 46.719 75.1073 46.4561 74.9896 46.1524C74.8737 45.8487 74.8148 45.5095 74.8148 45.1384C74.8148 44.8009 74.8719 44.483 74.9843 44.1882C75.0966 43.8916 75.2571 43.6377 75.4639 43.4228C75.6708 43.2079 75.9151 43.0374 76.1986 42.9113C76.4821 42.7852 76.7924 42.7213 77.133 42.7213C77.5324 42.7213 77.8748 42.7959 78.1619 42.9504C78.449 43.1031 78.6826 43.3056 78.8663 43.5577C79.0482 43.8099 79.1855 44.0994 79.2711 44.4226C79.3567 44.7476 79.3995 45.0868 79.3995 45.4367H75.7332C75.7385 45.6427 75.7849 45.831 75.8669 46.0032C75.9507 46.1755 76.0631 46.3247 76.2022 46.4508C76.3413 46.5769 76.5018 46.6763 76.6819 46.7491C76.862 46.822 77.051 46.8575 77.2507 46.8575C77.643 46.8575 77.9658 46.7918 78.219 46.6586C78.4722 46.5254 78.6541 46.3957 78.7682 46.2696L79.2782 46.8078L79.28 46.8095ZM78.4704 44.7707C78.4437 44.412 78.3171 44.1083 78.0906 43.8543C77.8659 43.6021 77.5449 43.4778 77.1312 43.4778C76.9172 43.4778 76.7264 43.5133 76.557 43.5862C76.3876 43.659 76.2414 43.7549 76.1201 43.8739C76.0025 43.9946 75.908 44.1314 75.842 44.2877C75.7742 44.444 75.7385 44.6038 75.7314 44.7707H78.4704Z" fill="#F4F3E5"/>
<path d="M63.0814 3.37306C62.5946 9.99562 63.1901 16.5898 63.0314 23.2709C63.0029 24.4981 63.1545 25.8123 63.0653 27.0449C63.0546 27.1905 63.0118 27.3024 62.7889 27.3041C62.484 27.2722 62.1791 27.2455 61.8706 27.3077C61.7725 26.4233 61.8099 25.7377 61.7297 24.9759C61.5532 23.3136 61.653 21.9585 61.6388 20.1452C61.6156 17.0426 61.3517 13.8832 61.5781 10.7859C61.6602 9.68305 61.6673 7.87334 61.612 6.76869C61.5549 5.64451 61.4961 4.81158 61.5657 3.37838C62.1042 3.31267 62.6088 3.3109 63.0814 3.3695" fill="#F4F3E5"/>
<path d="M7.8841 1.50829C8.42798 1.56157 8.66693 1.72319 8.70973 2.33057C8.77214 3.23808 8.64018 3.73535 8.73826 4.62688C9.0628 7.58919 8.36735 10.5923 8.67941 13.5564C8.84347 15.1228 8.68654 16.5329 8.74182 18.1064C8.82385 20.4454 8.71864 23.0987 8.6598 25.8461H1.3344C1.07762 25.4873 1.12398 23.6599 1.20244 23.1839C1.27199 22.7683 1.26842 22.3439 1.26485 21.9212C1.2488 20.1985 1.35758 18.6623 1.34153 16.9379C1.33083 15.9238 1.32192 14.9062 1.15608 13.9063C1.00807 13.0219 1.23811 11.4732 1.10615 10.587C0.938527 9.47348 0.85115 2.82428 0.908213 1.55092C0.908213 1.55092 7.02282 1.42482 7.8841 1.50829Z" fill="#F4F3E5"/>
<path d="M21.317 3.06049C20.8961 2.9042 20.9603 3.39792 20.9657 3.66076C20.971 3.90052 20.9657 4.05147 20.9603 4.3747C20.9514 5.01404 21.0067 6.76159 21.0138 7.39206C21.0263 8.45231 21.0941 9.37758 21.0762 10.2141C21.0406 11.7858 21.0334 13.3593 21.0994 14.931C21.2617 18.8452 21.0709 22.7683 21.1886 26.6595C21.1975 26.9969 21.4133 27.0928 21.7218 27.1709L22.1747 27.2455C22.1604 23.9121 22.4243 20.4187 22.2121 17.0959C22.123 15.7107 22.1765 14.3254 22.1729 12.9366C22.1693 11.6029 22.1622 10.2709 22.1872 8.93714C22.2014 8.12908 22.1925 7.32102 22.1676 6.51296C22.1355 5.51131 22.189 3.58439 21.9179 3.31622C21.7539 3.15461 21.5951 3.16527 21.3188 3.06226" fill="#F4F3E5"/>
<path d="M14.0825 24.5052C14.5283 24.4946 14.4409 24.166 14.4374 23.9032C14.4338 23.6599 14.4927 23.5089 14.498 23.1839C14.5105 22.5375 14.4641 20.7757 14.4606 20.1417C14.4534 19.0726 14.391 18.1384 14.4124 17.2966C14.4552 15.7124 14.4713 14.1247 14.4142 12.5406C14.2733 8.59261 14.4837 4.63932 14.3857 0.716216C14.3767 0.375231 14.1521 0.357472 13.7687 0.34504L13.2373 0.369903C13.2337 3.73002 13.2729 7.30503 13.3193 10.8818C13.3389 12.2831 13.3229 13.3717 13.3193 14.773C13.3157 16.1174 13.3443 17.19 13.3425 18.5344C13.3425 19.2466 13.3104 20.0334 13.3033 21.0226C13.2943 22.0331 13.2462 23.9422 13.4834 24.2477C13.6456 24.4555 13.8061 24.5141 14.0825 24.507" fill="#F4F3E5"/>
<path d="M23.7189 26.5653C23.3124 26.5138 23.2571 26.3327 23.2696 25.8674C23.3106 24.4928 23.2214 21.5589 23.0752 19.7616C22.9433 18.1349 22.9807 16.4743 23.184 14.8653C23.3249 13.7518 23.1287 12.9224 23.1216 11.5425C23.1127 9.72745 23.225 8.30668 23.2161 7.08126C23.2107 6.32648 23.1876 5.5717 23.1519 4.81691C23.1198 4.11363 23.1287 2.55789 23.1341 2.38562C23.2517 2.34477 23.6708 2.35543 23.7814 2.36608C24.1719 2.40871 24.3591 2.45311 24.6391 2.5863C24.8067 3.30734 24.7532 4.82046 24.7568 5.66937C24.7603 6.16664 24.7229 8.22321 24.7568 8.71692C24.812 9.5392 24.7817 10.3686 24.7871 11.1944C24.7942 12.2475 24.8584 13.2971 24.8566 14.3485C24.8531 15.684 24.7443 17.0124 24.7104 18.3462C24.6498 20.8041 24.9618 23.9795 24.9351 26.0343C24.9297 26.4428 24.9779 26.6648 24.5392 26.6648C24.5392 26.6648 24.1237 26.6151 23.7172 26.5618" fill="#F4F3E5"/>
<path d="M60.8203 25.4394C60.9041 24.4182 60.683 22.8394 60.6794 22.0189C60.6794 21.5376 60.6241 19.5485 60.6544 19.069C60.7044 18.2734 60.6669 17.4706 60.6669 16.6715C60.6669 15.6521 60.724 14.6362 60.7133 13.6168C60.699 12.3239 60.5742 11.0399 60.5278 9.74876C60.4333 7.05995 60.831 3.48672 60.6651 1.59177C59.9875 1.44614 59.1548 1.40707 58.24 1.42838C58.0099 2.92551 58.0724 4.42798 58.0991 6.25189C58.1187 7.43646 58.0117 8.81283 58.0349 10.571C58.0527 11.9066 58.3969 13.5031 58.256 14.5829C58.0545 16.1422 58.0296 17.7495 58.1811 19.323C58.3987 21.5731 58.3202 25.2671 58.3488 25.3151L60.8167 25.4412L60.8203 25.4394Z" fill="#F4F3E5"/>
<path d="M67.9513 25.4944C68.0601 22.7151 68.044 21.0332 68.0904 18.6321C68.1225 16.9396 67.8514 14.7907 67.8835 13.0076C67.9442 9.73455 67.9798 8.61392 67.7195 5.57525C67.6606 4.88973 67.7587 3.60215 67.7337 2.91486C67.7159 2.45488 67.6981 1.86171 67.682 1.40351C67.682 1.40351 69.9342 1.88657 71.68 1.51895C74.4636 0.936435 79.0714 1.53493 79.0714 1.53493C79.346 2.00201 79.3816 3.08535 79.3745 3.35174C79.3228 5.3568 79.2818 4.65175 79.3513 6.65681C79.4155 8.54643 79.0624 10.2176 79.0624 12.8887C79.0624 14.6433 79.3281 15.7977 79.387 16.9645C79.4494 18.1668 79.2408 19.1756 79.3174 21.0829C79.3656 22.2586 79.3388 25.3399 79.3585 25.6241C79.3585 25.6241 71.063 25.672 69.2941 25.4607C68.3596 25.3488 67.9495 25.4909 67.9495 25.4909" fill="#F4F3E5"/>
<path d="M52.778 0.400095C52.8244 4.55229 52.8618 9.15381 53.0669 12.9046C53.1347 14.1549 53.099 15.7231 53.1489 17.1492C53.1721 17.785 53.0598 19.0512 53.0098 19.8948C52.9688 20.5786 52.9867 21.2623 53.0027 21.9478C53.0205 22.6724 53.0366 24.1891 52.9724 24.2211C52.5462 24.1536 52.0986 24.15 51.6207 24.2211C51.4656 23.6634 51.5672 23.1413 51.5779 22.5623C51.6653 17.5808 51.3176 13.9418 51.3996 9.35272C51.4281 7.86446 51.3782 5.82921 51.2605 4.34451C51.1589 3.06049 51.2052 1.61308 51.3622 0.334384C51.8543 0.325504 52.3251 0.348592 52.778 0.398319" fill="#F4F3E5"/>
<path d="M66.7031 0.620314C66.8314 2.76212 66.7316 4.17224 66.7726 6.01391C66.8083 7.63004 66.9884 9.00996 66.8885 10.8658C66.8029 12.4678 66.9688 14.0732 67.0026 15.6787C67.0365 17.2398 67.065 18.8026 67.0847 20.3637C67.1132 21.5731 67.1399 22.6689 67.1417 23.8801C67.1417 24.0825 67.1185 24.5159 67.1185 24.7183C67.1185 24.7183 66.6906 24.6384 66.2733 24.6739C65.2194 24.7681 64.4081 24.642 64.1014 24.5851C63.841 24.5265 64.0586 20.3033 64.0657 19.9161C64.0942 18.3302 64.0996 16.7443 64.0924 15.1583C64.0853 13.5529 63.9337 11.8497 63.9034 10.2443C63.8731 8.6228 63.9605 7.1008 63.9177 5.47757C63.8749 3.84191 63.8268 2.44955 63.784 0.812118C63.775 0.478237 64.0889 0.304193 64.6185 0.449822C65.3229 0.643401 66.0611 0.412526 66.7013 0.614986" fill="#F4F3E5"/>
<path d="M11.4915 2.63248C11.9801 2.69819 12.3475 3.15994 12.3564 3.70871C12.3706 4.49369 12.3546 5.18809 12.3368 5.87006C12.3171 6.63195 12.2922 7.37785 12.3029 8.20722C12.3457 11.5958 12.4901 14.8298 12.3385 18.3391C12.2102 21.3103 12.4848 24.2104 12.4527 26.9347C11.545 26.8832 10.468 26.8015 9.59063 26.7607C9.83849 21.733 9.67979 16.9734 9.62273 11.7414C9.59063 8.79862 10.0774 6.5023 9.66374 2.58098C10.3003 2.51527 10.9048 2.55256 11.4933 2.63248" fill="#F4F3E5"/>
<path d="M50.5027 13.8015C50.4402 12.0113 50.4527 8.62457 50.5883 6.8273C50.7398 4.82579 50.2441 1.796 49.1332 1.86349C48.1649 1.81021 47.1039 1.91854 46.1338 1.96649C45.3563 2.00556 44.3595 2.00912 43.5838 2.0766C42.2518 2.19026 42.1056 2.01622 40.7682 2.018C39.0991 2.01977 37.6582 2.15297 35.9892 2.15474C34.3718 2.1583 32.5725 2.1139 30.9605 1.99313C29.3788 1.87237 27.6955 1.65392 26.1227 1.7001C25.8962 1.7072 25.7661 2.72305 25.7215 3.968C25.6769 5.16855 25.5984 7.76856 25.6983 9.01351C26.433 8.11665 27.3585 7.76501 28.2643 7.68154C28.9901 7.61583 29.8353 7.5732 30.6217 7.69575C30.7002 7.70818 30.1064 7.15053 29.6231 6.76514C29.3503 6.54847 29.0436 6.32826 28.6976 6.27675C28.2715 6.21282 27.8274 6.25366 27.3959 6.23235C27.7062 5.96063 28.2572 5.26978 29.6106 5.45271C30.3382 5.55216 31.5561 6.81309 31.9966 6.46856C32.4852 6.08672 32.2926 4.58604 32.9399 4.42265C33.4677 4.29123 33.8154 6.29096 34.0687 6.7314C34.6571 5.98194 35.5434 5.4385 36.4992 5.32839C36.9985 5.27156 38.532 5.45271 38.7389 6.18263C38.7389 6.17375 36.7845 5.82566 35.5701 7.57853C37.2945 6.89834 39.0349 7.12211 40.4935 8.24097C40.8965 8.55176 41.1605 8.87854 41.4351 9.25149C41.8256 9.78073 41.7792 10.0187 41.7703 10.3206C41.1319 10.1927 40.5399 9.10053 39.4343 8.7631C38.507 8.47895 37.5138 8.534 36.5937 8.81638C38.6925 9.15559 41.5902 11.935 40.5898 14.2118C40.2671 14.9488 40.1761 14.4551 40.062 13.837C39.9247 13.1018 39.7214 12.6809 39.3683 12.2067C39.0598 11.7893 38.7353 11.4217 38.3555 11.0576C38.0202 10.738 36.9895 10.2851 36.5081 10.31C37.8597 10.6882 38.7264 13.3664 38.8423 13.6523C39.124 14.3449 39.1205 15.1406 39.1383 15.8776C39.149 16.3021 39.1829 17.7797 38.6426 17.92C38.6515 17.9164 38.7317 14.3449 36.1907 12.299C36.854 13.457 36.9057 14.8742 36.8291 16.1671C36.7845 16.8935 36.6703 17.476 36.3512 18.1349C36.2816 18.2787 36.0123 18.9358 35.9071 18.9589C35.5683 19.0353 35.7467 16.9592 35.6967 16.5915C35.6343 16.1369 34.814 13.068 33.9492 13.8228C33.5105 14.2046 33.7352 15.9309 33.7887 16.6981C33.8547 17.6411 33.9688 19.0175 33.9848 19.9641C34.0205 21.9265 34.074 23.3011 34.329 25.2689C36.5865 24.0577 46.5261 18.9855 47.9455 23.1697C47.9509 23.3029 47.8671 23.2088 47.8671 23.2088C46.8935 21.7596 44.2418 22.5073 42.9169 22.914C40.5559 23.6386 38.2966 24.7823 36.1586 26.0006C39.675 26.0095 45.0924 25.997 49.1082 26.0006C50.0337 26.0006 50.7737 25.2387 50.7416 24.3188C50.7184 23.6421 50.7006 22.8323 50.7006 21.9532C50.7006 20.9675 50.7523 19.8948 50.779 18.9092C50.8325 16.9414 50.5722 15.7746 50.5044 13.8051M30.7822 15.8652C30.6413 16.3731 30.4702 17.238 30.4452 17.46C30.4202 17.682 30.2383 18.9038 30.2383 18.9038C30.1563 18.8559 30.1135 18.7653 30.0743 18.6783C29.575 17.5488 29.6731 15.7657 29.6731 15.7586C29.846 12.9526 30.8482 12.2067 30.8553 12.2138C30.4042 11.9563 29.4965 13.013 29.0186 13.679C28.382 14.5705 28.4926 15.1832 28.4106 16.5667C28.07 16.4992 27.7312 15.9309 27.7098 15.5118C27.5938 13.3309 28.5621 11.3276 29.616 10.5089C29.7337 10.4041 28.4016 10.6634 28.168 10.7575C27.305 11.1091 26.688 11.7236 26.2636 12.5477C25.372 14.2775 25.9408 16.334 25.816 18.2219C25.7447 19.3105 25.9034 20.3832 25.8945 21.4737C25.8855 22.2959 25.6769 22.4504 26.5025 22.525C26.8289 22.5552 27.1552 22.6049 27.4762 22.6742C29.4198 23.0916 30.9784 23.9831 32.3461 25.3985C32.5654 22.8802 32.5957 20.559 32.5957 18.0283C32.5957 17.0284 32.7616 14.8866 32.0911 14.0324C31.4135 13.1657 30.9427 15.2986 30.7858 15.8669M26.0175 23.2212C25.9729 24.198 26.0318 24.9883 26.0496 26.1267C27.0179 26.061 27.5903 26.1462 28.555 26.2048C29.4805 26.2617 30.463 26.1622 31.3921 26.283C29.9762 24.7539 28.1663 23.4059 26.0193 23.2194M27.6045 9.71502C27.9523 9.48414 29.3699 8.76843 29.5411 8.77731C28.5193 8.38837 27.2925 8.48072 26.3902 9.05258C25.5164 9.60491 25.8089 11.1322 25.6947 12.1126C26.1316 11.237 26.7807 10.2638 27.6045 9.71679" fill="#F4F3E5"/>
<path d="M56.6119 2.31103C56.7439 2.32879 56.8419 2.4389 56.8437 2.57032C56.9097 5.29465 56.9703 7.74725 57.1469 10.5621C57.2164 11.6792 57.2735 13.3273 57.1112 14.638C56.8954 16.3642 57.3377 17.7619 57.2146 19.497C57.0524 21.7845 57.3912 23.6634 57.261 25.9544L54.4079 26.0166C54.1725 26.0254 53.9585 25.8035 53.9924 25.2547C54.0263 24.7077 53.9781 22.3492 53.9781 20.5804C53.9781 18.8115 54.2135 17.1652 54.0173 15.1974C53.9211 14.226 54.1529 13.1923 54.0958 12.2173C53.9942 10.4503 53.9371 8.90873 53.8997 7.13809C53.8783 6.09383 53.9014 4.48836 53.8693 3.46185C53.8444 2.74614 54.0031 2.22223 54.399 2.04464C54.8537 1.8404 56.0984 2.24177 56.6119 2.31103Z" fill="#F4F3E5"/>
<path d="M15.411 23.1892C15.3825 23.8499 15.3682 24.0772 15.3682 24.3259C15.3682 24.491 15.5162 24.5212 15.65 24.594C15.7391 24.6438 16.5077 24.8036 16.7591 24.8569C16.9784 24.903 17.2887 24.9386 17.5098 24.9332C18.2499 24.9208 18.9828 25.1765 19.7192 25.1073C19.7424 25.1037 19.7674 25.0966 19.787 25.0842C19.8494 25.0451 20.0562 24.9492 20.1115 24.5372C20.1971 23.9121 20.0241 23.3668 20.1204 22.2284C20.2167 21.0901 20.1329 18.0034 20.1383 17.2611C20.1846 11.6402 19.8654 11.5478 20.0081 7.20913C20.058 5.67648 20.0188 5.17033 19.8512 3.56841C19.8066 3.14396 19.6122 2.07127 19.7085 1.32892C19.7442 1.05898 19.5783 0.831653 19.3127 0.817446C18.0894 0.755287 15.5216 0.948867 15.5216 0.948867C15.3825 1.5154 15.3557 2.05174 15.3896 2.8154C15.4146 3.34464 15.3129 4.21841 15.3111 4.74943C15.3111 5.34792 15.2719 5.94465 15.2987 6.54137C15.3718 8.14506 15.4146 9.75053 15.3664 11.3542C15.2416 15.4194 15.6 17.7761 15.4431 21.7702L15.4092 23.1839L15.411 23.1892Z" fill="#F4F3E5"/>
</svg>
