<svg width="58" height="60" viewBox="0 0 58 60" fill="none" xmlns="http://www.w3.org/2000/svg">
<g clip-path="url(#clip0_524_1176)">
<path fill-rule="evenodd" clip-rule="evenodd" d="M54.7012 42.1284C54.7012 51.5616 47.0431 59.2143 37.6034 59.2143C34.8839 59.2143 32.3209 58.59 30.008 57.4339C27.7258 58.5587 25.1316 59.2143 22.4438 59.2143C13.0036 59.2143 5.34558 51.5616 5.34558 42.1284C5.34558 32.6952 13.0036 25.0425 22.4434 25.0425C25.1629 25.0425 27.7258 25.6673 30.0075 26.7917C32.2896 25.6673 34.8839 25.0425 37.6034 25.0425C47.0431 25.0425 54.7012 32.6952 54.7012 42.1284ZM51.3256 42.1284C51.3256 34.5695 45.1675 28.4161 37.6034 28.4161C36.1656 28.4161 34.7591 28.6347 33.4774 29.0409C36.103 31.2272 38.0099 34.1633 38.9473 37.537H35.4152C34.4231 34.7206 32.5347 32.3068 30.0393 30.6649C27.5698 32.289 25.6941 34.6947 24.6942 37.537H21.1621C22.0871 34.2101 23.9931 31.2387 26.632 29.0096C25.2853 28.5948 23.8839 28.3842 22.4747 28.3849C14.9105 28.3849 8.75289 34.5382 8.75289 42.0971C8.75289 49.656 14.9105 55.8098 22.4747 55.8098C23.9125 55.8098 25.2876 55.5913 26.5693 55.1851C23.1625 52.3428 20.9434 48.1571 20.5995 43.4718H28.7262V46.8137L24.7563 46.8763C25.7881 49.6252 27.6324 51.937 30.0393 53.5298C32.4457 51.9366 34.29 49.6252 35.3217 46.8763L31.3518 46.8137V43.4718H39.479C39.1038 48.1571 36.8534 52.3115 33.4461 55.1538C34.7591 55.56 36.1656 55.8098 37.6034 55.8098C45.1988 55.8411 51.3256 49.7186 51.3256 42.1284Z" fill="#F4F3E5"/>
<path d="M51.8623 4.19221L51.7573 4.22717C51.3488 3.34047 50.765 2.63458 50.006 2.10949C49.259 1.58471 48.3193 1.32232 47.1871 1.32232C46.5566 1.32232 45.9554 1.4565 45.3833 1.72487C44.8112 1.98128 44.3092 2.34872 43.8774 2.82719C43.4569 3.2937 43.1183 3.85958 42.8617 4.52483C42.6049 5.18948 42.4764 5.92436 42.4764 6.72947C42.4764 7.53428 42.6049 8.26916 42.8617 8.93411C43.1186 9.59905 43.4572 10.1708 43.8774 10.6492C44.3092 11.1157 44.811 11.4773 45.3828 11.7341C45.9552 11.9908 46.5566 12.1191 47.1871 12.1191C48.3076 12.1191 49.2181 11.9442 49.9185 11.5942C50.6306 11.2323 51.2319 10.6839 51.7223 9.94901L51.8273 9.98397L51.7923 11.1038C51.5237 11.3838 51.2144 11.6347 50.8642 11.8564C50.5143 12.0665 50.1349 12.2475 49.7261 12.3993C49.3292 12.5389 48.9149 12.6438 48.4831 12.714C48.0509 12.7956 47.6189 12.8364 47.1871 12.8364C46.2881 12.8364 45.4301 12.6907 44.6131 12.3993C43.7957 12.1073 43.0777 11.6989 42.4589 11.1742C41.8402 10.6374 41.3498 9.99578 40.988 9.24925C40.6261 8.49106 40.4452 7.65114 40.4452 6.72947C40.4452 5.80781 40.6263 4.97355 40.9884 4.22671C41.35 3.46853 41.8402 2.82121 42.4589 2.28477C43.0777 1.74803 43.7957 1.33965 44.6131 1.05962C45.4301 0.768245 46.2879 0.622559 47.1866 0.622559C47.6188 0.622559 48.0509 0.657373 48.4831 0.726996C48.9149 0.797233 49.3292 0.908105 49.7261 1.05962C50.1346 1.19979 50.514 1.38075 50.8642 1.6025C51.2144 1.81229 51.5237 2.0572 51.7923 2.33723L51.8623 4.19221Z" fill="#F4F3E5"/>
<path d="M13.2746 7.53434C13.1463 7.59262 13.0238 7.66838 12.9072 7.76162C12.7905 7.85486 12.7322 7.98321 12.7322 8.14669V10.2993C12.1715 11.1041 11.4533 11.7283 10.5776 12.1718C9.70227 12.615 8.73346 12.8366 7.6712 12.8366C6.77222 12.8366 5.91407 12.6908 5.09673 12.3991C4.2797 12.1074 3.5618 11.699 2.94305 11.1739C2.32429 10.6372 1.83398 9.9957 1.47212 9.24947C1.11025 8.49097 0.929321 7.65089 0.929321 6.72923C0.929321 5.80787 1.11041 4.97377 1.47258 4.22693C1.83413 3.46874 2.32429 2.82127 2.94305 2.28453C3.5618 1.74778 4.2797 1.33956 5.09673 1.05984C5.91407 0.768157 6.77222 0.622314 7.6712 0.622314C8.10304 0.622314 8.53488 0.657278 8.96673 0.727208C9.39887 0.797138 9.81322 0.908017 10.2098 1.05984C10.6186 1.1997 10.9981 1.38051 11.3483 1.60226C11.6985 1.81235 12.0079 2.05726 12.2764 2.33698L12.3469 4.19197L12.2414 4.22693C11.8332 3.34053 11.2496 2.6348 10.4906 2.10971C9.74324 1.58462 8.80344 1.32207 7.6712 1.32207C7.04078 1.32207 6.43952 1.45626 5.86741 1.72463C5.29561 1.98135 4.7938 2.34878 4.36195 2.82695C3.94147 3.29376 3.60278 3.85964 3.34588 4.52459C3.08899 5.18954 2.96054 5.92442 2.96054 6.72923C2.96054 7.52238 3.08331 8.25143 3.32885 8.91638C3.58544 9.58164 3.92382 10.1533 4.344 10.6315C4.77615 11.098 5.27812 11.4654 5.84992 11.7338C6.42202 11.9905 7.02912 12.1189 7.6712 12.1189C8.88539 12.1189 9.92433 11.8856 10.788 11.4191V8.14669C10.788 7.98352 10.7239 7.85517 10.5956 7.76162C10.4789 7.66838 10.3623 7.59246 10.2457 7.53388L10.2613 7.44647C10.3196 7.4572 10.4248 7.46886 10.5767 7.48143C10.7286 7.49217 10.8862 7.50383 11.0495 7.5164H12.5554C12.6957 7.50567 12.83 7.49401 12.9583 7.48143C13.0866 7.4707 13.1857 7.45904 13.2557 7.44647L13.2746 7.53434Z" fill="#F4F3E5"/>
<path d="M25.9582 0.989757C25.8416 1.04803 25.725 1.12394 25.6083 1.21749C25.4914 1.31073 25.4271 1.4857 25.4154 1.74242C25.4047 2.02245 25.393 2.37823 25.3804 2.80977C25.3804 3.22997 25.3752 3.70843 25.3648 4.24518C25.3648 4.78161 25.3594 5.36483 25.3487 5.99481V7.95469C25.3379 8.71288 25.2445 9.36034 25.0683 9.89709C24.8934 10.4338 24.6599 10.8829 24.3681 11.2442C24.0878 11.6061 23.7726 11.8919 23.4224 12.1017C23.0839 12.3118 22.7454 12.4693 22.4068 12.5742C22.0799 12.6908 21.7706 12.7608 21.4787 12.7845C21.1868 12.8194 20.9591 12.8369 20.7955 12.8369C20.1301 12.8369 19.488 12.7495 18.8692 12.5747C18.2505 12.4112 17.7077 12.1428 17.2408 11.7696C16.774 11.396 16.4005 10.9118 16.1203 10.3171C15.84 9.72211 15.6999 8.99873 15.6999 8.147V6.16963V4.34962C15.6999 3.78987 15.6946 3.28839 15.6838 2.8452C15.6838 2.39004 15.6784 2.02245 15.6677 1.74242C15.6573 1.4857 15.5931 1.31088 15.4753 1.21794C15.3586 1.1244 15.242 1.04834 15.1254 0.989757L15.141 0.902344C15.1993 0.913079 15.2929 0.924728 15.4219 0.937304C15.5618 0.948038 15.7018 0.959695 15.8417 0.97227C15.9937 0.97227 16.1394 0.97764 16.2791 0.988374H16.9098C17.0501 0.97764 17.196 0.97227 17.3476 0.97227C17.4996 0.961536 17.6397 0.949879 17.768 0.937304C17.9079 0.926569 18.0071 0.914919 18.0654 0.902344L18.0815 0.989757C17.9532 1.04803 17.8306 1.12394 17.7137 1.21749C17.6087 1.31073 17.5504 1.4857 17.5387 1.74242C17.528 2.02245 17.5163 2.38989 17.5037 2.84474V8.147C17.5037 9.41862 17.8014 10.3578 18.3969 10.9644C18.9923 11.5711 19.8736 11.8745 21.0409 11.8745C21.3794 11.8745 21.7646 11.8335 22.1964 11.7516C22.6286 11.6584 23.0314 11.4717 23.4049 11.1917C23.7901 10.9117 24.1112 10.5151 24.3681 10.002C24.6366 9.48855 24.7709 8.80612 24.7709 7.95469C24.7709 7.03302 24.7655 6.24555 24.7548 5.59225C24.7548 4.92731 24.7494 4.36142 24.7387 3.89461C24.7387 3.41614 24.7333 3.00791 24.7226 2.66991C24.7121 2.33161 24.7005 2.02245 24.6876 1.74242C24.6771 1.4857 24.613 1.31073 24.4951 1.21749C24.3785 1.12425 24.2619 1.04834 24.1452 0.989757L24.1609 0.902344C24.2895 0.925654 24.4354 0.949117 24.5987 0.972734C24.7623 0.983162 24.9142 0.988374 25.0545 0.988374C25.1825 0.988374 25.3283 0.983162 25.4919 0.972734C25.6668 0.949424 25.8186 0.92596 25.9472 0.902344L25.9582 0.989757Z" fill="#F4F3E5"/>
<path d="M38.665 4.19221L38.56 4.22717C38.1512 3.34047 37.5674 2.63458 36.8087 2.10949C36.0617 1.58471 35.1219 1.32232 33.9893 1.32232C33.3592 1.32232 32.7581 1.4565 32.186 1.72487C31.6139 1.98128 31.1119 2.34872 30.6801 2.82719C30.2596 3.2937 29.921 3.85958 29.6645 4.52483C29.4076 5.18948 29.2791 5.92436 29.2791 6.72947C29.2791 7.53428 29.4076 8.26916 29.6645 8.93411C29.921 9.59905 30.2596 10.1708 30.6801 10.6492C31.1119 11.1157 31.6137 11.4773 32.1855 11.7341C32.7579 11.9908 33.3592 12.1191 33.9893 12.1191C35.1102 12.1191 36.0208 11.9442 36.7212 11.5942C37.4333 11.2323 38.0346 10.6839 38.525 9.94901L38.63 9.98397L38.595 11.1038C38.3265 11.3838 38.0171 11.6347 37.6669 11.8564C37.317 12.0665 36.9376 12.2475 36.5288 12.3993C36.132 12.5389 35.7176 12.6438 35.2858 12.714C34.8536 12.7956 34.4216 12.8364 33.9898 12.8364C33.0905 12.8364 32.2323 12.6907 31.4153 12.3993C30.5983 12.1073 29.8804 11.6989 29.2616 11.1742C28.6429 10.6374 28.1526 9.99578 27.7907 9.24925C27.4285 8.49106 27.2474 7.65114 27.2474 6.72947C27.2474 5.80781 27.4285 4.97355 27.7907 4.22671C28.1529 3.46853 28.6432 2.82121 29.2616 2.28477C29.8804 1.74803 30.5983 1.33965 31.4153 1.05962C32.2326 0.768245 33.0908 0.622559 33.9898 0.622559C34.4216 0.622559 34.8535 0.657373 35.2853 0.726996C35.7175 0.797233 36.1318 0.908105 36.5283 1.05962C36.9372 1.19979 37.3167 1.38075 37.6669 1.6025C38.0171 1.81229 38.3265 2.0572 38.595 2.33723L38.665 4.19221Z" fill="#F4F3E5"/>
<path d="M57.1402 12.5386C57.0819 12.5282 56.9828 12.5167 56.8428 12.5041C56.7145 12.5041 56.5744 12.4988 56.4225 12.488C56.2705 12.488 56.1246 12.4828 55.9846 12.4724H54.9345C54.7942 12.4828 54.654 12.4943 54.5137 12.5069C54.3854 12.5176 54.2863 12.5293 54.2163 12.5419L54.2002 12.4719C54.3168 12.4136 54.4335 12.3377 54.5501 12.2442C54.667 12.151 54.7313 11.976 54.743 11.7193C54.7537 11.4392 54.7591 11.1475 54.7591 10.8442C54.7698 10.5409 54.7752 10.1967 54.7752 9.81182V8.49926V6.73214V4.96457V3.63498C54.7752 3.24975 54.7698 2.9113 54.7591 2.61961C54.7591 2.31628 54.7537 2.02475 54.743 1.74503C54.7322 1.48831 54.6681 1.31333 54.5505 1.22009C54.4339 1.11489 54.3173 1.03315 54.2007 0.974874L54.2163 0.904947C54.2863 0.928257 54.3854 0.945739 54.5137 0.957394C54.654 0.957394 54.7941 0.962763 54.934 0.973498C55.086 0.984233 55.2319 0.989602 55.3719 0.989602H55.9846C56.1246 0.978867 56.2704 0.973498 56.422 0.973498C56.5742 0.962763 56.7145 0.951106 56.8428 0.938531C56.9828 0.927796 57.0819 0.91614 57.1402 0.903564L57.1563 0.973954C57.028 1.03223 56.9054 1.11382 56.7885 1.21872C56.6835 1.31196 56.6252 1.48678 56.6135 1.74319C56.6028 2.02352 56.5911 2.31536 56.5785 2.6187V10.8433C56.5893 11.1463 56.6009 11.4378 56.6135 11.7179C56.624 11.9746 56.6823 12.1496 56.7885 12.2428C56.9051 12.336 57.0277 12.412 57.1563 12.4705L57.1402 12.5386Z" fill="#F4F3E5"/>
</g>
<defs>
<clipPath id="clip0_524_1176">
<rect width="56.9589" height="58.4983" fill="white" transform="translate(0.931641 0.714111)"/>
</clipPath>
</defs>
</svg>
