<svg width="1731" height="52" viewBox="0 0 1731 52" fill="none" xmlns="http://www.w3.org/2000/svg">
<path d="M340.792 27.2013C340.792 27.2013 340.725 27.2013 340.692 27.2013C338.586 26.9635 336.63 25.9703 334.575 25.3828C333.288 25.0051 331.951 24.6834 330.597 24.4736C328.625 24.1658 326.602 23.998 324.613 23.7602C322.307 23.4804 320.05 22.5712 317.694 23.7462C316.624 24.2777 315.387 24.6275 314.167 24.9072C311.827 25.4528 309.47 25.9564 307.097 26.376C305.961 26.5718 304.54 26.9076 303.621 26.5299C301.531 25.6906 299.509 25.0611 297.169 25.145C296.668 25.159 296.166 24.6414 295.615 24.5295C294.528 24.3057 293.308 23.9001 292.322 24.1239C290.885 24.4596 289.782 24.4036 288.662 23.6063C288.411 23.4245 288.01 23.3125 287.659 23.2846C285.302 23.0747 282.946 22.9209 280.606 22.725C278.032 22.5012 275.307 22.753 273.252 20.9345C273.068 20.7807 272.466 20.8226 272.132 20.9345C269.692 21.7319 266.432 20.9065 264.728 19.186C263.942 18.4026 262.889 17.7592 261.853 17.1856C260.332 16.3323 258.711 15.6049 257.14 14.8216C255.802 14.1641 254.398 14.0942 252.894 14.304C252.41 14.374 251.758 14.2761 251.357 14.0382C250.153 13.3528 249.067 12.5415 247.88 11.8281C247.496 11.5903 246.794 11.3245 246.493 11.4504C243.919 12.5695 241.997 10.9049 239.908 10.3313C237.701 9.74381 235.729 8.56879 233.556 7.85538C232.604 7.54764 231.434 7.70151 230.364 7.68752C229.344 7.68752 228.275 7.93931 227.322 7.72949C224.815 7.16995 222.375 6.41458 219.885 5.74314C216.375 4.80591 212.831 3.88268 209.656 2.27402C208.118 1.49067 206.881 1.60257 205.41 2.24604C204.441 2.66569 203.355 3.00141 202.285 3.09933C200.246 3.30916 198.173 3.18326 196.151 3.44904C193.878 3.75679 191.672 4.35829 189.432 4.8199C189.098 4.88984 188.713 4.95979 188.412 4.87586C185.086 3.95262 181.81 3.56095 178.585 5.22557C178.2 5.4214 177.314 5.25354 176.846 5.00175C175.743 4.41424 174.774 3.93863 173.337 4.48418C172.568 4.77794 171.498 4.56811 170.562 4.55412C170.077 4.55412 169.576 4.51216 169.091 4.4562C168.055 4.33031 167.002 4.23239 165.966 4.05054C164.829 3.84072 163.693 3.28118 162.573 3.32315C159.782 3.42106 157.074 3.22523 154.433 2.45586C153.982 2.32997 153.547 2.16211 153.146 1.95228C151.609 1.14096 150.205 0.301653 148.216 0.105816C145.441 -0.159963 142.884 0.0638507 140.31 0.903154C139.591 1.14096 138.655 0.959108 137.82 0.931131C136.817 0.889166 135.747 0.581421 134.811 0.777259C132.438 1.25286 130.131 2.02222 127.758 2.52581C125.953 2.90349 124.081 3.02939 122.226 3.26719C121.106 3.42106 119.786 3.30916 118.916 3.78476C117.161 4.73597 115.29 4.79193 113.351 5.02973C111.412 5.25354 109.523 5.82707 107.618 6.24672C106.732 6.44255 105.88 6.70833 104.994 6.86221C104.258 6.9881 103.155 6.76429 102.788 7.114C101.701 8.12116 100.297 8.17712 98.9434 8.48486C97.4893 8.82058 95.9851 9.21226 94.6981 9.84173C93.4446 10.4572 92.4585 11.4644 91.2885 12.2337C90.8539 12.5135 90.2857 12.7094 89.7341 12.7793C88.397 12.9611 86.993 12.9332 85.7061 13.2269C83.6503 13.6885 81.6613 14.388 79.6222 14.9195C79.1208 15.0454 78.5024 14.9475 77.9509 14.9055C76.6806 14.8076 75.2265 14.304 74.1903 14.6677C71.5829 15.563 69.6441 15.0174 67.722 13.5207C65.3654 11.6882 62.5073 11.6602 59.8498 12.7094C57.1589 13.7865 54.3677 13.8424 51.5598 13.9963C50.9581 14.0243 50.3397 13.7865 49.7213 13.7165C49.387 13.6746 48.8187 13.6326 48.7519 13.7445C47.8827 15.2832 46.0108 15.4371 44.4397 15.8847C42.6179 16.4023 40.6958 16.71 38.7904 16.9618C36.9352 17.1996 35.0465 17.2276 33.1746 17.3815C32.389 17.4374 31.4364 17.3395 30.8848 17.6892C29.5811 18.5005 28.361 18.4446 26.8902 18.1368C26.1214 17.983 25.503 18.011 25.0183 18.2208C24.3497 18.4026 24.0154 20.7247 23.4137 20.7946C22.8287 20.8506 20.8231 21.6479 20.1378 21.7598C18.9177 21.62 17.6976 21.4381 16.4775 21.2283C15.3075 21.0185 14.0707 20.2631 13.0345 20.4449C10.0093 20.9905 6.76678 19.9833 3.892 21.3542C3.775 21.4101 3.57444 21.3542 3.42401 21.3822C0.0143976 21.7039 -3.41193 22.0256 -6.82155 22.3613C-7.18925 22.3893 -7.64053 22.5712 -7.89123 22.4593C-9.89689 21.522 -9.02777 22.5852 -11 22.6131V51.6111H340.775V27.2013H340.792Z" fill="#F4F3E5"/>
<path d="M683.617 22.9599C683.366 23.0855 682.915 22.9041 682.547 22.8623C679.137 22.5414 675.711 22.2206 672.301 21.8858C672.151 21.8719 671.95 21.9277 671.833 21.8579C668.958 20.477 665.716 21.4953 662.69 20.9513C661.654 20.7699 660.417 21.5232 659.247 21.7324C657.642 22.0114 656.021 22.2904 654.383 22.388C651.491 22.5833 648.583 22.7507 645.691 22.7367C645.073 22.7367 644.505 23.5179 643.953 24.4385C643.452 24.4664 642.967 24.5082 642.466 24.5361C641.229 24.5919 640.242 24.7314 639.524 25.6939C638.855 26.5866 635.295 27.3817 634.259 26.8238C632.27 25.7357 630.047 26.2658 627.941 26.0147C627.355 25.945 626.486 26.224 626.068 26.6006C624.581 27.9257 622.976 27.6468 621.271 27.1027C620.636 26.9075 619.968 26.6285 619.332 26.6564C615.939 26.7819 612.596 27.0609 609.153 26.9772C605.994 26.8935 602.935 26.6145 599.86 26.1542C598.59 25.9589 597.303 25.2057 596.149 25.3452C594.545 25.5405 592.689 24.4803 591.269 25.9171C591.118 26.0705 590.466 25.9171 590.049 25.8613C589.33 25.7776 588.628 25.5963 587.909 25.5963C586.137 25.5684 584.349 25.7357 582.577 25.5963C580.287 25.4289 578.031 25.0104 575.741 24.8151C575.106 24.7593 574.203 24.8709 573.802 25.2196C572.799 26.0845 571.579 25.8194 570.426 25.9868C569.757 26.0845 569.088 26.1821 568.453 26.3216C567.099 26.6285 565.779 27.0748 564.425 27.298C562.837 27.5631 561.216 27.6607 559.595 27.8002C558.207 27.9118 556.669 28.3024 555.449 27.9536C554.062 27.5491 552.892 27.7165 551.689 28.0094C548.095 28.8603 544.518 29.767 540.791 30.1297C538.852 30.3249 536.896 30.4923 534.991 30.855C533.486 31.134 532.116 31.2037 530.745 30.5202C530.511 30.3947 530.127 30.4644 529.809 30.4505C526.6 30.3389 523.524 29.9623 520.549 28.7627C519.212 28.2187 517.658 27.6189 515.903 28.3024C513.395 29.2788 510.754 29.223 508.164 28.386C507.896 28.3024 507.428 28.2605 507.261 28.386C506.125 29.2509 505.038 28.7766 503.901 28.4C502.481 27.9397 501.16 27.9257 500.007 29.0137C499.639 29.3485 498.921 29.4462 498.352 29.5996C496.53 30.1018 494.692 30.576 492.87 31.0642C492.368 31.2037 491.817 31.5664 491.399 31.4688C488.691 30.869 485.666 31.1619 483.71 29.7949C481.972 30.1994 480.518 30.869 479.13 30.7853C477.526 30.6876 476.005 29.8646 474.417 29.4741C473.264 29.1811 471.943 29.2369 470.857 28.8464C469.185 28.2466 467.681 27.3399 466.026 26.6564C465.107 26.2798 464.087 25.945 463.068 25.8892C461.63 25.8055 460.176 26.0705 458.722 26.0287C455.63 25.931 452.538 25.8334 449.462 25.5544C446.788 25.3033 444.364 25.5823 441.94 26.6006C441.071 26.9633 439.751 26.9493 438.781 26.7261C435.656 26.0147 432.58 25.122 429.505 24.299C427.817 23.8526 426.279 23.0994 424.34 23.4202C419.71 24.2014 415.114 22.0393 410.467 23.2389C410.383 23.2668 410.25 23.211 410.149 23.211C409.063 23.2807 407.976 23.3923 406.89 23.4342C406.021 23.476 405.085 23.6295 404.316 23.4063C403.096 23.0576 402.126 23.1412 401.023 23.6574C398.265 24.9686 395.34 25.5405 392.181 24.7454C391.095 24.4664 389.991 24.1595 389.406 25.4289C389.306 25.6242 388.771 25.8055 388.437 25.7915C385.445 25.7078 382.42 26.3495 379.478 25.387C378.475 25.0522 377.372 24.8709 376.302 24.7175C375.266 24.564 374.213 24.4664 373.16 24.4664C371.572 24.4664 369.951 24.4106 368.413 24.6617C364.97 25.2196 361.577 25.945 358.167 26.5866C357.883 26.6424 357.548 26.5169 357.248 26.475C357.047 26.4611 356.83 26.4332 356.629 26.4192C356.328 26.2519 355.91 26.1821 355.392 26.1821C355.075 26.1821 354.774 26.1961 354.456 26.21C354.289 26.1961 354.139 26.2379 353.972 26.21C353.42 26.224 352.868 26.224 352.317 26.2379L350.712 26.2658C350.528 26.2658 350.361 26.2658 350.177 26.2658C349.191 26.2519 348.172 25.8194 347.236 25.931C345.163 26.1821 343.14 26.7261 341.068 27.0051C339.045 27.2841 336.923 27.7165 334.934 27.5212V51.8621H686.726V22.932C684.753 22.9041 685.623 22.0253 683.617 22.9599Z" fill="#F4F3E5"/>
<path d="M1032.27 51.4671H1032.94V10.1364C1031.97 10.2062 1029.51 9.92719 1028.66 10.262C1027.25 10.792 1025.73 11.1686 1024.13 10.513C1023.68 10.3317 1023.06 10.4294 1022.52 10.4154C1021.37 10.3736 1020.17 10.4712 1019.08 10.248C1017.29 9.8714 1015.32 9.95509 1013.72 8.96471C1013.25 8.68574 1012.35 8.83917 1011.64 8.83917C1011.11 8.83917 1010.56 8.99261 1010.02 8.95076C1008.1 8.82522 1006.31 8.75548 1004.34 9.28554C1002.77 9.70401 1000.83 9.2158 999.041 9.14605C998.69 9.1321 998.322 9.14605 997.971 9.17395C995.949 9.36923 994.06 9.42503 991.987 8.89497C989.948 8.36491 987.541 8.62994 985.301 8.72758C981.474 8.90892 977.863 8.28122 974.27 7.33269C973.752 7.1932 973.116 7.1653 972.598 7.26294C967.701 8.16962 962.77 8.85312 957.722 8.83917C957.338 8.83917 956.736 8.90892 956.602 8.74153C955.349 7.249 953.844 8.12778 952.357 8.33701C949.833 8.69968 947.259 8.89497 944.735 9.27159C943.749 9.42503 942.763 9.80165 941.877 10.2062C939.921 11.0989 938.032 10.9873 936.01 10.3457C934.422 9.8435 932.868 9.43898 930.962 9.77375C929.876 9.96904 928.488 9.07631 927.235 8.65784C924.978 7.90459 922.772 7.01186 920.449 6.42601C919.579 6.20282 918.443 6.69104 917.407 6.83053C914.983 7.1374 912.743 6.71894 910.554 5.84015C908.949 5.18455 907.278 5.00322 905.355 5.04506C902.564 5.10086 899.89 5.26825 897.199 5.84015C896.48 5.99359 895.561 5.72856 894.775 5.51933C891.817 4.72424 888.891 3.84545 885.916 3.07826C885.448 2.95272 884.796 3.38514 884.211 3.41304C883.359 3.45488 882.49 3.41304 881.637 3.30145C880.601 3.16196 879.615 2.86903 878.595 2.70164C875.62 2.22738 872.561 2.46451 869.586 1.65547C866.628 0.846433 863.469 0.483761 860.376 0.0234457C859.691 -0.0741969 858.822 0.148986 858.153 0.400067C855.028 1.61362 851.635 2.03209 848.275 1.86471C846.353 1.76706 844.564 1.87865 842.709 1.93445C840.787 1.99025 839.366 2.43661 837.711 3.00852C835.371 3.83151 832.797 4.22208 830.374 4.89162C827.215 5.77041 823.671 6.30047 821.097 7.83485C819.108 9.02051 816.751 8.18357 815.097 9.48082C812.84 11.2523 809.547 11.3918 806.973 12.6751C806.288 13.0239 805.703 13.4981 804.967 13.7631C803.396 14.349 801.792 14.8651 800.187 15.3673C799.034 15.7299 797.764 15.8834 796.694 16.3437C793.969 17.5154 790.961 17.6131 788.019 18.0036C787.517 18.0734 786.882 18.3105 786.632 18.6313C784.643 21.1421 781.35 21.6303 778.141 22.3278C777.205 22.537 776.402 23.1229 775.5 23.4716C774.246 23.9598 772.976 24.4341 771.672 24.8386C770.418 25.2152 768.881 25.2431 767.878 25.8569C765.638 27.2099 763.148 27.1262 760.624 27.1681C760.039 27.1681 759.353 27.1681 758.869 27.3913C756.378 28.5072 753.67 28.3956 751.364 27.5586C748.773 26.6241 746.299 26.6938 743.725 26.9728C742.154 27.1541 741.084 26.4567 739.847 25.9964C739.279 25.7871 738.694 25.5221 738.092 25.4105C735.919 25.0199 733.73 24.5038 731.524 24.3783C730.003 24.2946 728.431 24.7689 726.877 24.9781C726.827 24.9781 726.76 25.0199 726.71 25.006C723.634 23.8622 720.475 25.6755 717.366 24.8247C716.848 24.6852 716.18 24.9362 715.578 24.992C714.074 25.1594 712.569 25.5082 711.148 24.6294C710.831 24.4341 710.129 24.6573 709.611 24.6294C708.223 24.5736 706.702 24.7689 705.465 24.3922C702.641 23.5135 699.916 23.6529 697.091 24.2388C696.272 24.4062 695.353 24.3364 694.501 24.2806C691.576 24.0575 688.651 24.0854 685.809 24.5317C685.124 24.5178 685.207 24.3364 684.823 24.2527C683.62 23.9877 681.146 23.3182 681.146 23.3182V51.4392H1032.29L1032.27 51.4671Z" fill="#F4F3E5"/>
<path d="M1375.81 23.0145C1375.52 23.126 1375.04 22.9587 1374.65 22.9168C1370.96 22.596 1367.28 21.3406 1363.59 21.0198C1363.42 21.0058 1363.2 21.0616 1363.07 20.9919C1359.96 19.6109 1356.47 20.6292 1353.19 20.0852C1352.07 19.9038 1350.74 20.6571 1349.47 20.8663C1347.73 21.1453 1345.75 16.57 1343.98 16.6816C1340.86 16.8769 1338.4 16.6816 1335.27 16.6816C1333.85 16.7793 1331.23 12.1901 1329.81 12.2598C1328.52 12.3156 1323.93 8.85629 1323.17 9.81876C1322.47 10.7115 1318.76 11.5066 1317.67 10.9486C1315.6 9.86061 1313.28 10.3907 1311.07 10.1396C1310.45 10.0698 1309.55 10.3488 1309.12 10.7254C1307.56 12.0506 1305.89 11.7716 1304.1 11.2276C1303.45 11.0323 1302.73 10.7533 1302.06 10.7812C1298.52 10.9207 1295.03 11.1858 1291.43 11.1021C1288.14 11.0184 1284.93 10.7394 1281.72 10.2791C1280.4 10.0838 1279.05 9.33055 1277.84 9.47004C1276.17 9.66533 1274.23 8.60521 1272.75 10.0419C1272.59 10.1954 1271.91 10.0419 1271.47 9.98615C1270.72 9.90246 1269.99 9.72112 1269.25 9.72112C1267.4 9.69322 1265.52 9.86061 1263.69 9.72112C1261.3 9.55373 1258.92 9.13527 1256.53 8.93998C1255.86 8.88418 1254.93 8.99578 1254.51 9.3445C1253.47 10.2093 1252.19 9.9443 1250.98 10.1117C1250.3 10.2093 1249.6 10.307 1248.91 10.4465C1247.51 10.7533 1246.12 11.1997 1244.7 11.4229C1243.04 11.6879 1241.34 11.7856 1239.65 11.9111C1238.2 12.0227 1236.59 12.4133 1235.32 12.0645C1233.87 11.66 1232.65 11.8274 1231.39 12.1203C1227.63 12.9712 1223.91 13.8779 1219.99 14.2406C1217.97 14.4219 1215.92 14.6032 1213.94 14.952C1212.37 15.231 1210.93 15.3007 1209.51 14.6172C1209.26 14.4917 1208.86 14.5614 1208.54 14.5475C1205.2 14.4359 1201.98 14.0592 1198.88 12.8596C1197.48 12.3156 1195.87 11.7158 1194.04 12.3993C1191.41 13.3757 1188.65 13.3199 1185.95 12.483C1185.66 12.3993 1185.18 12.3575 1184.99 12.483C1183.81 13.3478 1182.67 12.8736 1181.48 12.497C1180 12.0366 1178.61 12.0227 1177.41 13.1107C1177.04 13.4455 1176.27 13.5431 1175.67 13.6966C1173.76 14.1987 1171.86 14.673 1169.95 15.1612C1169.43 15.3007 1168.85 15.6634 1168.41 15.5657C1165.57 14.9659 1162.41 15.2588 1160.37 13.8919C1158.57 14.2964 1157.05 14.9659 1155.59 14.8822C1153.92 14.7846 1152.33 13.9616 1150.66 13.571C1149.44 13.2781 1148.09 13.3339 1146.93 12.9433C1145.18 12.3435 1143.61 11.4368 1141.89 10.7533C1140.93 10.3767 1139.85 10.0559 1138.81 9.98615C1137.31 9.90246 1135.79 10.1675 1134.26 10.1256C1131.04 10.028 1127.8 9.93036 1124.59 9.65138C1121.8 9.4003 1119.26 9.67927 1116.73 10.6975C1115.81 11.0602 1114.46 11.0463 1113.42 10.8231C1110.16 10.1117 1106.95 9.21896 1103.73 8.39597C1101.97 7.94961 1100.35 7.19636 1098.33 7.51719C1093.5 8.29833 1088.7 6.13624 1083.84 7.33585C1083.74 7.36375 1083.62 7.30796 1083.5 7.30796C1082.37 7.3777 1081.25 7.48929 1080.11 7.53114C1079.21 7.57299 1078.22 7.72642 1077.42 7.50324C1076.15 7.15452 1075.13 7.23821 1073.98 7.75432C1071.08 9.06552 1068.02 9.63743 1064.73 8.84234C1063.6 8.56336 1062.44 8.25648 1061.82 9.53979C1061.72 9.73507 1061.16 9.91641 1060.8 9.90246C1057.68 9.81876 1054.52 10.4604 1051.44 9.49794C1050.39 9.16316 1049.25 8.98183 1048.13 8.82839C1047.05 8.67495 1045.94 8.57731 1044.86 8.57731C1043.2 8.57731 1041.52 8.52151 1039.91 8.77259C1036.38 9.2887 1031.14 9.59558 1027.56 10.0419C1027.51 10.0419 1027.44 10.0419 1027.38 10.0419V51.3726H1379.17V23.2516C1378.15 23.0284 1377.98 22.0799 1375.81 23.0145Z" fill="#F4F3E5"/>
<path d="M1724.7 51.4671H1725.36V10.1364C1724.39 10.2062 1721.94 9.92719 1721.08 10.262C1719.68 10.792 1718.16 11.1686 1716.56 10.513C1716.1 10.3317 1715.49 10.4294 1714.95 10.4154C1713.8 10.3736 1712.59 10.4712 1711.51 10.248C1709.72 9.8714 1707.75 9.95509 1706.14 8.96471C1705.67 8.68574 1704.77 8.83917 1704.07 8.83917C1703.53 8.83917 1702.98 8.99261 1702.45 8.95076C1700.53 8.82522 1698.74 8.75548 1696.77 9.28554C1695.19 9.70401 1693.25 9.2158 1691.47 9.14605C1691.12 9.1321 1690.75 9.14605 1690.4 9.17395C1688.37 9.36923 1686.49 9.42503 1684.41 8.89497C1682.37 8.36491 1679.97 8.62994 1677.73 8.72758C1673.9 8.90892 1670.29 8.28122 1666.7 7.33269C1666.18 7.1932 1665.54 7.1653 1665.02 7.26294C1660.13 8.16962 1655.2 8.85312 1650.15 8.83917C1649.76 8.83917 1649.16 8.90892 1649.03 8.74153C1647.77 7.249 1646.27 8.12778 1644.78 8.33701C1642.26 8.69968 1639.68 8.89497 1637.16 9.27159C1636.17 9.42503 1635.19 9.80165 1634.3 10.2062C1632.35 11.0989 1630.46 10.9873 1628.44 10.3457C1626.85 9.8435 1625.29 9.43898 1623.39 9.77375C1622.3 9.96904 1620.91 9.07631 1619.66 8.65784C1617.4 7.90459 1615.2 7.01186 1612.87 6.42601C1612.01 6.20282 1610.87 6.69104 1609.83 6.83053C1607.41 7.1374 1605.17 6.71894 1602.98 5.84015C1601.37 5.18455 1599.7 5.00322 1597.78 5.04506C1594.99 5.10086 1592.32 5.26825 1589.62 5.84015C1588.91 5.99359 1587.99 5.72856 1587.2 5.51933C1584.24 4.72424 1581.32 3.84545 1578.34 3.07826C1577.87 2.95272 1577.22 3.38514 1576.64 3.41304C1575.78 3.45488 1574.92 3.41304 1574.06 3.30145C1573.03 3.16196 1572.04 2.86903 1571.02 2.70164C1568.05 2.22738 1564.99 2.46451 1562.01 1.65547C1559.05 0.846433 1555.89 0.483761 1552.8 0.0234457C1552.12 -0.0741969 1551.25 0.148986 1550.58 0.400067C1547.45 1.61362 1544.06 2.03209 1540.7 1.86471C1538.78 1.76706 1536.99 1.87865 1535.13 1.93445C1533.21 1.99025 1531.79 2.43661 1530.14 3.00852C1527.8 3.83151 1525.22 4.22208 1522.8 4.89162C1519.64 5.77041 1516.1 6.30047 1513.52 7.83485C1511.53 9.02051 1509.18 8.18357 1507.52 9.48082C1505.27 11.2523 1501.97 11.3918 1499.4 12.6751C1498.71 13.0239 1498.13 13.4981 1497.39 13.7631C1495.82 14.349 1494.22 14.8651 1492.61 15.3673C1491.46 15.7299 1490.19 15.8834 1489.12 16.3437C1486.4 17.5154 1483.39 17.6131 1480.44 18.0036C1479.94 18.0734 1479.31 18.3105 1479.06 18.6313C1477.07 21.1421 1473.78 21.6303 1470.57 22.3278C1469.63 22.537 1468.83 23.1229 1467.93 23.4716C1466.67 23.9598 1465.4 24.4341 1464.1 24.8386C1462.84 25.2152 1461.31 25.2431 1460.3 25.8569C1458.06 27.2099 1455.57 27.1262 1453.05 27.1681C1452.46 27.1681 1451.78 27.1681 1451.29 27.3913C1448.8 28.5072 1446.1 28.3956 1443.79 27.5586C1441.2 26.6241 1438.73 26.6938 1436.15 26.9728C1434.58 27.1541 1433.51 26.4567 1432.27 25.9964C1431.7 25.7871 1431.12 25.5221 1430.52 25.4105C1428.35 25.0199 1426.16 24.5038 1423.95 24.3783C1422.43 24.2946 1420.86 24.7689 1419.3 24.9781C1419.25 24.9781 1419.19 25.0199 1419.14 25.006C1416.06 23.8622 1412.9 25.6755 1409.79 24.8247C1409.27 24.6852 1408.61 24.9362 1408 24.992C1406.5 25.1594 1404.99 25.5082 1403.57 24.6294C1403.26 24.4341 1402.55 24.6573 1402.04 24.6294C1400.65 24.5736 1399.13 24.7689 1397.89 24.3922C1395.07 23.5135 1392.34 23.6529 1389.52 24.2388C1388.7 24.4062 1387.78 24.3364 1386.93 24.2806C1384 24.0575 1381.08 24.0854 1378.23 24.5317C1377.55 24.5178 1377.63 24.3364 1377.25 24.2527C1376.05 23.9877 1373.57 23.3182 1373.57 23.3182V51.4392H1724.71L1724.7 51.4671Z" fill="#F4F3E5"/>
<path d="M2070.91 51.4671H2071.58V10.1364C2070.61 10.2062 2068.15 9.92719 2067.3 10.262C2065.89 10.792 2064.37 11.1686 2062.77 10.513C2062.32 10.3317 2061.7 10.4294 2061.16 10.4154C2060.01 10.3736 2058.81 10.4712 2057.72 10.248C2055.93 9.8714 2053.96 9.95509 2052.35 8.96471C2051.89 8.68574 2050.98 8.83917 2050.28 8.83917C2049.75 8.83917 2049.2 8.99261 2048.66 8.95076C2046.74 8.82522 2044.95 8.75548 2042.98 9.28554C2041.41 9.70401 2039.47 9.2158 2037.68 9.14605C2037.33 9.1321 2036.96 9.14605 2036.61 9.17395C2034.59 9.36923 2032.7 9.42503 2030.63 8.89497C2028.59 8.36491 2026.18 8.62994 2023.94 8.72758C2020.11 8.90892 2016.5 8.28122 2012.91 7.33269C2012.39 7.1932 2011.76 7.1653 2011.24 7.26294C2006.34 8.16962 2001.41 8.85312 1996.36 8.83917C1995.98 8.83917 1995.37 8.90892 1995.24 8.74153C1993.99 7.249 1992.48 8.12778 1991 8.33701C1988.47 8.69968 1985.9 8.89497 1983.37 9.27159C1982.39 9.42503 1981.4 9.80165 1980.52 10.2062C1978.56 11.0989 1976.67 10.9873 1974.65 10.3457C1973.06 9.8435 1971.51 9.43898 1969.6 9.77375C1968.51 9.96904 1967.13 9.07631 1965.87 8.65784C1963.62 7.90459 1961.41 7.01186 1959.09 6.42601C1958.22 6.20282 1957.08 6.69104 1956.05 6.83053C1953.62 7.1374 1951.38 6.71894 1949.19 5.84015C1947.59 5.18455 1945.92 5.00322 1943.99 5.04506C1941.2 5.10086 1938.53 5.26825 1935.84 5.84015C1935.12 5.99359 1934.2 5.72856 1933.41 5.51933C1930.46 4.72424 1927.53 3.84545 1924.55 3.07826C1924.09 2.95272 1923.44 3.38514 1922.85 3.41304C1922 3.45488 1921.13 3.41304 1920.28 3.30145C1919.24 3.16196 1918.25 2.86903 1917.23 2.70164C1914.26 2.22738 1911.2 2.46451 1908.22 1.65547C1905.27 0.846433 1902.11 0.483761 1899.02 0.0234457C1898.33 -0.0741969 1897.46 0.148986 1896.79 0.400067C1893.67 1.61362 1890.27 2.03209 1886.91 1.86471C1884.99 1.76706 1883.2 1.87865 1881.35 1.93445C1879.43 1.99025 1878 2.43661 1876.35 3.00852C1874.01 3.83151 1871.44 4.22208 1869.01 4.89162C1865.85 5.77041 1862.31 6.30047 1859.74 7.83485C1857.75 9.02051 1855.39 8.18357 1853.74 9.48082C1851.48 11.2523 1848.19 11.3918 1845.61 12.6751C1844.93 13.0239 1844.34 13.4981 1843.61 13.7631C1842.03 14.349 1840.43 14.8651 1838.83 15.3673C1837.67 15.7299 1836.4 15.8834 1835.33 16.3437C1832.61 17.5154 1829.6 17.6131 1826.66 18.0036C1826.16 18.0734 1825.52 18.3105 1825.27 18.6313C1823.28 21.1421 1819.99 21.6303 1816.78 22.3278C1815.84 22.537 1815.04 23.1229 1814.14 23.4716C1812.88 23.9598 1811.61 24.4341 1810.31 24.8386C1809.06 25.2152 1807.52 25.2431 1806.52 25.8569C1804.28 27.2099 1801.79 27.1262 1799.26 27.1681C1798.68 27.1681 1797.99 27.1681 1797.51 27.3913C1795.02 28.5072 1792.31 28.3956 1790 27.5586C1787.41 26.6241 1784.94 26.6938 1782.36 26.9728C1780.79 27.1541 1779.72 26.4567 1778.49 25.9964C1777.92 25.7871 1777.33 25.5221 1776.73 25.4105C1774.56 25.0199 1772.37 24.5038 1770.16 24.3783C1768.64 24.2946 1767.07 24.7689 1765.52 24.9781C1765.47 24.9781 1765.4 25.0199 1765.35 25.006C1762.27 23.8622 1759.11 25.6755 1756 24.8247C1755.49 24.6852 1754.82 24.9362 1754.22 24.992C1752.71 25.1594 1751.21 25.5082 1749.79 24.6294C1749.47 24.4341 1748.77 24.6573 1748.25 24.6294C1746.86 24.5736 1745.34 24.7689 1744.1 24.3922C1741.28 23.5135 1738.55 23.6529 1735.73 24.2388C1734.91 24.4062 1733.99 24.3364 1733.14 24.2806C1730.21 24.0575 1727.29 24.0854 1724.45 24.5317C1723.76 24.5178 1723.85 24.3364 1723.46 24.2527C1722.26 23.9877 1719.78 23.3182 1719.78 23.3182V51.4392H2070.92L2070.91 51.4671Z" fill="#F4F3E5"/>
</svg>
