<svg width="186" height="74" viewBox="0 0 186 74" fill="none" xmlns="http://www.w3.org/2000/svg">
<path d="M112.74 55.5148C109.481 55.5148 107.359 57.8199 107.359 61.1889C107.359 64.5579 109.452 66.3976 112.602 66.3976C115.751 66.3976 117.982 64.1516 117.982 60.6939C117.982 57.5096 116.16 55.5074 112.74 55.5074M112.66 64.9938C110.976 64.9938 109.889 63.4866 109.889 61.0485C109.889 58.47 110.925 56.9111 112.718 56.9111C114.512 56.9111 115.46 58.4774 115.46 60.9451C115.46 63.4127 114.402 65.0012 112.66 65.0012M106.484 63.8782L105.289 65.6366C104.253 66.1316 102.977 66.405 101.65 66.405C97.1665 66.405 94.3448 63.6344 94.3448 59.002C94.3448 54.3696 97.4435 51.0745 102.059 51.0745C103.663 51.0745 104.815 51.2592 105.901 51.6138C105.901 51.6138 105.631 52.9732 105.551 53.3722C105.464 53.7712 105.136 54.377 104.494 54.3327L104.239 54.3031V53.1136C104.195 53.0915 104.144 53.0767 104.093 53.0545C103.553 52.8698 102.802 52.7738 102.008 52.7738C99.0767 52.7738 97.1446 55.0789 97.1446 58.6991C97.1446 62.3193 99.0475 64.5653 102.387 64.5653C103.692 64.5653 105.077 64.2328 106.302 63.6048L106.492 63.8782H106.484ZM137.209 65.0308L137.158 65.3337C137.019 65.8804 136.939 66.0725 136.37 66.0725H132.936V65.7696C132.936 65.474 132.936 65.245 133.527 64.9864L133.928 64.8017V59.3492C133.928 57.7829 133.199 57.2067 132.112 57.2067C131.186 57.2067 130.289 57.5096 129.531 58.0046C129.582 58.3075 129.611 58.6326 129.611 59.0168V65.0751L130.443 65.0234L130.392 65.3263C130.253 65.873 130.173 66.0651 129.604 66.0651H126.17V65.7622C126.17 65.4666 126.17 65.2376 126.761 64.979L127.162 64.7943V59.3419C127.162 57.7756 126.433 57.1993 125.346 57.1993C124.449 57.1993 123.582 57.4726 122.845 57.9085V65.0677L123.684 65.016L123.633 65.3189C123.494 65.8656 123.414 66.0577 122.845 66.0577H119.411V65.7548C119.411 65.4593 119.411 65.2302 120.002 64.9716L120.403 64.7869V57.3618L119.419 57.384V57.1032C119.419 56.5861 119.55 56.4309 120.17 56.2536L122.845 55.5517V57.5539L123.793 56.0763C124.5 55.7216 125.259 55.4704 126.294 55.4704C127.927 55.4704 129.035 56.1575 129.444 57.6352L130.421 56.0763C131.07 55.7216 132.054 55.4704 133.082 55.4704C135.094 55.4704 136.37 56.5934 136.37 58.9798V65.0677L137.209 65.016V65.0308ZM89.9994 66.0503L89.9848 66.0651L89.1755 65.9469V65.9173C89.1755 64.8091 89.1318 63.7304 89.1245 63.4201C88.8256 58.3371 88.6068 55.4778 88.1475 50.6977V50.6755L88.1621 50.6607C88.9131 50.1583 89.7369 49.8333 90.6775 49.6707H90.7139V49.7003C90.9472 53.7638 91.0347 56.6526 91.1514 61.9868C91.1806 63.5014 90.7795 64.8978 90.0067 66.0355L89.9994 66.0503ZM34.5076 62.8586C34.5441 63.1394 34.0847 63.9964 33.8077 64.4545C33.6035 64.8017 33.3848 65.112 33.2025 65.3411C32.9765 65.6218 32.8088 65.7622 32.6849 65.7917C31.9047 65.969 30.9059 66.0651 29.9507 66.0651C28.6748 66.0651 27.727 65.8804 27.0562 65.5036C26.2979 65.0751 25.9115 64.3806 25.9115 63.4423C25.9115 62.9251 25.999 62.0976 26.4365 61.1372L26.4583 61.0855L27.2895 61.248L27.2676 61.3884C27.2166 61.6839 27.1729 61.9647 27.1729 62.2085C27.1729 62.6518 27.4208 62.9916 27.9238 63.2133C28.405 63.4275 29.105 63.5383 30.0091 63.5383C31.0517 63.5383 32.1453 63.4127 32.9036 63.2059C32.3495 61.5879 31.2923 59.3862 29.9216 56.985L29.8924 56.9407L29.9289 56.9038C30.5267 56.2167 31.0444 55.6921 31.7881 55.1897L31.861 55.138L31.8974 55.2192C33.2171 58.1524 34.2889 61.2923 34.5076 62.866V62.8586ZM22.3535 72.2195L22.3973 72.2712L22.3535 72.3155C21.6754 73.1134 21.1286 73.6528 20.6839 73.9705L20.6401 74L20.5964 73.9705C20.035 73.5863 19.4517 72.9952 18.9486 72.3081L18.9195 72.2638L18.9486 72.2195C19.3715 71.6432 19.911 71.1038 20.5089 70.6458C19.9766 70.2616 19.4225 69.6927 18.9486 69.0425L18.9195 68.9982L18.9486 68.9539C19.3934 68.348 19.9621 67.7865 20.5964 67.3211L20.6401 67.2841L20.6839 67.3211C21.3765 67.9047 21.9379 68.4515 22.3535 68.9465L22.3973 68.9982L22.3535 69.0425C21.7046 69.8035 21.1942 70.3133 20.7641 70.6458C21.4203 71.1999 21.9525 71.7244 22.3535 72.2121V72.2195ZM122.729 42.6593C122.131 42.9327 121.373 43.014 120.746 43.014C118.653 43.014 117.756 42.0018 117.756 39.9405V34.0152H116.356V33.7418C116.356 33.2468 116.517 33.0252 117.064 32.8922L117.756 32.7001L119.521 30.0108H120.199V32.7001H122.568V34.0152H120.199V39.5268C120.199 40.8714 120.716 41.3073 121.723 41.3073C122.262 41.3073 122.998 41.1965 123.706 40.8123L123.844 41.0339L122.729 42.652M139.622 39.7336C139.622 41.7654 137.887 42.9697 135.357 42.9697C134.001 42.9697 132.287 42.6963 131.23 42.1496L131.558 40.007C131.638 39.379 131.886 39.1869 132.455 39.1869L132.754 39.246V41.0044C133.49 41.3886 134.547 41.6619 135.364 41.6619C136.859 41.6619 137.508 41.1669 137.508 40.2877C137.508 39.7115 137.128 39.2977 135.473 38.7214L134.307 38.3077C132.462 37.6502 131.456 37.1034 131.456 35.4263C131.456 33.3429 133.25 32.109 135.772 32.109C136.968 32.109 138.135 32.3307 139.09 32.6853L138.762 34.6358C138.681 35.2416 138.492 35.4042 137.916 35.4042L137.588 35.3524V33.8452C137.041 33.6014 136.392 33.4315 135.794 33.4315C134.547 33.4315 133.563 33.897 133.563 34.8574C133.563 35.5445 134.001 35.8474 135.546 36.3942L136.633 36.7784C138.776 37.5467 139.622 38.256 139.622 39.741M164.397 41.6472L164.346 41.9501C164.207 42.4968 164.127 42.6889 163.558 42.6889H160.124V42.386C160.124 42.0905 160.124 41.8614 160.715 41.6028L161.116 41.4181V35.9657C161.116 34.3994 160.328 33.8231 159.104 33.8231C158.178 33.8231 157.281 34.0964 156.522 34.5324V41.6915L157.346 41.6398L157.295 41.9427C157.157 42.4894 157.077 42.6815 156.508 42.6815H153.074V42.3786C153.074 42.0831 153.074 41.854 153.664 41.5955L154.065 41.4107V33.9856L153.081 34.0078V33.727C153.081 33.2099 153.212 33.0547 153.832 32.8774L156.522 32.1681V34.1408L157.47 32.6631C158.229 32.3307 159.074 32.0869 160.11 32.0869C162.282 32.0869 163.558 33.2099 163.558 35.6258V41.6915L164.397 41.6398V41.6472ZM115.168 34.2147C114.052 34.2147 112.776 34.4068 112.018 34.7614V41.6989L112.857 41.6472L112.806 41.9501C112.667 42.4968 112.587 42.6889 112.018 42.6889H108.584V42.386C108.584 42.0905 108.584 41.8614 109.175 41.6028L109.576 41.4181V33.993L108.591 34.0152V33.7344C108.591 33.2173 108.723 33.0621 109.342 32.8848L112.018 32.1829V34.4068L112.886 32.8478C113.345 32.4341 114.381 32.1386 115.168 32.1386V34.222M106.273 15.1901C106.273 17.8572 104.151 19.6378 100.557 19.6378C98.8142 19.6378 96.4447 19.224 95.0083 18.4261L95.3875 16.8598C95.5697 16.121 95.7666 15.8403 96.4228 15.8181L96.7436 15.8476V17.0815C97.9685 17.6873 99.4412 18.0124 100.557 18.0124C102.598 18.0124 103.634 17.0815 103.634 15.8181C103.634 14.8281 103.174 14.3331 101.344 13.5647L99.1642 12.656C96.7727 11.6659 95.5187 10.8976 95.5187 8.75499C95.5187 5.8145 97.9101 4.27776 101.125 4.27776C102.598 4.27776 104.231 4.46985 105.726 4.99441C105.726 4.99441 105.456 6.27995 105.376 6.6863C105.289 7.08526 104.953 7.69109 104.312 7.64677L104.056 7.61721V6.42033C103.211 6.0657 102.11 5.8736 101.155 5.8736C99.3319 5.8736 98.0487 6.59026 98.0487 7.98662C98.0487 8.94708 98.5663 9.44209 100.44 10.2105L102.832 11.2005C105.5 12.2718 106.258 13.2618 106.258 15.1827M119.448 10.6242V10.3287C119.448 9.80411 119.652 9.64896 120.126 9.50859L122.86 8.8141V15.7664C122.86 17.3327 123.728 17.8794 124.931 17.8794C125.776 17.8794 126.702 17.6873 127.41 17.2514V10.6316L126.425 10.6538V10.373C126.425 9.84844 126.556 9.70068 127.184 9.52336L129.859 8.82149V17.8572H130.851V18.3522C130.851 18.8472 130.53 18.9655 129.619 19.1502L127.395 19.5935L127.41 17.6356L126.454 19.0393C125.776 19.3718 124.85 19.6452 123.844 19.6452C121.774 19.6452 120.417 18.4926 120.417 16.0988V10.6316H119.455L119.448 10.6242ZM146.84 7.4399L145.017 5.62979L146.84 3.79014L148.612 5.62979L146.84 7.4399ZM149.093 18.2636L149.042 18.5665C148.903 19.1132 148.823 19.3053 148.255 19.3053H144.82V19.0024C144.82 18.7069 144.82 18.4778 145.411 18.2119L145.812 18.0272V10.5946L144.828 10.6168V10.3361C144.828 9.8115 144.959 9.66374 145.586 9.48642L148.269 8.78454V18.3153L149.108 18.2636H149.093ZM181.523 41.6472L181.472 41.9501C181.334 42.4968 181.254 42.6889 180.685 42.6889H177.251V42.386C177.251 42.0905 177.251 41.8614 177.841 41.5955L178.242 41.4107V28.9617L177.258 28.9838V28.7031C177.258 28.1785 177.389 28.0308 178.016 27.8534L180.699 27.1516V41.6989L181.538 41.6472H181.523ZM127.154 30.8235L125.332 29.0134L127.154 27.1737L128.926 29.0134L127.154 30.8235ZM129.407 41.6472L129.356 41.9501C129.218 42.4968 129.137 42.6889 128.569 42.6889H125.135V42.386C125.135 42.0905 125.135 41.8614 125.725 41.5955L126.126 41.4107V33.9782L125.142 34.0004V33.7197C125.142 33.1951 125.273 33.0473 125.9 32.87L128.583 32.1681V41.6989L129.422 41.6472H129.407ZM174.094 65.0308L174.043 65.3337C173.904 65.8804 173.824 66.0725 173.255 66.0725H169.821V65.7696C169.821 65.474 169.821 65.245 170.412 64.9864L170.813 64.8017V59.3492C170.813 57.7829 170.025 57.2067 168.801 57.2067C167.875 57.2067 166.978 57.48 166.22 57.9159V65.0751L167.043 65.0234L166.992 65.3263C166.854 65.873 166.774 66.0651 166.205 66.0651H162.771V65.7622C162.771 65.4666 162.771 65.2376 163.361 64.979L163.762 64.7943V57.3692L162.778 57.3914V57.1106C162.778 56.5934 162.909 56.4383 163.529 56.261L166.22 55.5517V57.5244L167.167 56.0467C167.926 55.7143 168.771 55.4704 169.807 55.4704C171.979 55.4704 173.255 56.5934 173.255 59.0094V65.0751L174.094 65.0234V65.0308ZM80.1638 16.121C79.843 17.015 79.4712 18.0345 78.6327 18.6552C77.8745 19.1575 73.9082 19.2979 73.1499 19.2979H71.2542C70.8824 19.2979 70.7439 19.1428 70.547 18.9285C70.4668 18.8399 70.372 18.7364 70.2481 18.6256C70.1606 19.3423 69.9492 20.9529 69.7888 21.2041C69.2711 22.1128 68.593 22.8664 67.7619 23.4353C67.0328 23.9377 66.1943 24.2923 65.261 24.4992H65.2465C64.86 24.4992 62.9717 23.3836 62.0676 22.4748L62.0311 22.4379L62.3446 21.6474L62.4103 21.6695C63.0956 21.869 63.8174 21.9651 64.6194 21.9651C66.5807 21.9651 68.1993 20.5909 68.943 18.2857C68.3451 17.1406 67.3171 15.5595 66.1943 14.0449L66.1578 13.9932L66.1943 13.9489C66.814 13.2322 67.4483 12.7372 68.1774 12.3974L68.2431 12.3678C68.5712 12.9293 69.519 15.4117 70.4668 16.2466C70.8678 16.6012 71.2907 16.7564 71.8521 16.7564H73.0333C73.0333 16.7564 76.9923 16.6973 78.0786 16.4904C78.3484 15.5595 78.4869 15.0128 78.7057 14.1853C78.7421 14.0375 78.7859 13.8824 78.8296 13.7051V13.6681L78.8733 13.6534C79.3983 13.4317 80.2513 13.2618 80.8784 13.1805L80.9804 13.1657L80.9586 13.2692C80.7326 14.2887 80.5138 15.1162 80.2878 15.8033L80.1857 16.0915L80.1638 16.121ZM86.9664 11.8802L86.9445 11.9836C86.5362 13.7716 86.1935 15.2196 85.8581 16.2392C85.4717 17.4066 84.9613 18.2045 84.2906 18.6773C83.6708 19.0911 82.8761 19.3053 81.9866 19.3053C81.2138 19.3053 80.3826 19.0837 79.5806 18.6699L79.515 18.633C80.0472 18.0345 80.3534 17.3031 80.6086 16.6086H80.6523C81.1335 16.7195 81.6148 16.7712 82.0741 16.7712C82.6865 16.7712 83.2334 16.6973 83.751 16.5421C83.9916 15.7442 84.1958 14.8946 84.4218 14.0006C84.5457 13.4834 84.6843 12.9515 84.8301 12.39V12.353L84.8738 12.3383C85.2821 12.1609 85.9602 12.0132 86.8789 11.895L86.9809 11.8802H86.9664ZM87.1997 6.54593L87.2507 6.5016L87.3017 6.54593C88.0965 7.26258 88.6141 7.76498 88.9422 8.23043L88.9714 8.27476L88.9422 8.31909C88.7235 8.65895 88.3079 9.20567 87.2944 10.011L87.2507 10.0479L87.207 10.011C86.5362 9.47903 86.0039 8.92492 85.5884 8.31909L85.5592 8.27476L85.5956 8.23043C86.1789 7.55072 86.7185 6.98922 87.207 6.55332L87.1997 6.54593ZM82.0814 8.31909L82.0522 8.27476L82.0887 8.23043C82.672 7.55811 83.2115 6.98922 83.7 6.55332L83.751 6.50899L83.8021 6.55332C84.5968 7.26997 85.1144 7.77236 85.4425 8.23782L85.4717 8.28215L85.4425 8.32648C85.2238 8.66633 84.8082 9.21306 83.7948 10.0184L83.751 10.0553L83.7073 10.0184C83.0365 9.48642 82.5043 8.93231 82.0887 8.32648L82.0814 8.31909ZM84.1156 5.38598L84.0791 5.33427L84.1593 5.24561C84.6332 4.71366 85.0853 4.21126 85.5082 3.83446L85.5519 3.79014L85.6029 3.83446C86.3102 4.43291 86.7622 4.89836 87.032 5.30471L87.0611 5.34904L87.032 5.39337C86.6966 5.91054 86.23 6.38339 85.6029 6.84145L85.5592 6.87101L85.5154 6.83407C84.9103 6.35383 84.451 5.88099 84.1156 5.39337V5.38598ZM92.369 16.6899C92.369 16.9633 91.9826 17.739 91.6253 18.3448C91.341 18.8325 90.816 19.6452 90.5244 19.6452C88.9495 19.6452 86.9591 19.1723 85.4571 18.4335L85.3915 18.404C85.7925 17.8942 86.1206 17.244 86.3831 16.4387C86.3904 16.4165 86.3977 16.3944 86.4049 16.3648L86.456 16.3796C87.7829 16.7859 89.2995 17.0519 90.641 17.111C90.24 15.6408 89.6494 13.6903 88.9714 11.4443L88.9131 11.2596L88.9568 11.23C89.6057 10.7646 90.3056 10.4321 91.2316 10.1514L91.3118 10.1292L91.3264 10.2105C91.9388 13.2248 92.3034 15.5226 92.3617 16.6973L92.369 16.6899ZM23.3743 60.1693C23.5638 61.0264 23.7096 61.9203 23.8044 62.8439C23.8409 63.1911 23.0316 64.8387 22.2441 65.6366C22.1494 65.7326 22.04 65.7696 21.9525 65.7917C21.0411 65.9912 20.611 66.0799 18.7518 66.0799H10.0828C8.90891 66.0799 7.95379 65.9764 7.23927 65.777C6.98408 65.7105 6.61953 65.2007 6.34977 64.7869C5.53318 63.4423 5.36548 62.1346 5.34361 61.8169C5.34361 61.8169 5.13217 59.3345 5.05197 58.4479C4.16247 58.9429 3.4917 59.3788 2.94487 59.7999C2.30326 60.2949 1.82206 60.7899 1.48667 61.3145C2.06995 62.1937 3.20735 62.6961 4.60722 62.6961C4.68013 62.6961 4.91344 62.6887 4.91344 62.6887L4.92802 62.7478C5.05926 63.3093 5.24883 63.856 5.49672 64.3806L5.52588 64.4397L5.47485 64.4766C5.08842 64.75 4.70929 64.9864 4.32287 65.1933H4.30829L4.29371 65.2007C2.46366 65.2007 0.640914 64.3584 0.0430521 63.2428C-0.131932 62.8512 0.261782 60.7087 0.589877 60.258C1.40647 58.9946 3.0032 57.6056 4.8624 56.527L4.7822 55.6256L4.81866 55.6034C5.53317 55.1158 6.17478 54.776 7.18094 54.606L7.26114 54.5913V54.6799C7.28301 55.4261 7.37051 58.4627 7.39967 59.3197C7.42883 60.221 7.44342 61.2997 7.35593 62.4523C7.34134 62.6444 7.31218 63.0064 7.53091 63.2502C7.70589 63.4571 8.04128 63.5383 8.6683 63.5457C8.7558 63.5457 18.759 63.5457 18.759 63.5457C20.8516 63.5457 21.2161 63.4497 22.1056 63.2133C22.1421 63.2059 22.1712 63.1985 22.2077 63.1837C21.8723 61.7578 21.2526 59.8147 20.4579 57.6943L20.4433 57.65L20.4797 57.613C21.0047 57.1328 21.6171 56.756 22.2441 56.527L22.3025 56.5048L22.3316 56.5565C22.9295 57.5761 23.3961 58.3223 23.8482 58.9651L23.87 59.002L23.8482 59.0389C23.6878 59.3566 23.5274 59.763 23.3743 60.1546V60.1693ZM5.70816 50.1288C5.36548 49.8924 4.84782 49.4639 4.11872 48.5256L4.08227 48.4812L4.11872 48.4369C4.64367 47.7572 5.1905 47.2252 5.79565 46.8041L5.8394 46.7746L5.88314 46.8115C6.55391 47.4026 7.11532 47.9493 7.54549 48.4369L7.58924 48.4886L7.54549 48.5403C6.87472 49.2939 6.39351 49.8111 5.94876 50.1436C6.59037 50.7051 7.12261 51.237 7.54549 51.7099L7.58924 51.7616L7.54549 51.8133C6.83826 52.6112 6.33518 53.1432 5.87585 53.4683L5.83211 53.4978L5.78836 53.4683C5.45297 53.2466 4.90615 52.8329 4.11143 51.8059L4.07498 51.7616L4.11143 51.7173C4.61451 51.0745 5.13217 50.5573 5.70087 50.1436L5.70816 50.1288ZM64.0362 15.9141C64.0362 16.1579 63.6643 16.8968 63.3216 17.4804C63.1029 17.8572 62.5488 18.7438 62.2499 18.8399C61.2291 19.1575 58.7502 19.3127 54.6672 19.3127H47.8137C46.6398 19.3127 45.6847 19.2093 44.9702 19.0098C44.715 18.9433 44.3505 18.4335 44.0807 18.0198C43.2641 16.6751 43.0964 15.3674 43.0745 15.0497C43.0745 15.0497 42.8631 12.5673 42.7829 11.6807C41.8934 12.1757 41.2226 12.6116 40.6758 13.0327C40.0342 13.5278 39.553 14.0228 39.2176 14.5473C39.8009 15.4265 40.9383 15.9289 42.3381 15.9289C42.4111 15.9289 42.6444 15.9215 42.6444 15.9215L42.6589 15.9806C42.7902 16.5421 42.9797 17.0889 43.2276 17.6134L43.2568 17.6725L43.2058 17.7095C42.8193 17.9828 42.4402 18.2192 42.0538 18.4261H42.0392L42.0246 18.4335C40.1946 18.4335 38.3718 17.5913 37.774 16.4756C37.599 16.0841 37.9927 13.9415 38.3208 13.4908C39.1374 12.2274 40.7341 10.8385 42.5933 9.75978L42.5131 8.85843L42.5496 8.83626C43.2641 8.34864 43.9057 8.00879 44.9119 7.83886L44.9921 7.82408V7.91274C45.0139 8.65895 45.1014 11.6955 45.1306 12.5525C45.1598 13.4539 45.1743 14.5325 45.0868 15.6851C45.0723 15.8772 45.0431 16.2392 45.2618 16.483C45.4368 16.6899 45.7722 16.7712 46.3992 16.7786C46.4648 16.7786 54.6745 16.7786 54.6745 16.7786C58.2325 16.7786 60.7406 16.616 62.3446 16.2762C61.4843 14.5473 59.7709 12.7668 57.9336 11.725L57.3576 11.9467L55.1776 10.3952V10.3582C55.1193 9.58986 55.4109 7.77975 55.7463 7.499C57.6274 6.10264 60.4927 4.24082 63.606 2.39377L63.6497 2.36422L63.9122 2.59325L63.4091 5.4377L57.4888 8.79193C59.873 10.1218 61.3968 11.5625 62.2572 12.5451C63.3654 13.8085 64.0143 15.0349 64.0434 15.9215L64.0362 15.9141ZM43.4318 3.35423C43.0891 3.11781 42.5715 2.6893 41.8424 1.751L41.8059 1.70667L41.8424 1.66234C42.3673 0.982628 42.9141 0.450679 43.5193 0.0295527L43.563 0L43.6068 0.0369409C44.2775 0.627995 44.839 1.17472 45.2691 1.66234L45.3129 1.71406L45.2691 1.76577C44.5984 2.51937 44.1171 3.03654 43.6724 3.36901C44.314 3.93051 44.8462 4.46246 45.2691 4.9353L45.3129 4.98702L45.2691 5.03874C44.5619 5.83666 44.0588 6.36861 43.5995 6.69369L43.5557 6.72324L43.512 6.69369C43.1766 6.47204 42.6298 6.05831 41.8351 5.03135L41.7986 4.98702L41.8351 4.94269C42.3381 4.29992 42.8558 3.78275 43.4245 3.36901L43.4318 3.35423ZM56.5118 28.1785L56.4754 28.1268L56.592 27.9938C57.1243 27.4028 57.6274 26.8486 58.1232 26.4054L58.1742 26.361L58.2252 26.4054C59.0491 27.1516 59.5741 27.6318 59.8657 28.0899L59.8949 28.1268L59.8657 28.1637C59.4866 28.7474 58.947 29.3015 58.2179 29.8556L58.1742 29.8926L58.1304 29.8556C57.4597 29.3237 56.9274 28.7696 56.5118 28.1637V28.1785ZM62.0166 39.5489C61.9655 39.7927 61.6447 40.4651 61.2583 41.1078C60.9302 41.6619 60.4854 42.3269 60.2303 42.3786C59.421 42.5855 57.066 42.6815 53.0413 42.6815C53.0413 42.6815 9.09847 42.6815 9.0766 42.6815C8.5954 42.6815 8.07044 42.519 7.57465 42.2161C6.87472 41.7949 6.18207 40.9748 5.52588 39.9996L5.49672 39.9553L6.05813 39.2534L6.10916 39.283C6.83826 39.645 7.60382 39.9036 8.39854 40.0365C8.87974 40.1178 9.37553 40.1548 9.85674 40.1474C9.85674 40.1474 51.1019 40.1621 52.7059 40.1621C53.2309 40.1621 57.9555 40.0587 60.4198 39.9922C60.7552 37.1552 59.7199 35.0939 59.3262 34.5102C58.896 33.8674 58.4075 33.5349 57.9044 33.5349C57.467 33.5349 57.0149 33.8157 56.6066 34.3403C56.2275 34.8279 55.9213 35.4928 55.7317 36.2242C56.7743 36.8744 57.9044 37.2069 59.7418 37.3842H59.7782C59.8949 38.0565 59.9386 38.7362 59.8949 39.4307C59.8803 39.4307 59.8657 39.4307 59.8511 39.4307C57.8024 39.3125 56.4389 38.9431 55.6296 38.4703C54.7912 37.9826 54.3829 37.3029 54.3829 36.3942C54.3829 35.3155 54.7912 34.0004 55.4474 32.9513C56.2129 31.747 57.1753 31.0821 58.1742 31.0821C59.1731 31.0821 59.9969 31.5992 60.675 32.5893C61.3166 33.5276 62.3009 35.6332 62.0166 39.5563V39.5489ZM62.629 38.8618C62.6509 38.2486 62.6436 37.6649 62.6071 37.0961C63.6352 36.7562 64.4153 35.6775 64.5903 35.2638C64.8017 36.8744 63.7154 38.0491 62.629 38.8618ZM94.5854 35.5889C93.9293 35.5889 93.2585 35.8696 92.4492 36.2907L92.3981 36.3203L91.8659 35.6554L91.9024 35.611C93.0398 34.0743 94.2646 33.1951 95.2489 33.1951C95.4458 33.1951 95.6499 33.2246 95.8687 33.2837L95.9999 33.3207L95.1177 35.6701L95.001 35.648C94.8479 35.6184 94.7167 35.6036 94.5927 35.6036L94.5854 35.5889ZM117.72 17.8794V18.0419C117.72 18.6182 117.355 18.995 116.641 19.1428L114.607 19.5565C114.468 19.1206 114.337 18.4852 114.278 17.7981L113.192 19.224C112.704 19.4974 112.077 19.6378 111.231 19.6378C109.109 19.6378 107.855 18.5369 107.855 16.7564C107.855 15.9068 108.183 15.0276 108.723 14.2814L113.578 13.5499L113.695 13.5278V15.0497H110.458C110.298 15.4856 110.21 15.8994 110.21 16.2835C110.21 17.3548 110.837 18.0715 112.113 18.0715C112.959 18.0715 113.637 17.8498 114.264 17.4657V12.523C114.264 11.0158 113.396 10.4617 112.084 10.4617C111.078 10.4617 109.882 10.7129 108.519 11.2891L108.358 11.0675L109.503 9.25739C110.567 8.90276 111.792 8.73283 112.879 8.73283C115.248 8.73283 116.714 9.77456 116.714 12.3604V17.8794H117.72ZM117.304 12.9441C118.347 12.6116 119.134 11.5182 119.309 11.1044C119.521 12.7372 118.405 13.9193 117.304 14.7394V12.9441ZM150.959 41.263V41.4255C150.959 42.0018 150.595 42.3786 149.88 42.5264L147.846 42.9401C147.708 42.5042 147.576 41.8688 147.518 41.1817L146.432 42.6076C145.943 42.881 145.316 43.0214 144.47 43.0214C142.349 43.0214 141.095 41.9205 141.095 40.14C141.095 39.2903 141.423 38.4111 141.962 37.6649L146.818 36.9335L146.935 36.9113V38.4333H143.698C143.537 38.8692 143.45 39.283 143.45 39.6671C143.45 40.7384 144.077 41.4551 145.353 41.4551C146.198 41.4551 146.876 41.2334 147.504 40.8492V35.9066C147.504 34.3994 146.636 33.8452 145.324 33.8452C144.317 33.8452 143.122 34.0964 141.758 34.6727L141.598 34.4511L142.742 32.641C143.807 32.2863 145.032 32.1164 146.118 32.1164C148.488 32.1164 149.953 33.1581 149.953 35.744V41.263H150.959ZM150.544 36.3277C151.586 35.9952 152.374 34.9018 152.549 34.488C152.76 36.1208 151.645 37.3029 150.544 38.123V36.3277ZM160.642 64.6466V64.8091C160.642 65.3854 160.277 65.7622 159.563 65.91L157.529 66.3237C157.39 65.8878 157.259 65.2524 157.201 64.5653L156.114 65.9912C155.626 66.2646 154.999 66.405 154.153 66.405C152.031 66.405 150.777 65.3041 150.777 63.5236C150.777 62.6739 151.105 61.7947 151.645 61.0485L156.501 60.3171L156.617 60.2949V61.8169H153.38C153.22 62.2528 153.132 62.6665 153.132 63.0507C153.132 64.122 153.759 64.8387 155.035 64.8387C155.881 64.8387 156.559 64.617 157.186 64.2328V59.2901C157.186 57.7829 156.318 57.2288 155.006 57.2288C154 57.2288 152.804 57.48 151.441 58.0563L151.28 57.8347L152.425 56.0246C153.489 55.6699 154.714 55.5 155.801 55.5C158.17 55.5 159.636 56.5417 159.636 59.1276V64.6466H160.642ZM160.226 59.7113C161.269 59.3788 162.056 58.2853 162.231 57.8716C162.443 59.5044 161.327 60.6865 160.226 61.5066V59.7113ZM175.421 41.263V41.4255C175.421 42.0018 175.056 42.3786 174.342 42.5264L172.307 42.9401C172.169 42.5042 172.038 41.8688 171.979 41.1817L170.893 42.6076C170.405 42.881 169.778 43.0214 168.932 43.0214C166.81 43.0214 165.556 41.9205 165.556 40.14C165.556 39.2903 165.884 38.4111 166.424 37.6649L171.279 36.9335L171.396 36.9113V38.4333H168.159C167.999 38.8692 167.911 39.283 167.911 39.6671C167.911 40.7384 168.538 41.4551 169.814 41.4551C170.66 41.4551 171.338 41.2334 171.965 40.8492V35.9066C171.965 34.3994 171.097 33.8452 169.785 33.8452C168.779 33.8452 167.583 34.0964 166.22 34.6727L166.059 34.4511L167.204 32.641C168.268 32.2863 169.493 32.1164 170.58 32.1164C172.949 32.1164 174.415 33.1581 174.415 35.744V41.263H175.421ZM175.005 36.3277C176.048 35.9952 176.835 34.9018 177.01 34.488C177.222 36.1208 176.106 37.3029 175.005 38.123V36.3277ZM142.385 14.274C143.428 13.9415 144.215 12.848 144.39 12.4343C144.602 14.0671 143.486 15.2566 142.385 16.0693V14.274ZM142.801 18.3448C142.801 18.8399 142.436 19.0246 141.518 19.1649L139.352 19.4974V10.7055C139.097 10.5577 138.419 10.2105 137.529 10.2105C135.597 10.2105 134.453 11.6216 134.453 14.4661C134.453 16.483 135.459 17.9016 137.201 17.9016C137.661 17.9016 138.164 17.7833 138.66 17.5691L138.776 17.5174V19.1206L138.66 19.1723C138.156 19.3866 137.362 19.6304 136.305 19.6304C133.527 19.6304 131.923 17.739 131.923 14.7394C131.923 11.0601 133.884 8.72544 137.26 8.69589C137.967 8.69589 138.674 8.77716 139.352 8.9988V5.54113L138.382 5.5633V5.28255C138.382 4.75799 138.514 4.61022 139.141 4.43291L141.809 3.73103V17.8425H142.801V18.3448ZM149.173 60.3762C149.173 64.026 147.241 66.3828 143.873 66.4123C143.37 66.4123 142.896 66.368 142.429 66.2867L142.298 66.2498V64.6687L142.422 64.7131C142.779 64.8313 143.165 64.9052 143.566 64.9052C145.52 64.9052 146.636 63.4792 146.636 60.657C146.636 58.6252 145.659 57.2288 143.894 57.2288C143.216 57.2288 142.4 57.4505 141.722 57.9972V70.3133L143.173 70.2025L143.092 70.5571C142.954 71.1038 142.874 71.2959 142.305 71.2959H138.288V70.993C138.288 70.6975 138.288 70.4685 138.878 70.2099L139.279 70.0252L139.265 57.3988L138.295 57.4209V57.1402C138.295 56.623 138.426 56.4679 139.046 56.2905L141.722 55.5887V57.6426L142.589 56.0837C143.129 55.729 143.924 55.5074 144.813 55.5074C147.584 55.5074 149.159 57.3988 149.159 60.391L149.173 60.3762ZM86.8132 51.6286C86.5726 51.902 86.281 52.2566 85.9602 52.6999C85.9748 53.1653 85.9821 53.6308 85.9967 54.0889C86.0696 56.8668 86.1352 59.497 86.1789 62.8512C86.1789 63.1024 85.8071 63.8486 85.4644 64.4397C85.2384 64.8239 84.728 65.6661 84.4291 65.7622C84.3197 65.7991 83.5833 66.0799 81.8627 66.0799C80.9002 66.0799 80.0837 65.7991 79.4348 65.2376L79.3983 65.2081C79.9524 64.4249 80.3534 63.5974 80.5649 63.1172L80.6232 63.1689C80.9075 63.4275 81.3012 63.5457 81.8627 63.5457C83.175 63.5457 83.6417 63.4201 84.4801 63.1985L84.5457 63.1837C84.4218 61.4401 84.3197 59.8812 84.2249 58.3666C84.0937 56.2831 83.9625 54.3105 83.7948 52.131C83.6198 51.8724 83.4594 51.6212 83.2917 51.3478C83.2261 51.2518 83.1677 51.1484 83.1021 51.0449L83.073 51.0006L83.1021 50.9563C83.5104 50.3726 84.1083 49.7077 84.7207 49.1905L84.7426 49.1757H85.2165L86.8716 51.5843L86.8351 51.6286H86.8132ZM80.193 62.4892C80.193 62.4892 79.4931 64.3658 78.3192 65.607C78.2099 65.7252 78.0932 65.8065 78.0203 65.8287C77.5901 65.9986 76.8756 66.0799 75.8476 66.0799C74.9508 66.0799 74.0759 65.873 73.1718 65.4445L73.0989 65.4149C73.6384 64.8313 73.9811 64.0851 74.2363 63.3462H74.28C74.8414 63.4866 75.4174 63.5457 76.0299 63.5457C76.7662 63.5457 77.5026 63.4792 78.1588 63.3462C78.0422 62.9916 77.9401 62.5779 77.8599 62.1272C77.6849 61.0559 77.4808 59.5044 77.4224 58.3592V58.3149L77.4589 58.2927C78.2536 57.879 79.1067 57.6869 79.6826 57.5982L79.7628 57.5835V57.6647C79.8139 61.8686 80.1711 62.4818 80.1711 62.4818L80.193 62.4892ZM68.7534 59.9625C68.1264 60.0437 67.2734 60.2137 66.7484 60.4353L66.712 60.4501V60.487C66.6609 60.6569 66.6172 60.8121 66.5807 60.9525C66.362 61.8095 66.2235 62.3341 65.9537 63.265C65.2027 63.4127 61.5062 63.5531 60.4344 63.5531C58.8012 63.5531 57.7149 63.4423 56.891 63.3093C57.5763 62.6222 58.1377 61.8243 58.5096 61.0042C58.8741 60.2137 59.0637 59.4157 59.0637 58.6917C59.0637 57.8864 58.6846 57.1993 57.9628 56.7043C57.2482 56.2167 56.264 55.9581 55.1047 55.9581C53.6902 55.9581 52.4362 56.2314 50.8905 56.8668H50.8686L50.854 56.889C50.2853 57.6647 49.7458 58.7877 49.5417 59.231L49.5198 59.2827L50.1103 59.8147C50.1103 59.8147 52.6039 58.4848 54.988 58.4848C55.8921 58.4848 56.7306 58.6178 57.6128 58.8986C57.2045 60.3319 56.366 61.5288 55.0464 62.5631C54.1423 61.7356 53.3986 60.7087 52.7716 59.4379L52.757 59.4083C52.0716 59.6004 51.4738 59.8369 51.0436 60.0216L51.0728 60.0733C51.6852 61.3219 52.3706 62.3858 53.107 63.2354C51.8164 63.4054 47.1356 63.5383 44.9775 63.5383H44.2484C44.1828 61.7504 43.7891 60.1176 43.1183 58.9429C42.7756 58.3371 42.3673 57.8568 41.908 57.5317C41.4268 57.1845 40.9018 57.0146 40.3404 57.0146C39.3343 57.0146 38.35 57.7091 37.5771 58.9724C36.9063 60.0585 36.4908 61.4032 36.4908 62.4966C36.4908 63.0212 36.6293 63.5014 36.9063 63.9225C37.1761 64.3363 37.5771 64.7057 38.1021 65.0086C39.1082 65.5923 40.581 65.9543 42.3673 66.0429C41.9371 66.8409 41.332 67.5132 40.6102 67.986C39.8592 68.4884 39.0134 68.7544 38.1604 68.7544C37.3584 68.7544 36.6366 68.6584 35.9512 68.4589L35.8929 68.4441L35.5502 69.2346L35.5867 69.2716C36.5345 70.2025 38.3864 71.2959 38.7583 71.2959H38.7728C40.0779 70.9856 41.2518 70.3355 42.1559 69.4119C43.0308 68.518 43.6724 67.3728 44.0005 66.0873H44.9629C47.6897 66.0873 53.2965 65.644 54.886 64.8165C55.513 65.2007 56.264 65.4593 57.0951 65.6809C59.1876 66.2276 62.1988 66.0651 64.5392 66.0651C66.4276 66.0651 67.3827 64.9199 68.141 62.5483C68.4326 61.6322 68.7024 60.4353 68.7972 60.0585L68.8191 59.9551L68.7097 59.9698L68.7534 59.9625ZM37.8469 62.3341C38.0948 61.4918 38.4156 60.7899 38.7801 60.3097C39.1811 59.7778 39.6113 59.5118 40.0706 59.5118C41.1716 59.5118 42.1267 61.0042 42.6954 63.6122C40.5591 63.531 39.0572 63.132 37.8469 62.3415V62.3341ZM107.177 42.3934L107.148 42.6963H101.599L101.658 42.3934C101.796 41.6693 101.935 41.3886 102.54 41.4181L103.327 41.4699L102.394 38.9062L102.328 38.9209C101.184 39.2091 100.367 39.8518 99.4923 40.5316C98.8215 41.0561 98.1289 41.5955 97.2467 42.0018C96.2478 42.4673 95.1541 42.6889 93.8928 42.6889H71.7136C71.247 42.6889 70.6855 42.4525 70.1169 42.0166C70.0294 42.7554 69.8179 44.3512 69.6575 44.6024C69.1399 45.5112 68.4618 46.2648 67.6306 46.8337C66.9015 47.3361 66.0631 47.6907 65.1298 47.8976H65.1152C64.7288 47.8976 62.8404 46.782 61.9364 45.8732L61.8999 45.8363L62.2134 45.0457L62.279 45.0679C62.9644 45.2674 63.6862 45.3634 64.4882 45.3634C66.4495 45.3634 68.0681 43.9892 68.8118 41.6841C68.2139 40.5389 67.1859 38.9579 66.0631 37.4433L66.0266 37.3916L66.0631 37.3472C66.6901 36.6306 67.3171 36.1356 68.0462 35.7957L68.1118 35.7662C68.6003 36.6232 69.3076 38.7732 70.3356 39.645C70.7439 39.9848 71.1595 40.1548 71.7209 40.1548H93.7543C97.5456 40.1548 97.8445 38.8766 104.341 36.505H104.385C104.764 36.5789 105.128 36.6232 105.493 36.6232H106.586L106.74 36.8153V36.8522C106.506 37.7019 106.331 38.0639 105.938 38.8175L105.916 38.8544H105.208L106.12 41.2999L106.433 41.3886C107.038 41.5807 107.148 41.7802 107.177 42.3934ZM74.8633 58.6548L74.8414 58.7582C74.4258 60.5978 74.1415 61.7504 73.879 62.6148C73.5728 63.6344 73.1426 64.7648 72.2677 65.3854C71.6407 65.8361 70.8095 66.0725 69.8763 66.0725C69.1034 66.0725 68.2722 65.8508 67.4702 65.4371L67.3827 65.3928C67.7983 64.9051 68.1629 64.2476 68.4837 63.3832H68.5274C69.0159 63.4866 69.5044 63.531 69.9565 63.531C70.5616 63.531 71.1157 63.4571 71.6334 63.3019C71.874 62.5114 72.0781 61.6691 72.2969 60.7752C72.4281 60.2506 72.5593 59.7113 72.7052 59.1498V59.1128L72.7489 59.098C73.1572 58.9281 73.828 58.773 74.7539 58.6548L74.856 58.64L74.8633 58.6548ZM94.2573 39.5785L98.5736 28.1342L100.994 27.5875L104.129 35.9804C102.008 36.7562 100.513 37.4285 99.3902 37.9531C98.7851 37.6502 97.9539 37.1478 97.4727 36.8301L98.2747 34.6284C99.1934 35.249 100.345 36.0395 101.49 36.3942L99.259 30.2472L95.9343 39.379C95.4385 39.4972 94.9062 39.5637 94.2646 39.5859L94.2573 39.5785ZM7.99024 62.5853L7.92462 62.6296C7.92462 62.5705 7.92462 62.5188 7.92462 62.4818C7.96837 61.8908 7.99024 61.3219 7.99024 60.7825C9.02556 60.4427 9.81299 59.3566 9.98798 58.9429C10.1994 60.5757 9.08389 61.7652 7.98295 62.5779L7.99024 62.5853ZM45.7066 15.8181L45.641 15.8624C45.641 15.8033 45.641 15.7516 45.641 15.7147C45.6847 15.1236 45.7066 14.5547 45.7066 14.0154C46.7419 13.6755 47.5293 12.5895 47.7043 12.1757C47.9158 13.8085 46.8002 14.998 45.6993 15.8107L45.7066 15.8181ZM185.993 56.0911C185.993 56.4974 185.81 56.7486 185.344 56.889L185.001 56.9481L179.365 71.4806L177.163 70.9635L179.934 66.0799H178.899L175.457 56.9407L175.238 56.8964C174.721 56.7338 174.582 56.4752 174.582 56.0984V55.7955H179.219L179.139 56.128C179.001 56.6747 178.651 56.8077 178.425 56.8077H178.031L180.663 64.4101L183.302 56.8594H182.384L182.464 56.5343C182.544 56.2019 182.683 55.7955 183.251 55.7955H186V56.0984L185.993 56.0911Z" fill="#494343"/>
</svg>
