<svg width="166" height="65" viewBox="0 0 166 65" fill="none" xmlns="http://www.w3.org/2000/svg">
<path d="M100.617 48.763C97.7088 48.763 95.8153 50.7877 95.8153 53.747C95.8153 56.7063 97.6828 58.3222 100.494 58.3222C103.305 58.3222 105.296 56.3493 105.296 53.3122C105.296 50.5152 103.669 48.7565 100.617 48.7565M100.546 57.0892C99.0427 57.0892 98.0732 55.7653 98.0732 53.6237C98.0732 51.3588 98.9972 49.9895 100.598 49.9895C102.199 49.9895 103.045 51.3653 103.045 53.5328C103.045 55.7004 102.101 57.0956 100.546 57.0956M95.0344 56.1092L93.9673 57.6538C93.0433 58.0886 91.9045 58.3287 90.7203 58.3287C86.7184 58.3287 84.2002 55.8951 84.2002 51.8261C84.2002 47.7571 86.9657 44.8627 91.0847 44.8627C92.5162 44.8627 93.5443 45.025 94.5139 45.3365C94.5139 45.3365 94.2731 46.5305 94.2015 46.881C94.1234 47.2314 93.8306 47.7636 93.258 47.7246L93.0303 47.6987V46.6539C92.9912 46.6344 92.9457 46.6214 92.9001 46.6019C92.4186 46.4397 91.7484 46.3553 91.0391 46.3553C88.4233 46.3553 86.6989 48.3801 86.6989 51.56C86.6989 54.7399 88.3973 56.7128 91.3775 56.7128C92.5422 56.7128 93.7786 56.4207 94.8717 55.8691L95.0409 56.1092H95.0344ZM122.455 57.1216L122.409 57.3877C122.286 57.8679 122.214 58.0366 121.707 58.0366H118.642V57.7706C118.642 57.511 118.642 57.3098 119.169 57.0827L119.527 56.9204V52.1311C119.527 50.7553 118.876 50.2491 117.907 50.2491C117.08 50.2491 116.28 50.5152 115.603 50.95C115.649 51.216 115.675 51.5016 115.675 51.8391V57.1605L116.416 57.1151L116.371 57.3812C116.247 57.8614 116.176 58.0302 115.668 58.0302H112.603V57.7641C112.603 57.5045 112.603 57.3033 113.13 57.0762L113.488 56.9139V52.1246C113.488 50.7488 112.838 50.2426 111.868 50.2426C111.068 50.2426 110.293 50.4827 109.636 50.8656V57.1541L110.384 57.1086L110.339 57.3747C110.215 57.8549 110.144 58.0237 109.636 58.0237H106.571V57.7576C106.571 57.498 106.571 57.2968 107.098 57.0697L107.456 56.9074V50.3854L106.578 50.4049V50.1582C106.578 49.704 106.695 49.5677 107.248 49.4119L109.636 48.7954V50.5541L110.482 49.2562C111.113 48.9447 111.79 48.724 112.714 48.724C114.172 48.724 115.161 49.3276 115.525 50.6255L116.397 49.2562C116.976 48.9447 117.855 48.724 118.772 48.724C120.568 48.724 121.707 49.7105 121.707 51.8066V57.1541L122.455 57.1086V57.1216ZM80.3221 58.0172L80.309 58.0302L79.5868 57.9263V57.9004C79.5868 56.9269 79.5477 55.9794 79.5412 55.7069C79.2744 51.242 79.0792 48.7305 78.6693 44.5317V44.5123L78.6823 44.4993C79.3525 44.058 80.0878 43.7725 80.9272 43.6297H80.9597V43.6556C81.168 47.2249 81.246 49.7624 81.3502 54.4479C81.3762 55.7783 81.0183 57.0048 80.3286 58.0042L80.3221 58.0172ZM30.7971 55.2137C30.8296 55.4603 30.4197 56.2131 30.1724 56.6154C29.9902 56.9204 29.795 57.193 29.6324 57.3942C29.4306 57.6408 29.281 57.7641 29.1704 57.79C28.4741 57.9458 27.5826 58.0302 26.7302 58.0302C25.5915 58.0302 24.7456 57.8679 24.1469 57.5369C23.4702 57.1605 23.1253 56.5505 23.1253 55.7263C23.1253 55.2721 23.2034 54.5452 23.5938 53.7016L23.6134 53.6562L24.3552 53.7989L24.3356 53.9222C24.2901 54.1818 24.251 54.4284 24.251 54.6426C24.251 55.0319 24.4723 55.3305 24.9213 55.5252C25.3507 55.7134 25.9754 55.8107 26.7823 55.8107C27.7128 55.8107 28.6888 55.7004 29.3656 55.5187C28.871 54.0974 27.9275 52.1635 26.7042 50.0544L26.6782 50.0155L26.7107 49.983C27.2443 49.3795 27.7063 48.9187 28.37 48.4774L28.4351 48.432L28.4676 48.5034C29.6454 51.0798 30.6019 53.8379 30.7971 55.2201V55.2137ZM19.9499 63.436L19.9889 63.4814L19.9499 63.5204C19.3448 64.2212 18.8567 64.695 18.4598 64.974L18.4208 65L18.3817 64.974C17.8807 64.6366 17.3601 64.1174 16.9111 63.5139L16.8851 63.4749L16.9111 63.436C17.2885 62.9298 17.7701 62.4561 18.3036 62.0537C17.8286 61.7163 17.3341 61.2166 16.9111 60.6455L16.8851 60.6065L16.9111 60.5676C17.3081 60.0354 17.8156 59.5422 18.3817 59.1334L18.4208 59.1009L18.4598 59.1334C19.078 59.6461 19.579 60.1263 19.9499 60.5611L19.9889 60.6065L19.9499 60.6455C19.3708 61.3139 18.9153 61.7617 18.5314 62.0537C19.117 62.5404 19.592 63.0012 19.9499 63.4295V63.436ZM109.532 37.471C108.998 37.7112 108.322 37.7825 107.762 37.7825C105.895 37.7825 105.094 36.8935 105.094 35.0829V29.8782H103.845V29.6381C103.845 29.2033 103.988 29.0086 104.476 28.8918L105.094 28.723L106.669 26.3608H107.274V28.723H109.389V29.8782H107.274V34.7194C107.274 35.9006 107.736 36.2834 108.634 36.2834C109.116 36.2834 109.773 36.1861 110.404 35.8486L110.528 36.0433L109.532 37.4646M124.609 34.9012C124.609 36.6858 123.06 37.7436 120.802 37.7436C119.592 37.7436 118.063 37.5035 117.119 37.0233L117.412 35.1413C117.484 34.5897 117.705 34.4209 118.212 34.4209L118.479 34.4728V36.0174C119.136 36.3548 120.08 36.595 120.809 36.595C122.143 36.595 122.722 36.1601 122.722 35.3879C122.722 34.8817 122.383 34.5183 120.906 34.0121L119.865 33.6487C118.219 33.0711 117.321 32.5909 117.321 31.1177C117.321 29.2876 118.922 28.2039 121.173 28.2039C122.24 28.2039 123.281 28.3986 124.134 28.7101L123.841 30.4233C123.769 30.9555 123.6 31.0982 123.086 31.0982L122.793 31.0528V29.7289C122.305 29.5148 121.726 29.3655 121.193 29.3655C120.08 29.3655 119.201 29.7744 119.201 30.618C119.201 31.2215 119.592 31.4876 120.971 31.9679L121.941 32.3053C123.854 32.9802 124.609 33.6032 124.609 34.9076M146.72 36.582L146.674 36.848C146.551 37.3283 146.479 37.497 145.971 37.497H142.907V37.2309C142.907 36.9713 142.907 36.7702 143.434 36.543L143.792 36.3808V31.5915C143.792 30.2157 143.089 29.7095 141.996 29.7095C141.169 29.7095 140.369 29.9496 139.692 30.3325V36.6209L140.427 36.5755L140.382 36.8416C140.258 37.3218 140.187 37.4905 139.679 37.4905H136.614V37.2244C136.614 36.9649 136.614 36.7637 137.141 36.5365L137.499 36.3743V29.8522L136.621 29.8717V29.6251C136.621 29.1708 136.738 29.0345 137.291 28.8788L139.692 28.2558V29.9885L140.538 28.6906C141.215 28.3986 141.97 28.1844 142.894 28.1844C144.833 28.1844 145.971 29.1708 145.971 31.2929V36.6209L146.72 36.5755V36.582ZM102.784 30.0534C101.789 30.0534 100.65 30.2221 99.9733 30.5336V36.6274L100.722 36.582L100.676 36.848C100.552 37.3283 100.481 37.497 99.9733 37.497H96.9084V37.2309C96.9084 36.9713 96.9084 36.7702 97.4355 36.543L97.7934 36.3808V29.8587L96.9149 29.8782V29.6316C96.9149 29.1773 97.0321 29.041 97.5852 28.8853L99.9733 28.2688V30.2221L100.748 28.8528C101.158 28.4894 102.082 28.2298 102.784 28.2298V30.0599M94.8457 13.3427C94.8457 15.6854 92.9522 17.2494 89.7442 17.2494C88.189 17.2494 86.0743 16.886 84.7924 16.1851L85.1307 14.8093C85.2934 14.1603 85.4691 13.9137 86.0547 13.8943L86.341 13.9202V15.004C87.4342 15.5361 88.7486 15.8217 89.7442 15.8217C91.5662 15.8217 92.4902 15.004 92.4902 13.8943C92.4902 13.0247 92.0802 12.5899 90.447 11.9149L88.5014 11.1167C86.3671 10.2471 85.2479 9.57218 85.2479 7.6902C85.2479 5.10733 87.3822 3.75749 90.2518 3.75749C91.5662 3.75749 93.0238 3.92622 94.3577 4.38698C94.3577 4.38698 94.1169 5.51617 94.0453 5.8731C93.9673 6.22354 93.6679 6.75569 93.0953 6.71675L92.8676 6.69079V5.63948C92.1128 5.32797 91.1302 5.15925 90.2778 5.15925C88.651 5.15925 87.5058 5.78874 87.5058 7.01528C87.5058 7.85893 87.9678 8.29373 89.6401 8.96865L91.7744 9.83826C94.156 10.7793 94.8327 11.6489 94.8327 13.3362M106.604 9.33207V9.07248C106.604 8.61172 106.786 8.47544 107.209 8.35214L109.649 7.74211V13.8488C109.649 15.2246 110.424 15.7049 111.497 15.7049C112.252 15.7049 113.078 15.5361 113.71 15.1533V9.33856L112.831 9.35803V9.11142C112.831 8.65066 112.948 8.52087 113.508 8.36512L115.896 7.7486V15.6854H116.781V16.1202C116.781 16.555 116.495 16.6588 115.681 16.8211L113.697 17.2105L113.71 15.4907L112.857 16.7237C112.252 17.0158 111.426 17.2559 110.528 17.2559C108.68 17.2559 107.469 16.2435 107.469 14.1409V9.33856H106.61L106.604 9.33207ZM131.051 6.53504L129.424 4.94509L131.051 3.32917L132.632 4.94509L131.051 6.53504ZM133.061 16.0423L133.016 16.3084C132.892 16.7886 132.821 16.9574 132.313 16.9574H129.248V16.6913C129.248 16.4317 129.248 16.2305 129.775 15.9969L130.133 15.8347V9.30611L129.255 9.32558V9.07897C129.255 8.61821 129.372 8.48842 129.932 8.33267L132.326 7.71615V16.0878L133.074 16.0423H133.061ZM162.005 36.582L161.959 36.848C161.836 37.3283 161.764 37.497 161.256 37.497H158.192V37.2309C158.192 36.9713 158.192 36.7702 158.719 36.5365L159.077 36.3743V25.4393L158.198 25.4588V25.2122C158.198 24.7514 158.315 24.6216 158.875 24.4659L161.269 23.8493V36.6274L162.018 36.582H162.005ZM113.482 27.0747L111.855 25.4847L113.482 23.8688L115.063 25.4847L113.482 27.0747ZM115.493 36.582L115.447 36.848C115.323 37.3283 115.252 37.497 114.744 37.497H111.679V37.2309C111.679 36.9713 111.679 36.7702 112.206 36.5365L112.564 36.3743V29.8457L111.686 29.8652V29.6186C111.686 29.1579 111.803 29.0281 112.363 28.8723L114.757 28.2558V36.6274L115.506 36.582H115.493ZM155.374 57.1216L155.328 57.3877C155.205 57.8679 155.133 58.0366 154.626 58.0366H151.561V57.7706C151.561 57.511 151.561 57.3098 152.088 57.0827L152.446 56.9204V52.1311C152.446 50.7553 151.743 50.2491 150.65 50.2491C149.824 50.2491 149.023 50.4892 148.346 50.8721V57.1605L149.082 57.1151L149.036 57.3812C148.913 57.8614 148.841 58.0302 148.333 58.0302H145.269V57.7641C145.269 57.5045 145.269 57.3033 145.796 57.0762L146.154 56.9139V50.3919L145.275 50.4113V50.1647C145.275 49.7105 145.392 49.5742 145.945 49.4184L148.346 48.7954V50.5282L149.192 49.2302C149.869 48.9382 150.624 48.724 151.548 48.724C153.487 48.724 154.626 49.7105 154.626 51.8326V57.1605L155.374 57.1151V57.1216ZM71.5441 14.1603C71.2578 14.9456 70.9259 15.8412 70.1776 16.3863C69.5009 16.8276 65.9611 16.9509 65.2843 16.9509H63.5925C63.2606 16.9509 63.137 16.8146 62.9613 16.6264C62.8897 16.5485 62.8052 16.4577 62.6945 16.3603C62.6164 16.9898 62.4277 18.4046 62.2846 18.6252C61.8226 19.4234 61.2174 20.0854 60.4756 20.5851C59.8249 21.0264 59.0766 21.3379 58.2437 21.5196H58.2307C57.8858 21.5196 56.2005 20.5396 55.3937 19.7414L55.3611 19.709L55.6409 19.0146L55.6995 19.034C56.3111 19.2093 56.9553 19.2936 57.6711 19.2936C59.4215 19.2936 60.8661 18.0866 61.5298 16.0618C60.9962 15.0559 60.0787 13.6671 59.0766 12.3368L59.0441 12.2913L59.0766 12.2524C59.6297 11.6229 60.1958 11.1881 60.8465 10.8896L60.9051 10.8636C61.1979 11.3568 62.0438 13.5373 62.8897 14.2707C63.2476 14.5822 63.625 14.7185 64.1261 14.7185H65.1802C65.1802 14.7185 68.7135 14.6665 69.6831 14.4848C69.9238 13.6671 70.0475 13.1869 70.2427 12.4601C70.2752 12.3303 70.3143 12.194 70.3533 12.0382V12.0058L70.3923 11.9928C70.8608 11.7981 71.6222 11.6489 72.1818 11.5775L72.2729 11.5645L72.2533 11.6554C72.0516 12.5509 71.8564 13.2778 71.6547 13.8813L71.5636 14.1344L71.5441 14.1603ZM77.6151 10.4353L77.5956 10.5262C77.2312 12.0966 76.9254 13.3686 76.6261 14.2642C76.2812 15.2895 75.8257 15.9904 75.2271 16.4058C74.674 16.7692 73.9647 16.9574 73.1708 16.9574C72.4811 16.9574 71.7393 16.7627 71.0235 16.3993L70.965 16.3668C71.44 15.8412 71.7133 15.1987 71.941 14.5887H71.98C72.4095 14.686 72.839 14.7314 73.2489 14.7314C73.7955 14.7314 74.2835 14.6665 74.7455 14.5303C74.9603 13.8294 75.1425 13.0831 75.3442 12.2978C75.4548 11.8435 75.5784 11.3763 75.7086 10.8831V10.8506L75.7476 10.8377C76.112 10.6819 76.7172 10.5521 77.537 10.4483L77.6281 10.4353H77.6151ZM77.8234 5.7498L77.8689 5.71086L77.9145 5.7498C78.6237 6.37929 79.0857 6.82059 79.3785 7.22943L79.4046 7.26837L79.3785 7.30731C79.1833 7.60583 78.8124 8.08606 77.9079 8.79343L77.8689 8.82588L77.8299 8.79343C77.2312 8.32618 76.7562 7.83946 76.3853 7.30731L76.3593 7.26837L76.3918 7.22943C76.9124 6.63239 77.3939 6.13918 77.8299 5.75629L77.8234 5.7498ZM73.2554 7.30731L73.2294 7.26837L73.2619 7.22943C73.7825 6.63888 74.264 6.13918 74.7 5.75629L74.7455 5.71735L74.7911 5.75629C75.5004 6.38578 75.9623 6.82708 76.2552 7.23592L76.2812 7.27486L76.2552 7.3138C76.06 7.61232 75.6891 8.09255 74.7846 8.79992L74.7455 8.83237L74.7065 8.79992C74.1078 8.33267 73.6328 7.84595 73.2619 7.3138L73.2554 7.30731ZM75.0709 4.73093L75.0384 4.6855L75.1099 4.60763C75.5329 4.14038 75.9363 3.69908 76.3137 3.36811L76.3528 3.32917L76.3983 3.36811C77.0295 3.89377 77.4329 4.30262 77.6737 4.65954L77.6997 4.69848L77.6737 4.73742C77.3744 5.19169 76.9579 5.60703 76.3983 6.00939L76.3593 6.03534L76.3202 6.0029C75.7802 5.58107 75.3702 5.16573 75.0709 4.73742V4.73093ZM82.4368 14.66C82.4368 14.9002 82.092 15.5816 81.7731 16.1137C81.5193 16.542 81.0508 17.2559 80.7906 17.2559C79.385 17.2559 77.6086 16.8406 76.2682 16.1916L76.2096 16.1656C76.5675 15.7179 76.8603 15.1468 77.0946 14.4394C77.1011 14.4199 77.1076 14.4005 77.1141 14.3745L77.1596 14.3875C78.3439 14.7444 79.6974 14.978 80.8947 15.03C80.5368 13.7385 80.0097 12.0253 79.4046 10.0524L79.3525 9.89018L79.3915 9.86422C79.9707 9.45537 80.5953 9.16334 81.4217 8.91673L81.4933 8.89726L81.5063 8.96865C82.0529 11.6164 82.3783 13.6347 82.4303 14.6665L82.4368 14.66ZM20.8609 52.8514C21.0301 53.6042 21.1602 54.3895 21.2448 55.2007C21.2773 55.5057 20.5551 56.9529 19.8523 57.6538C19.7677 57.7381 19.6701 57.7706 19.592 57.79C18.7786 57.9653 18.3947 58.0431 16.7354 58.0431H8.99859C7.95096 58.0431 7.09854 57.9523 6.46085 57.7771C6.23311 57.7187 5.90776 57.2709 5.667 56.9074C4.93821 55.7263 4.78855 54.5777 4.76903 54.2986C4.76903 54.2986 4.58032 52.1181 4.50875 51.3394C3.71489 51.7742 3.11624 52.157 2.62822 52.527C2.0556 52.9618 1.62614 53.3966 1.32681 53.8573C1.84737 54.6296 2.86247 55.0709 4.11182 55.0709C4.17689 55.0709 4.38511 55.0644 4.38511 55.0644L4.39813 55.1163C4.51525 55.6095 4.68444 56.0898 4.90567 56.5505L4.9317 56.6024L4.88615 56.6349C4.54128 56.875 4.20292 57.0827 3.85804 57.2644H3.84503L3.83202 57.2709C2.19875 57.2709 0.571999 56.531 0.0384229 55.5511C-0.117746 55.2072 0.233633 53.3252 0.526449 52.9293C1.25524 51.8196 2.68027 50.5995 4.33956 49.6521L4.26799 48.8603L4.30052 48.8409C4.93821 48.4125 5.51083 48.114 6.4088 47.9648L6.48037 47.9518V48.0296C6.4999 48.6851 6.57798 51.3523 6.60401 52.1051C6.63003 52.8969 6.64305 53.8443 6.56497 54.8567C6.55195 55.0255 6.52592 55.3435 6.72113 55.5576C6.8773 55.7393 7.17662 55.8107 7.73623 55.8172C7.81431 55.8172 16.7419 55.8172 16.7419 55.8172C18.6095 55.8172 18.9348 55.7328 19.7287 55.5252C19.7612 55.5187 19.7872 55.5122 19.8198 55.4992C19.5204 54.2467 18.9673 52.5399 18.2581 50.6774L18.2451 50.6385L18.2776 50.606C18.7461 50.1842 19.2927 49.8532 19.8523 49.6521L19.9044 49.6326L19.9304 49.678C20.464 50.5736 20.8804 51.229 21.2838 51.7936L21.3034 51.8261L21.2838 51.8585C21.1407 52.1376 20.9975 52.4945 20.8609 52.8385V52.8514ZM5.09438 44.032C4.78855 43.8244 4.32655 43.448 3.67585 42.6238L3.64331 42.5849L3.67585 42.5459C4.14435 41.9489 4.63238 41.4816 5.17246 41.1117L5.2115 41.0858L5.25055 41.1182C5.84919 41.6374 6.35023 42.1176 6.73415 42.5459L6.77319 42.5914L6.73415 42.6368C6.1355 43.2987 5.70604 43.753 5.30911 44.045C5.88173 44.5382 6.35674 45.0055 6.73415 45.4208L6.77319 45.4663L6.73415 45.5117C6.10297 46.2126 5.65398 46.6798 5.24404 46.9654L5.205 46.9913L5.16596 46.9654C4.86663 46.7707 4.37861 46.4072 3.66934 45.5052L3.63681 45.4663L3.66934 45.4273C4.11833 44.8627 4.58032 44.4084 5.08787 44.045L5.09438 44.032ZM57.1505 13.9786C57.1505 14.1928 56.8187 14.8418 56.5129 15.3544C56.3177 15.6854 55.8231 16.4642 55.5563 16.5485C54.6453 16.8276 52.433 16.9639 48.789 16.9639H42.6724C41.6248 16.9639 40.7724 16.873 40.1347 16.6978C39.9069 16.6394 39.5816 16.1916 39.3408 15.8282C38.612 14.6471 38.4624 13.4984 38.4429 13.2193C38.4429 13.2193 38.2542 11.0388 38.1826 10.2601C37.3887 10.6949 36.7901 11.0778 36.3021 11.4477C35.7294 11.8825 35.3 12.3173 35.0006 12.7781C35.5212 13.5503 36.5363 13.9916 37.7857 13.9916C37.8507 13.9916 38.0589 13.9851 38.0589 13.9851L38.072 14.037C38.1891 14.5303 38.3583 15.0105 38.5795 15.4712L38.6055 15.5232L38.56 15.5556C38.2151 15.7957 37.8768 16.0034 37.5319 16.1851H37.5189L37.5059 16.1916C35.8726 16.1916 34.2458 15.4518 33.7123 14.4718C33.5561 14.1279 33.9075 12.2459 34.2003 11.85C34.9291 10.7403 36.3541 9.52027 38.0134 8.57278L37.9418 7.78105L37.9744 7.76158C38.612 7.33327 39.1847 7.03474 40.0826 6.88548L40.1542 6.8725V6.95038C40.1737 7.60583 40.2518 10.2731 40.2778 11.0259C40.3039 11.8176 40.3169 12.7651 40.2388 13.7775C40.2258 13.9462 40.1998 14.2642 40.395 14.4783C40.5511 14.66 40.8505 14.7314 41.4101 14.7379C41.4686 14.7379 48.7955 14.7379 48.7955 14.7379C51.971 14.7379 54.2094 14.5951 55.6409 14.2966C54.8731 12.7781 53.3439 11.2141 51.7042 10.299L51.1901 10.4937L49.2445 9.13089V9.09844C49.1925 8.42352 49.4527 6.83357 49.7521 6.58696C51.4309 5.36042 53.9881 3.72504 56.7666 2.10264L56.8057 2.07668L57.0399 2.27786L56.591 4.77636L51.3072 7.72264C53.435 8.89077 54.795 10.1562 55.5628 11.0194C56.5519 12.1291 57.131 13.2064 57.1571 13.9851L57.1505 13.9786ZM38.7617 2.94629C38.4559 2.73862 37.9939 2.36222 37.3432 1.53804L37.3106 1.4991L37.3432 1.46016C37.8117 0.863119 38.2997 0.395867 38.8398 0.0259585L38.8788 0L38.9179 0.0324481C39.5165 0.551617 40.0176 1.03185 40.4015 1.46016L40.4405 1.50559L40.4015 1.55102C39.8028 2.21296 39.3734 2.66723 38.9764 2.95927C39.5491 3.45248 40.0241 3.91973 40.4015 4.33506L40.4405 4.38049L40.4015 4.42592C39.7703 5.1268 39.3213 5.59405 38.9114 5.87959L38.8723 5.90555L38.8333 5.87959C38.534 5.6849 38.0459 5.32149 37.3367 4.41943L37.3041 4.38049L37.3367 4.34155C37.7857 3.77696 38.2477 3.32268 38.7552 2.95927L38.7617 2.94629ZM50.4353 24.7514L50.4028 24.706L50.5069 24.5892C50.9819 24.07 51.4309 23.5833 51.8734 23.1939L51.9189 23.155L51.9645 23.1939C52.6997 23.8493 53.1683 24.2712 53.4285 24.6735L53.4546 24.706L53.4285 24.7384C53.0902 25.2511 52.6087 25.7378 51.9579 26.2245L51.9189 26.257L51.8799 26.2245C51.2812 25.7573 50.8062 25.2706 50.4353 24.7384V24.7514ZM55.3481 34.7389C55.3026 34.9531 55.0162 35.5436 54.6714 36.1082C54.3786 36.595 53.9816 37.179 53.7539 37.2244C53.0316 37.4062 50.9298 37.4905 47.338 37.4905C47.338 37.4905 8.12014 37.4905 8.10062 37.4905C7.67116 37.4905 7.20265 37.3477 6.76018 37.0817C6.1355 36.7118 5.51733 35.9914 4.9317 35.1348L4.90567 35.0958L5.40671 34.4793L5.45226 34.5053C6.10297 34.8233 6.7862 35.0504 7.49547 35.1672C7.92493 35.2386 8.36741 35.2711 8.79687 35.2646C8.79687 35.2646 45.6071 35.2776 47.0386 35.2776C47.5071 35.2776 51.7237 35.1867 53.9231 35.1283C54.2224 32.6363 53.2984 30.8257 52.947 30.313C52.5631 29.7484 52.1271 29.4564 51.6781 29.4564C51.2877 29.4564 50.8843 29.703 50.5199 30.1637C50.1815 30.5921 49.9082 31.1761 49.7391 31.8186C50.6696 32.3897 51.6781 32.6817 53.3179 32.8375H53.3504C53.4546 33.428 53.4936 34.0251 53.4546 34.6351C53.4416 34.6351 53.4285 34.6351 53.4155 34.6351C51.587 34.5312 50.3702 34.2068 49.648 33.7914C48.8996 33.3631 48.5353 32.7661 48.5353 31.9679C48.5353 31.0204 48.8996 29.8652 49.4853 28.9437C50.1685 27.8859 51.0274 27.3018 51.9189 27.3018C52.8104 27.3018 53.5457 27.7561 54.1508 28.6257C54.7234 29.4499 55.6019 31.2994 55.3481 34.7454V34.7389ZM55.8947 34.1354C55.9142 33.5967 55.9077 33.0841 55.8752 32.5844C56.7927 32.2858 57.4889 31.3384 57.6451 30.9749C57.8338 32.3897 56.8642 33.4215 55.8947 34.1354ZM84.415 31.2605C83.8293 31.2605 83.2307 31.5071 82.5084 31.877L82.4629 31.903L81.9879 31.3189L82.0204 31.28C83.0355 29.9301 84.1287 29.1578 85.0071 29.1578C85.1828 29.1578 85.365 29.1838 85.5602 29.2357L85.6773 29.2682L84.89 31.3319L84.7859 31.3124C84.6492 31.2864 84.5321 31.2735 84.4215 31.2735L84.415 31.2605ZM105.062 15.7049V15.8476C105.062 16.3538 104.736 16.6848 104.099 16.8146L102.283 17.178C102.16 16.7951 102.042 16.237 101.99 15.6335L101.021 16.886C100.585 17.1261 100.025 17.2494 99.2705 17.2494C97.377 17.2494 96.2577 16.2824 96.2577 14.7185C96.2577 13.9721 96.5506 13.1999 97.0321 12.5444L101.366 11.902L101.47 11.8825V13.2193H98.5807C98.4376 13.6022 98.3595 13.9657 98.3595 14.3031C98.3595 15.2441 98.9191 15.8736 100.058 15.8736C100.813 15.8736 101.418 15.6789 101.977 15.3415V10.9999C101.977 9.67602 101.203 9.1893 100.032 9.1893C99.1339 9.1893 98.0667 9.40994 96.8499 9.91613L96.7067 9.72145L97.7283 8.13149C98.6784 7.81999 99.7715 7.67073 100.741 7.67073C102.856 7.67073 104.164 8.58576 104.164 10.8571V15.7049H105.062ZM104.691 11.3698C105.621 11.0778 106.324 10.1173 106.48 9.75389C106.669 11.1881 105.673 12.2264 104.691 12.9468V11.3698ZM134.727 36.2445V36.3873C134.727 36.8935 134.402 37.2244 133.764 37.3542L131.949 37.7177C131.825 37.3348 131.708 36.7767 131.656 36.1731L130.686 37.4256C130.25 37.6657 129.691 37.789 128.936 37.789C127.042 37.789 125.923 36.8221 125.923 35.2581C125.923 34.5118 126.216 33.7395 126.698 33.0841L131.031 32.4416L131.135 32.4221V33.759H128.246C128.103 34.1419 128.025 34.5053 128.025 34.8428C128.025 35.7837 128.585 36.4132 129.723 36.4132C130.478 36.4132 131.083 36.2186 131.643 35.8811V31.5395C131.643 30.2157 130.869 29.7289 129.697 29.7289C128.799 29.7289 127.732 29.9496 126.515 30.4558L126.372 30.2611L127.394 28.6711C128.344 28.3596 129.437 28.2104 130.407 28.2104C132.521 28.2104 133.829 29.1254 133.829 31.3968V36.2445H134.727ZM134.356 31.9094C135.287 31.6174 135.99 30.6569 136.146 30.2935C136.334 31.7277 135.339 32.7661 134.356 33.4864V31.9094ZM143.369 56.7841V56.9269C143.369 57.4331 143.043 57.7641 142.406 57.8939L140.59 58.2573C140.466 57.8744 140.349 57.3163 140.297 56.7128L139.328 57.9653C138.892 58.2054 138.332 58.3287 137.577 58.3287C135.684 58.3287 134.565 57.3617 134.565 55.7977C134.565 55.0514 134.857 54.2792 135.339 53.6237L139.673 52.9812L139.777 52.9618V54.2986H136.888C136.744 54.6815 136.666 55.0449 136.666 55.3824C136.666 56.3234 137.226 56.9529 138.365 56.9529C139.119 56.9529 139.725 56.7582 140.284 56.4207V52.0792C140.284 50.7553 139.51 50.2686 138.339 50.2686C137.441 50.2686 136.374 50.4892 135.157 50.9954L135.014 50.8007L136.035 49.2108C136.985 48.8993 138.078 48.75 139.048 48.75C141.163 48.75 142.471 49.665 142.471 51.9364V56.7841H143.369ZM142.998 52.4491C143.928 52.157 144.631 51.1966 144.787 50.8332C144.976 52.2674 143.98 53.3057 142.998 54.0261V52.4491ZM156.558 36.2445V36.3873C156.558 36.8935 156.233 37.2244 155.595 37.3542L153.78 37.7177C153.656 37.3348 153.539 36.7767 153.487 36.1731L152.517 37.4256C152.081 37.6657 151.522 37.789 150.767 37.789C148.874 37.789 147.754 36.8221 147.754 35.2581C147.754 34.5118 148.047 33.7395 148.529 33.0841L152.862 32.4416L152.966 32.4221V33.759H150.077C149.934 34.1419 149.856 34.5053 149.856 34.8428C149.856 35.7837 150.416 36.4132 151.554 36.4132C152.309 36.4132 152.914 36.2186 153.474 35.8811V31.5395C153.474 30.2157 152.7 29.7289 151.528 29.7289C150.63 29.7289 149.563 29.9496 148.346 30.4558L148.203 30.2611L149.225 28.6711C150.175 28.3596 151.268 28.2104 152.238 28.2104C154.352 28.2104 155.66 29.1254 155.66 31.3968V36.2445H156.558ZM156.187 31.9094C157.118 31.6174 157.821 30.6569 157.977 30.2935C158.166 31.7277 157.17 32.7661 156.187 33.4864V31.9094ZM127.075 12.5379C128.006 12.2459 128.708 11.2854 128.864 10.922C129.053 12.3562 128.058 13.4011 127.075 14.1149V12.5379ZM127.446 16.1137C127.446 16.5485 127.121 16.7108 126.301 16.8341L124.368 17.1261V9.40345C124.14 9.27366 123.535 8.96865 122.741 8.96865C121.017 8.96865 119.995 10.2082 119.995 12.7067C119.995 14.4783 120.893 15.7243 122.449 15.7243C122.858 15.7243 123.307 15.6205 123.75 15.4323L123.854 15.3869V16.7951L123.75 16.8406C123.301 17.0288 122.592 17.2429 121.648 17.2429C119.169 17.2429 117.737 15.5816 117.737 12.9468C117.737 9.71496 119.488 7.66424 122.501 7.63828C123.132 7.63828 123.763 7.70966 124.368 7.90435V4.86721L123.503 4.88668V4.64008C123.503 4.17931 123.62 4.04952 124.179 3.89377L126.561 3.27726V15.6724H127.446V16.1137ZM133.133 53.0331C133.133 56.239 131.409 58.3092 128.402 58.3352C127.953 58.3352 127.53 58.2962 127.114 58.2248L126.997 58.1924V56.8036L127.108 56.8425C127.426 56.9464 127.771 57.0113 128.129 57.0113C129.873 57.0113 130.869 55.7588 130.869 53.2798C130.869 51.4951 129.997 50.2686 128.422 50.2686C127.817 50.2686 127.088 50.4633 126.483 50.9435V61.7617L127.778 61.6643L127.706 61.9758C127.583 62.4561 127.511 62.6248 127.003 62.6248H123.418V62.3587C123.418 62.0991 123.418 61.898 123.945 61.6708L124.303 61.5086L124.29 50.4178L123.425 50.4373V50.1907C123.425 49.7364 123.542 49.6001 124.095 49.4444L126.483 48.8279V50.632L127.257 49.2627C127.739 48.9512 128.448 48.7565 129.242 48.7565C131.715 48.7565 133.12 50.4178 133.12 53.0461L133.133 53.0331ZM77.4785 45.3494C77.2638 45.5896 77.0035 45.9011 76.7172 46.2904C76.7302 46.6993 76.7367 47.1081 76.7497 47.5105C76.8148 49.9506 76.8733 52.2609 76.9124 55.2072C76.9124 55.4278 76.5805 56.0833 76.2747 56.6024C76.073 56.9399 75.6175 57.6797 75.3507 57.7641C75.2531 57.7965 74.5959 58.0431 73.0602 58.0431C72.2013 58.0431 71.4725 57.7965 70.8934 57.3033L70.8608 57.2774C71.3554 56.5895 71.7133 55.8626 71.902 55.4408L71.954 55.4862C72.2078 55.7134 72.5592 55.8172 73.0602 55.8172C74.2315 55.8172 74.6479 55.7069 75.3962 55.5122L75.4548 55.4992C75.3442 53.9677 75.2531 52.5983 75.1685 51.268C75.0514 49.4379 74.9342 47.7052 74.7846 45.7907C74.6284 45.5636 74.4853 45.343 74.3356 45.1028C74.277 45.0185 74.225 44.9276 74.1664 44.8368L74.1404 44.7978L74.1664 44.7589C74.5308 44.2462 75.0644 43.6621 75.611 43.2079L75.6305 43.1949H76.0534L77.5305 45.3105L77.498 45.3494H77.4785ZM71.5701 54.8892C71.5701 54.8892 70.9454 56.5375 69.8978 57.6278C69.8002 57.7316 69.6961 57.803 69.631 57.8225C69.2471 57.9717 68.6094 58.0431 67.6919 58.0431C66.8916 58.0431 66.1107 57.8614 65.3038 57.485L65.2388 57.4591C65.7203 56.9464 66.0261 56.2909 66.2539 55.642H66.2929C66.794 55.7653 67.308 55.8172 67.8546 55.8172C68.5118 55.8172 69.169 55.7588 69.7546 55.642C69.6505 55.3305 69.5594 54.967 69.4879 54.5712C69.3317 53.6302 69.1495 52.2674 69.0974 51.2615V51.2225L69.13 51.2031C69.8392 50.8397 70.6006 50.6709 71.1146 50.5931L71.1862 50.5801V50.6515C71.2317 54.344 71.5506 54.8827 71.5506 54.8827L71.5701 54.8892ZM61.3606 52.6697C60.801 52.7411 60.0397 52.8904 59.5712 53.0851L59.5386 53.098V53.1305C59.4931 53.2798 59.454 53.416 59.4215 53.5393C59.2263 54.2921 59.1027 54.7529 58.8619 55.5706C58.1917 55.7004 54.8926 55.8237 53.9361 55.8237C52.4785 55.8237 51.509 55.7263 50.7737 55.6095C51.3853 55.006 51.8864 54.3051 52.2182 53.5848C52.5436 52.8904 52.7128 52.1895 52.7128 51.5535C52.7128 50.8461 52.3744 50.2426 51.7302 49.8078C51.0925 49.3795 50.2141 49.1524 49.1794 49.1524C47.9171 49.1524 46.7979 49.3925 45.4184 49.9506H45.3989L45.3859 49.97C44.8783 50.6515 44.3968 51.6379 44.2146 52.0273L44.1951 52.0727L44.7221 52.5399C44.7221 52.5399 46.9475 51.3718 49.0753 51.3718C49.8822 51.3718 50.6305 51.4886 51.4179 51.7352C51.0535 52.9942 50.3052 54.0455 49.1274 54.9541C48.3205 54.2272 47.6568 53.3252 47.0972 52.209L47.0842 52.183C46.4725 52.3517 45.9389 52.5594 45.555 52.7216L45.5811 52.7671C46.1277 53.8638 46.7393 54.7983 47.3965 55.5446C46.2448 55.6939 42.0673 55.8107 40.1412 55.8107H39.4905C39.4319 54.2402 39.0806 52.806 38.4819 51.7742C38.1761 51.242 37.8117 50.8202 37.4017 50.5346C36.9723 50.2296 36.5038 50.0804 36.0027 50.0804C35.1048 50.0804 34.2263 50.6904 33.5366 51.8001C32.9379 52.7541 32.567 53.9352 32.567 54.8957C32.567 55.3564 32.6907 55.7783 32.9379 56.1482C33.1787 56.5116 33.5366 56.8361 34.0051 57.1021C34.903 57.6148 36.2175 57.9328 37.8117 58.0107C37.4278 58.7116 36.8877 59.3021 36.2435 59.7174C35.5733 60.1587 34.8185 60.3924 34.0571 60.3924C33.3414 60.3924 32.6972 60.308 32.0855 60.1328L32.0334 60.1198L31.7276 60.8142L31.7602 60.8466C32.6061 61.6643 34.2588 62.6248 34.5907 62.6248H34.6037C35.7685 62.3522 36.8161 61.7811 37.623 60.9699C38.4038 60.1847 38.9764 59.1788 39.2693 58.0496H40.1282C42.5618 58.0496 47.5657 57.6602 48.9842 56.9334C49.5438 57.2709 50.2141 57.498 50.9559 57.6927C52.8234 58.1729 55.5108 58.0302 57.5995 58.0302C59.2849 58.0302 60.1373 57.0243 60.814 54.9411C61.0743 54.1364 61.315 53.0851 61.3996 52.7541L61.4192 52.6632L61.3216 52.6762L61.3606 52.6697ZM33.7773 54.7529C33.9986 54.0131 34.2849 53.3966 34.6102 52.9747C34.9681 52.5075 35.352 52.2739 35.762 52.2739C36.7445 52.2739 37.597 53.5848 38.1045 55.8756C36.1979 55.8042 34.8575 55.4538 33.7773 54.7594V54.7529ZM95.6526 37.2374L95.6266 37.5035H90.6747L90.7268 37.2374C90.8504 36.6014 90.974 36.3548 91.5141 36.3808L92.2169 36.4262L91.384 34.1743L91.3254 34.1873C90.3038 34.4404 89.575 35.005 88.7942 35.602C88.1955 36.0628 87.5774 36.5365 86.79 36.8935C85.8986 37.3023 84.9225 37.497 83.7968 37.497H64.0024C63.586 37.497 63.085 37.2893 62.5774 36.9065C62.4993 37.5554 62.3106 38.9572 62.1675 39.1778C61.7055 39.976 61.1003 40.638 60.3585 41.1377C59.7078 41.579 58.9595 41.8905 58.1266 42.0722H58.1136C57.7687 42.0722 56.0834 41.0923 55.2765 40.294L55.244 40.2616L55.5238 39.5672L55.5824 39.5867C56.194 39.7619 56.8382 39.8462 57.554 39.8462C59.3044 39.8462 60.7489 38.6392 61.4126 36.6144C60.8791 35.6085 59.9616 34.2197 58.9595 32.8894L58.927 32.8439L58.9595 32.805C59.5191 32.1755 60.0787 31.7407 60.7294 31.4422L60.788 31.4162C61.2239 32.169 61.8551 34.0575 62.7726 34.8233C63.137 35.1218 63.5079 35.2711 64.0089 35.2711H83.6732C87.0568 35.2711 87.3236 34.1484 93.1214 32.0652H93.1604C93.4988 32.1301 93.8241 32.169 94.1495 32.169H95.1255L95.2622 32.3378V32.3702C95.0539 33.1165 94.8978 33.4345 94.5464 34.0964L94.5269 34.1289H93.8957L94.7091 36.277L94.9889 36.3548C95.529 36.5236 95.6266 36.6988 95.6526 37.2374ZM66.8135 51.5211L66.794 51.6119C66.4231 53.2278 66.1693 54.2402 65.935 54.9995C65.6617 55.8951 65.2778 56.888 64.497 57.4331C63.9374 57.829 63.1956 58.0366 62.3627 58.0366C61.6729 58.0366 60.9311 57.842 60.2154 57.4785L60.1373 57.4396C60.5082 57.0113 60.8335 56.4337 61.1198 55.6744H61.1589C61.5948 55.7653 62.0308 55.8042 62.4342 55.8042C62.9743 55.8042 63.4689 55.7393 63.9309 55.603C64.1456 54.9086 64.3278 54.1688 64.523 53.3836C64.6401 52.9228 64.7573 52.4491 64.8874 51.9559V51.9234L64.9264 51.9104C65.2908 51.7612 65.8895 51.6249 66.7159 51.5211L66.807 51.5081L66.8135 51.5211ZM84.1221 34.7649L87.9743 24.7125L90.1346 24.2322L92.9327 31.6044C91.0391 32.2858 89.7052 32.8764 88.7031 33.3372C88.163 33.0711 87.4212 32.6298 86.9917 32.3507L87.7075 30.4168C88.5274 30.962 89.5555 31.6564 90.5771 31.9679L88.586 26.5685L85.6188 34.5897C85.1763 34.6935 84.7013 34.7519 84.1287 34.7714L84.1221 34.7649ZM7.13108 54.9735L7.07251 55.0125C7.07251 54.9606 7.07251 54.9151 7.07251 54.8827C7.11155 54.3635 7.13108 53.8638 7.13108 53.3901C8.05507 53.0916 8.75783 52.1376 8.914 51.7742C9.1027 53.2084 8.10713 54.2532 7.12457 54.9671L7.13108 54.9735ZM40.7919 13.8943L40.7333 13.9332C40.7333 13.8813 40.7333 13.8359 40.7333 13.8034C40.7724 13.2842 40.7919 12.7845 40.7919 12.3108C41.7159 12.0123 42.4187 11.0583 42.5748 10.6949C42.7635 12.1291 41.7679 13.1739 40.7854 13.8878L40.7919 13.8943ZM165.993 49.2692C165.993 49.6261 165.831 49.8467 165.414 49.97L165.109 50.022L160.079 62.787L158.113 62.3328L160.586 58.0431H159.662L156.591 50.0155L156.396 49.9765C155.934 49.8338 155.81 49.6066 155.81 49.2757V49.0096H159.948L159.877 49.3016C159.753 49.7818 159.441 49.8987 159.239 49.8987H158.888L161.237 56.5765L163.592 49.9441H162.773L162.844 49.6585C162.916 49.3665 163.039 49.0096 163.547 49.0096H166V49.2757L165.993 49.2692Z" fill="#F4F3E5"/>
</svg>
