<svg width="67" height="66" viewBox="0 0 67 66" fill="none" xmlns="http://www.w3.org/2000/svg">
<path d="M61.0408 34.5796C60.9235 34.6689 60.0658 35.2635 59.1462 35.9C59.2185 35.4195 59.2779 34.9339 59.324 34.4454C60.2553 33.4439 61.4733 32.1358 61.6079 32.0016C61.9742 31.5012 61.3477 31.0601 60.8763 31.5492C60.6865 31.7465 60.078 32.3912 59.4195 33.0893C59.4379 32.6812 59.4488 32.2706 59.4488 31.8582C59.4488 31.6484 59.4408 31.4404 59.4363 31.2319C60.1924 30.4014 61.0112 29.5021 61.2258 29.2635C61.6479 28.793 61.2018 28.235 60.7614 28.6086C60.6769 28.7072 60.053 29.3978 59.3888 30.1313C59.3547 29.5969 59.3094 29.0658 59.2443 28.5402C59.9589 27.7845 60.7313 26.9666 60.9342 26.7501C61.3368 26.3224 60.9336 25.7947 60.5182 26.1324C60.4318 26.227 59.78 26.9366 59.118 27.6561C59.0329 27.1191 58.9297 26.5888 58.814 26.0635C59.5091 25.2684 60.3388 24.3173 60.4316 24.2082C60.6939 23.7861 60.1663 23.4734 59.82 23.8928C59.6704 24.0742 59.1662 24.6817 58.6404 25.3155C58.5207 24.8393 58.385 24.3698 58.24 23.904C58.7428 23.1111 59.3326 22.1809 59.483 21.9496C59.7562 21.5275 59.336 21.1454 59.038 21.4935C58.974 21.5961 58.481 22.4443 58.0229 23.2306C57.8923 22.8458 57.7507 22.4657 57.6025 22.089C58.0595 21.2333 58.6314 20.1627 58.7703 19.907C59.011 19.4653 58.5647 19.1156 58.293 19.486C58.2328 19.5991 57.755 20.5826 57.3407 21.4391C57.1159 20.909 56.8714 20.3894 56.6133 19.8775C57.025 19.1663 57.4761 18.3862 57.5993 18.1817C57.8387 17.7832 57.4383 17.4442 57.1746 17.7749C57.1199 17.8697 56.7258 18.6424 56.3558 19.3732C56.1468 18.9779 55.9255 18.5898 55.697 18.2063C56.0265 17.5176 56.3944 16.7504 56.495 16.5504C56.6896 16.1664 56.299 15.8797 56.0769 16.2037C56.031 16.2969 55.7247 17.0754 55.4458 17.7888C55.2317 17.4436 55.0107 17.1049 54.7817 16.7713C55.0373 16.0702 55.353 15.2083 55.4378 14.9964C55.585 14.6252 55.1997 14.3931 55.0211 14.7107C54.9822 14.8128 54.7417 15.7213 54.5524 16.4475C54.2719 16.0522 53.9839 15.6637 53.6837 15.2855C53.8677 14.6177 54.0959 13.7923 54.1588 13.5865C54.2708 13.2282 53.893 13.0392 53.7485 13.3501C53.7197 13.4506 53.5784 14.3417 53.4718 15.0237C53.1473 14.6239 52.81 14.235 52.4621 13.8553C52.5826 13.1896 52.7279 12.4025 52.7716 12.2002C52.85 11.8333 52.4573 11.6789 52.3413 12.0013C52.3224 12.0994 52.2648 12.9176 52.2208 13.5902C51.8553 13.2019 51.4761 12.827 51.0874 12.4615C51.1151 11.8676 51.1458 11.225 51.1594 11.0451C51.1868 10.6885 50.7962 10.5933 50.7277 10.9128C50.7227 10.9999 50.7749 11.6342 50.8248 12.2112C50.3934 11.8148 49.9463 11.4359 49.4885 11.0685C49.4925 10.4298 49.4978 9.56156 49.505 9.34851C49.5159 9.00066 49.1323 8.92589 49.0798 9.23944C49.0782 9.35173 49.2128 10.3328 49.2928 10.909C48.7782 10.5035 48.2471 10.1182 47.7029 9.75076C47.7013 9.20004 47.6965 8.30362 47.6803 8.19536C47.5891 7.89226 47.2193 8.01554 47.2747 8.35803C47.3006 8.52016 47.3811 9.06176 47.4579 9.58622C47.0017 9.28527 46.5343 9.002 46.0592 8.72972C46.0064 8.09352 45.9256 7.11911 45.9059 6.88623C45.8758 6.53356 45.4799 6.50355 45.4631 6.82594C45.4769 6.96127 45.7374 8.19375 45.8225 8.59171C45.4188 8.36633 45.0077 8.15382 44.5918 7.94934C44.5064 7.29572 44.3875 6.39715 44.3542 6.17124C44.3001 5.80544 43.8844 5.80061 43.8889 6.13774C43.9103 6.26638 44.1465 7.30456 44.2579 7.78909C43.2 7.28768 42.1069 6.85059 40.9769 6.49175L40.4896 6.54749L40.9801 6.83987C42.1162 7.26463 43.2123 7.77193 44.2649 8.34918L44.2451 8.34838C44.2451 8.34838 42.5319 8.78654 42.3711 8.83853C42.0711 8.98887 42.266 9.35762 42.6134 9.23864C42.8654 9.15261 43.9889 8.74661 44.5883 8.52981C44.5974 8.53463 44.6048 8.53972 44.6144 8.54455L44.6845 8.66273C44.6845 8.66273 44.6803 8.63191 44.6739 8.57912C45.1445 8.84898 45.6084 9.1309 46.0595 9.42998L45.9248 9.43025C45.9248 9.43025 44.2049 9.80543 44.0516 9.85662C43.7655 10.0051 43.9564 10.3559 44.2881 10.2372C44.5347 10.1495 45.6612 9.74755 46.2277 9.54521C46.6948 9.85983 47.1526 10.1873 47.5968 10.5325C47.6136 10.6507 47.6245 10.7222 47.6245 10.7222L47.6469 10.5719C47.7328 10.6391 47.8168 10.7099 47.9026 10.7782C47.4435 10.7236 45.9656 10.5491 45.6774 10.51C45.3359 10.4633 45.2231 10.8391 45.5271 10.9224C45.6846 10.9404 47.503 10.89 47.503 10.89L47.9437 10.8115C48.3825 11.1644 48.8094 11.5302 49.2243 11.9116L49.176 11.9011C49.176 11.9011 47.2425 11.7792 47.0844 11.7944C46.7778 11.8719 46.882 12.2503 47.2259 12.2117C47.4891 12.1822 48.7619 12.0729 49.3429 12.0238C49.9503 12.5885 50.532 13.1805 51.0815 13.803C50.821 13.7829 49.0024 13.6414 48.851 13.6524C48.5337 13.7253 48.6334 14.1168 48.9875 14.0841C49.2594 14.0595 50.5931 13.9812 51.2036 13.9464C51.5508 14.3454 51.8867 14.7538 52.2091 15.1748C51.523 15.0819 50.3771 14.9296 50.2574 14.9296C49.9201 14.9806 49.9935 15.3975 50.3667 15.3927C50.6101 15.389 51.6771 15.4072 52.3925 15.4203C52.6802 15.8057 52.9572 16.1988 53.223 16.6005C52.465 16.6123 51.4623 16.6298 51.3511 16.644C51.001 16.742 51.1332 17.174 51.527 17.1188C51.7537 17.0869 52.6783 16.9835 53.4203 16.9012C53.7466 17.4088 54.0562 17.9284 54.3468 18.4601C53.5011 18.4124 52.2549 18.3435 52.1264 18.3468C51.7414 18.4151 51.8374 18.8918 52.2653 18.8739C52.5327 18.8632 53.7016 18.8417 54.5388 18.8265C54.8361 19.3946 55.1125 19.9759 55.3688 20.5684C54.4609 20.402 53.2171 20.1752 53.0846 20.1584C52.6634 20.1693 52.6895 20.6941 53.1489 20.745C53.4336 20.7755 54.6702 20.9304 55.5727 21.0457C55.806 21.6173 56.018 22.2002 56.2102 22.7924C55.2784 22.4982 54.1434 22.1409 54.0154 22.1056C53.5608 22.0501 53.5062 22.6158 53.9914 22.7436C54.2743 22.8176 55.4573 23.1405 56.3928 23.3954C56.5507 23.9271 56.6917 24.4652 56.8144 25.0108C55.9025 24.6646 54.936 24.298 54.8155 24.2538C54.3303 24.1559 54.2242 24.7619 54.7366 24.9401C55.0046 25.0331 56.0401 25.3967 56.9677 25.7221C57.093 26.3631 57.1943 27.0127 57.2708 27.6706C56.2963 27.1931 55.2251 26.6667 55.0971 26.603C54.5878 26.44 54.4025 27.0781 54.931 27.3311C55.2181 27.468 56.3616 28.0102 57.3508 28.4791C57.4111 29.1957 57.4444 29.9201 57.4444 30.6528C57.4444 30.7257 57.4417 30.7988 57.4417 30.872C56.5099 30.15 55.4786 29.3501 55.357 29.252C54.8598 28.9607 54.5169 29.5883 55.015 29.978C55.2952 30.1972 56.4571 31.092 57.4161 31.8309C57.3855 32.5124 57.3289 33.1861 57.2455 33.8523C56.4184 32.9087 55.5159 31.8743 55.4114 31.7467C54.9512 31.3313 54.454 31.9148 54.8926 32.4341C55.1451 32.7332 56.2158 33.9716 57.0788 34.9688C56.9941 35.4704 56.8943 35.9662 56.7805 36.4572C55.9417 35.5396 55.0976 34.6126 54.9931 34.4874C54.4966 34.0479 53.9709 34.6785 54.4452 35.2298C54.6881 35.5114 55.634 36.5753 56.5011 37.5487C56.323 38.1857 56.1196 38.813 55.8953 39.4278C55.1067 38.2722 54.1903 36.9243 54.0924 36.7637C53.6629 36.258 53.0524 36.8077 53.4448 37.4206C53.6752 37.7824 54.6843 39.3072 55.4743 40.4984C55.2141 41.1202 54.9299 41.7272 54.6236 42.3226C54.0397 41.0652 53.372 39.6237 53.3011 39.4525C52.9596 38.8825 52.2688 39.3246 52.5562 39.9941C52.726 40.388 53.4728 42.0544 54.0583 43.3589C53.6861 44.0056 53.2857 44.6343 52.8596 45.2416C52.4767 43.8523 52.004 42.1273 51.9608 41.9354C51.7187 41.3161 50.9639 41.6363 51.1364 42.3443C51.246 42.7924 51.7707 44.8042 52.14 46.2192C51.7243 46.7586 51.2874 47.2791 50.8298 47.7826C50.6531 46.2452 50.4315 44.3017 50.419 44.0897C50.2715 43.3948 49.4218 43.5993 49.481 44.3749C49.5183 44.8798 49.7388 47.2032 49.8881 48.7621C49.4445 49.2003 48.9838 49.6234 48.5084 50.0286C48.4663 48.381 48.4153 46.276 48.4241 46.0477C48.341 45.2973 47.4195 45.4254 47.4001 46.2519C47.3886 46.7895 47.3891 49.2635 47.3907 50.9288C46.7948 51.3817 46.1779 51.8073 45.5425 52.2063C45.6102 50.4743 45.6993 48.3087 45.7249 48.0715C45.6945 47.2705 44.7091 47.3348 44.6264 48.209C44.575 48.7546 44.4041 51.193 44.2841 52.9481C43.5666 53.3428 42.8283 53.7033 42.0703 54.0268C42.5132 52.2176 43.1096 49.8003 43.1933 49.5497C43.3352 48.7139 42.3026 48.5619 42.0261 49.4482C41.8416 50.0375 41.0564 52.82 40.5509 54.6185C38.171 55.4584 35.6296 55.9501 32.9848 56.0337C30.3396 55.9501 27.798 55.4584 25.4181 54.6185C24.9129 52.82 24.1272 50.0375 23.9427 49.4482C23.6656 48.5619 22.633 48.7139 22.7762 49.5497C22.8588 49.8003 23.4553 52.2176 23.8987 54.0268C23.1412 53.7033 22.4024 53.3426 21.6852 52.9481C21.5647 51.193 21.3943 48.7549 21.3426 48.209C21.2594 47.3348 20.2753 47.2705 20.2439 48.0715C20.2705 48.3087 20.3585 50.4743 20.426 52.2063C19.7914 51.8075 19.1744 51.382 18.5785 50.9288C18.5799 49.2635 18.5804 46.7895 18.5684 46.2519C18.5498 45.4254 17.6286 45.2973 17.5446 46.0477C17.5539 46.2763 17.5025 48.381 17.4603 50.0286C16.985 49.6234 16.5248 49.2003 16.0806 48.7621C16.2302 47.2032 16.4507 44.8798 16.4885 44.3749C16.5472 43.5991 15.6967 43.3948 15.5498 44.0897C15.5375 44.3017 15.3162 46.2452 15.1386 47.7826C14.6816 47.2791 14.2447 46.7586 13.8282 46.2192C14.1983 44.8042 14.7227 42.7924 14.832 42.3443C15.0048 41.636 14.2503 41.3161 14.0079 41.9354C13.9644 42.1273 13.4917 43.8523 13.1086 45.2416C12.6831 44.634 12.2826 44.0056 11.9101 43.3589C12.4959 42.0544 13.243 40.388 13.4123 39.9941C13.6994 39.3246 13.0086 38.8825 12.6673 39.4525C12.5972 39.6237 11.9293 41.0652 11.3454 42.3226C11.0388 41.7272 10.7541 41.1204 10.4941 40.4984C11.2841 39.3072 12.2933 37.7821 12.5239 37.4206C12.9164 36.8077 12.3063 36.258 11.8768 36.7637C11.7784 36.9245 10.8621 38.2722 10.0739 39.4278C9.84811 38.813 9.64628 38.1857 9.46765 37.5487C10.3344 36.5753 11.2804 35.5112 11.5233 35.2298C11.9981 34.6785 11.4721 34.0482 10.9754 34.4874C10.8714 34.6126 10.027 35.5396 9.18823 36.4572C9.07358 35.9662 8.97494 35.4704 8.88935 34.9688C9.75266 33.9716 10.8237 32.7332 11.0762 32.4341C11.5147 31.9148 11.0172 31.3313 10.5573 31.7467C10.4528 31.8746 9.54977 32.9087 8.72378 33.8523C8.64006 33.1861 8.58354 32.5124 8.55208 31.8309C9.51217 31.092 10.6733 30.1972 10.9543 29.978C11.4521 29.5883 11.1095 28.9607 10.6112 29.252C10.4904 29.3501 9.45832 30.15 8.52702 30.872C8.52648 30.7988 8.52408 30.7257 8.52408 30.6528C8.52408 29.9201 8.55714 29.1955 8.61793 28.4791C9.60629 28.0102 10.7506 27.468 11.0375 27.3311C11.5665 27.0784 11.3809 26.44 10.8719 26.603C10.7437 26.6667 9.67214 27.1931 8.69712 27.6706C8.77417 27.013 8.87575 26.3631 9.00133 25.7221C9.92863 25.3967 10.9639 25.0331 11.2316 24.9401C11.744 24.7621 11.6379 24.1559 11.1535 24.2538C11.0327 24.298 10.0651 24.6646 9.15437 25.0108C9.27728 24.4652 9.41832 23.9271 9.57563 23.3954C10.5117 23.1408 11.6944 22.8179 11.9776 22.7436C12.4623 22.6158 12.4079 22.0501 11.9536 22.1056C11.8254 22.1412 10.6898 22.4984 9.75853 22.7924C9.94996 22.2002 10.1627 21.6173 10.3952 21.0457C11.2977 20.9304 12.5343 20.7755 12.8185 20.745C13.2792 20.6941 13.3054 20.1693 12.8833 20.1584C12.7505 20.1752 11.5073 20.402 10.5994 20.5684C10.8549 19.9759 11.1322 19.3946 11.43 18.8265C12.2666 18.8417 13.4352 18.8632 13.7029 18.8739C14.1311 18.8918 14.2268 18.4151 13.8421 18.3468C13.713 18.3435 12.4668 18.4124 11.6217 18.4601C11.9117 17.9284 12.2216 17.4085 12.5476 16.9012C13.2899 16.9835 14.2137 17.0867 14.4414 17.1188C14.8358 17.1738 14.9672 16.742 14.6179 16.644C14.5062 16.6298 13.504 16.6123 12.7457 16.6005C13.0113 16.1988 13.2883 15.8054 13.5762 15.4203C14.291 15.4072 15.3586 15.3892 15.6017 15.3927C15.9753 15.3978 16.0478 14.9808 15.7111 14.9296C15.5919 14.9296 14.4452 15.0819 13.7591 15.1748C14.0812 14.7538 14.4174 14.3454 14.7648 13.9464C15.3751 13.9812 16.709 14.0595 16.9804 14.0841C17.335 14.1168 17.4348 13.7253 17.1177 13.6524C16.966 13.6417 15.1472 13.7829 14.8875 13.803C15.4364 13.1807 16.0182 12.5888 16.6245 12.0238C17.2071 12.0732 18.4788 12.1822 18.7423 12.2117C19.0865 12.2506 19.1907 11.8719 18.8846 11.7944C18.7263 11.7792 16.7925 11.9011 16.7925 11.9011L16.7447 11.9116C17.1588 11.5299 17.5862 11.1644 18.0256 10.8115L18.4658 10.89C18.4658 10.89 20.2838 10.9404 20.4414 10.9224C20.7454 10.8388 20.6328 10.4633 20.2913 10.51C20.0031 10.5491 18.525 10.7236 18.0661 10.7782C18.152 10.7099 18.2357 10.6391 18.3221 10.5719L18.3445 10.7222C18.3445 10.7222 18.3549 10.6507 18.3722 10.5325C18.8164 10.1876 19.2742 9.85983 19.7413 9.54521C20.3076 9.74755 21.434 10.1495 21.6801 10.2372C22.0121 10.3559 22.203 10.0051 21.9169 9.85662C21.7636 9.80543 20.0434 9.43025 20.0434 9.43025L19.909 9.42998C20.3601 9.1309 20.824 8.84925 21.2949 8.57912C21.2882 8.63164 21.2842 8.66273 21.2842 8.66273L21.3541 8.54455C21.3631 8.53945 21.3714 8.53436 21.3802 8.52981C21.979 8.74661 23.1028 9.15261 23.355 9.23864C23.7032 9.35762 23.8973 8.98887 23.5977 8.83853C23.4363 8.78681 21.7231 8.34838 21.7231 8.34838L21.7039 8.34918C22.7559 7.77167 23.8528 7.26463 24.9883 6.83987L25.4794 6.54749L24.9913 6.49175C23.8624 6.85059 22.7685 7.28795 21.7111 7.78909C21.8214 7.30483 22.0579 6.26664 22.079 6.13774C22.0835 5.80088 21.6684 5.8057 21.614 6.17124C21.5807 6.39689 21.4626 7.29572 21.377 7.94934C20.9608 8.15382 20.5494 8.36633 20.146 8.59171C20.2305 8.19375 20.491 6.96127 20.5051 6.82594C20.4886 6.50355 20.0919 6.53356 20.0625 6.88623C20.0426 7.11911 19.9615 8.09352 19.9087 8.72972C19.4333 9.002 18.9659 9.28527 18.5103 9.58622C18.5868 9.06176 18.6671 8.52043 18.6932 8.35803C18.7484 8.01554 18.3789 7.89226 18.2871 8.19536C18.2717 8.30362 18.2666 9.20004 18.265 9.75076C17.7206 10.1182 17.1897 10.5038 16.6749 10.909C16.7557 10.3328 16.8898 9.35146 16.8882 9.23944C16.8359 8.92616 16.4517 9.00066 16.4632 9.34851C16.4701 9.56156 16.476 10.4298 16.4792 11.0685C16.0222 11.4359 15.5751 11.8145 15.1437 12.2112C15.1936 11.6345 15.2453 10.9999 15.2399 10.9128C15.1717 10.5936 14.7806 10.6885 14.8083 11.0451C14.8222 11.225 14.8523 11.8676 14.88 12.4615C14.4915 12.827 14.1124 13.2019 13.7471 13.5902C13.7026 12.9176 13.6456 12.0997 13.6261 12.0013C13.5101 11.6789 13.1171 11.8333 13.196 12.2002C13.2395 12.4025 13.3843 13.1893 13.5056 13.8553C13.1582 14.235 12.8206 14.6239 12.4951 15.0237C12.3893 14.3417 12.2482 13.4506 12.2189 13.3501C12.0746 13.0392 11.6968 13.2282 11.808 13.5865C11.8715 13.7923 12.1002 14.6177 12.2839 15.2855C11.9837 15.6637 11.6955 16.0522 11.4156 16.4475C11.2255 15.721 10.9852 14.8125 10.9468 14.7107C10.7679 14.3931 10.3819 14.6255 10.5301 14.9964C10.6141 15.2083 10.9298 16.0702 11.1855 16.7713C10.9564 17.1049 10.7354 17.4436 10.5213 17.7888C10.2424 17.0754 9.93663 16.2969 9.89077 16.2037C9.66868 15.8797 9.27755 16.1664 9.47165 16.5504C9.5727 16.7504 9.94143 17.5173 10.2704 18.2063C10.0422 18.5901 9.82092 18.9781 9.61136 19.3732C9.24076 18.6424 8.84776 17.87 8.79284 17.7749C8.52862 17.4442 8.12895 17.7829 8.36811 18.1817C8.49049 18.3862 8.94267 19.1663 9.3538 19.8775C9.09651 20.3894 8.85203 20.9093 8.62647 21.4391C8.21134 20.5826 7.73382 19.5991 7.67464 19.486C7.40268 19.1156 6.9561 19.4653 7.19712 19.907C7.33656 20.1627 7.90819 21.233 8.36491 22.089C8.21667 22.4655 8.07536 22.8458 7.94445 23.2306C7.48694 22.444 6.99369 21.5959 6.92944 21.4935C6.63082 21.1454 6.21143 21.5275 6.48472 21.9496C6.63456 22.1809 7.22512 23.1111 7.72743 23.904C7.58292 24.3695 7.44668 24.8391 7.32697 25.3155C6.80146 24.682 6.29648 24.0742 6.14744 23.8928C5.80137 23.4734 5.27373 23.7861 5.53582 24.2082C5.6286 24.3173 6.45885 25.2684 7.15366 26.0635C7.03768 26.5888 6.9345 27.1191 6.84998 27.6561C6.18797 26.9366 5.53555 26.227 5.44943 26.1324C5.03378 25.7944 4.63118 26.3224 5.03324 26.7501C5.23667 26.9666 6.00934 27.7842 6.72307 28.5402C6.65802 29.0658 6.61296 29.5967 6.5791 30.1313C5.91495 29.3981 5.2908 28.7075 5.20548 28.6086C4.76609 28.235 4.3195 28.793 4.74209 29.2635C4.95619 29.5021 5.77524 30.4014 6.53137 31.2319C6.52658 31.4404 6.51884 31.6484 6.51884 31.8582C6.51884 32.2706 6.52924 32.6809 6.5479 33.0893C5.88989 32.3912 5.28173 31.7465 5.09137 31.5492C4.61998 31.0604 3.99316 31.5012 4.3595 32.0016C4.49441 32.1358 5.71259 33.4439 6.64335 34.4454C6.69028 34.9336 6.7492 35.4195 6.82199 35.9C5.90162 35.2635 5.04417 34.6689 4.92713 34.5796C4.3451 34.2629 3.9729 34.9955 4.55839 35.4257C4.85567 35.6438 5.99894 36.4572 7.05368 37.2065C7.17553 37.8038 7.3179 38.3942 7.47867 38.9765C6.44846 38.3443 5.4345 37.7207 5.30386 37.632C4.70583 37.3469 4.37336 38.0999 4.98152 38.4974C5.32066 38.7187 6.72201 39.6047 7.89433 40.3438C8.0735 40.8795 8.27053 41.4053 8.48169 41.9244C7.3291 41.517 6.18237 41.111 6.03413 41.0505C5.38998 40.8977 5.22121 41.7033 5.89789 41.9643C6.26342 42.1056 7.72769 42.6447 8.99893 43.1124C9.18103 43.5026 9.37167 43.8879 9.57136 44.268C8.2588 44.205 6.85532 44.1342 6.68335 44.1184C6.0224 44.1559 6.08932 44.976 6.81239 45.0323C7.20219 45.0631 8.75871 45.1601 10.1097 45.2432C10.3635 45.68 10.6288 46.1085 10.9058 46.5282C9.53564 46.5662 7.98338 46.607 7.80128 46.6027C7.1454 46.6906 7.27337 47.5034 7.99831 47.5053C8.4137 47.5058 10.1457 47.4825 11.5505 47.4629C11.8851 47.9265 12.2333 48.3784 12.5959 48.8189C11.1239 48.8918 9.42979 48.9733 9.23276 48.9709C8.53368 49.0733 8.68086 49.9391 9.45458 49.9322C9.9201 49.9276 11.9347 49.8692 13.4672 49.8231C13.8618 50.2554 14.2697 50.6753 14.6912 51.0802C13.1379 51.2407 11.3593 51.42 11.1505 51.4278C10.4125 51.5688 10.609 52.4829 11.431 52.4376C11.9395 52.4108 14.186 52.2387 15.827 52.1098C16.2195 52.4467 16.6216 52.7723 17.0332 53.0856C15.3349 53.2689 13.2595 53.4886 13.0267 53.4964C12.2432 53.6438 12.449 54.6136 13.3214 54.5689C13.9258 54.5381 16.845 54.3127 18.5815 54.1768C18.9134 54.3931 19.2504 54.6024 19.5925 54.805C17.8837 55.1394 15.6791 55.5663 15.4383 55.5953C14.6702 55.8094 14.9573 56.7578 15.8225 56.6394C16.4595 56.552 19.6792 56.023 21.3362 55.7488C21.6855 55.9212 22.0387 56.086 22.3968 56.243C20.6878 56.8883 18.5298 57.6987 18.2871 57.7681C17.5209 58.1227 17.9803 59.0639 18.8638 58.7929C19.4896 58.6002 22.541 57.5685 24.2695 56.9811C24.5495 57.0791 24.8305 57.1743 25.1142 57.263C23.5187 58.1605 21.4951 59.2933 21.2647 59.3991C20.5601 59.8641 21.1546 60.7265 21.9881 60.325C22.5664 60.046 25.3307 58.6169 26.9669 57.7679C28.9002 58.22 30.9142 58.459 32.9845 58.459C35.0537 58.459 37.0683 58.2197 39.0016 57.7679C40.6381 58.6169 43.4016 60.046 43.9812 60.325C44.8136 60.7265 45.4081 59.8641 44.7035 59.3991C44.4731 59.2933 42.4492 58.1605 40.8543 57.263C41.1385 57.1743 41.419 57.0791 41.6979 56.9811C43.4272 57.5682 46.4783 58.6002 47.1046 58.7929C47.9871 59.0639 48.4465 58.1227 47.6808 57.7681C47.4384 57.6985 45.2802 56.8883 43.5709 56.243C43.9295 56.086 44.2825 55.9212 44.6317 55.7488C46.2885 56.023 49.5087 56.552 50.146 56.6394C51.0106 56.7578 51.2983 55.8094 50.5296 55.5953C50.2889 55.5663 48.0845 55.1394 46.3746 54.805C46.717 54.6024 47.0548 54.3931 47.3865 54.1768C49.1232 54.3127 52.0424 54.5381 52.6466 54.5689C53.5187 54.6136 53.7245 53.6438 52.9409 53.4964C52.7074 53.4886 50.6331 53.2686 48.9342 53.0856C49.3456 52.7723 49.7479 52.4467 50.1401 52.1098C51.7814 52.2385 54.0279 52.4108 54.5361 52.4376C55.3581 52.4829 55.5543 51.569 54.8166 51.4278C54.6078 51.42 52.8292 51.2407 51.2762 51.0802C51.6977 50.675 52.1061 50.2554 52.5002 49.8231C54.0325 49.8692 56.0476 49.9279 56.5134 49.9322C57.2865 49.9391 57.434 49.0733 56.7346 48.9709C56.5376 48.9733 54.8433 48.8918 53.3712 48.8189C53.7341 48.3784 54.0821 47.9268 54.4169 47.4629C55.8223 47.4825 57.5537 47.5058 57.9694 47.5053C58.694 47.5034 58.822 46.6906 58.1659 46.6027C57.9835 46.607 56.4318 46.566 55.0613 46.5282C55.3384 46.1085 55.6036 45.68 55.8577 45.2432C57.209 45.1598 58.7655 45.0631 59.1545 45.0323C59.8778 44.976 59.945 44.1557 59.2838 44.1184C59.1115 44.1342 57.7086 44.2047 56.3958 44.268C56.5957 43.8877 56.7864 43.5026 56.9682 43.1124C58.2402 42.6447 59.7045 42.1056 60.0698 41.9643C60.7462 41.703 60.5766 40.8977 59.9325 41.0505C59.785 41.111 58.6386 41.517 57.4862 41.9244C57.6966 41.405 57.8934 40.8795 58.0728 40.3438C59.2454 39.6047 60.6467 38.719 60.9859 38.4974C61.5938 38.0999 61.261 37.3466 60.6643 37.632C60.5324 37.7207 59.5189 38.3441 58.4882 38.9765C58.6492 38.3939 58.7927 37.8038 58.9142 37.2065C59.9687 36.4572 61.1117 35.6441 61.4087 35.4257C61.9945 34.9953 61.6226 34.2629 61.0408 34.5796Z" fill="#F4F3E5"/>
<path d="M33.2637 65.9265C42.0239 65.9265 50.2593 62.4984 56.4534 56.272C62.6475 50.046 66.0583 41.7679 66.0583 32.9631C66.0583 24.1584 62.6475 15.8813 56.4534 9.65455C50.2595 3.42864 42.0242 0 33.2637 0C15.1805 0 0.468994 14.7879 0.468994 32.9631C0.468994 41.7676 3.88038 50.0458 10.0745 56.272C16.2686 62.4984 24.5039 65.9265 33.2637 65.9265ZM2.08071 32.9631C2.08071 24.5912 5.32412 16.7203 11.214 10.8002C17.1033 4.88034 24.9342 1.62026 33.2634 1.62026C41.5931 1.62026 49.4232 4.88034 55.313 10.8002C61.2024 16.7203 64.4469 24.5912 64.4469 32.9631C64.4469 50.246 50.4576 64.3068 33.2634 64.3068C24.9342 64.3068 17.1033 61.0467 11.214 55.1255C5.32412 49.2064 2.08071 41.3356 2.08071 32.9631Z" fill="#F4F3E5"/>
<path d="M40.5391 27.5755C40.3376 27.17 39.4305 26.8664 39.0282 27.6771C38.6251 28.4866 39.2292 28.4866 38.3227 27.7781C37.8719 27.3453 37.429 26.9366 36.9958 26.5483C37.2677 26.4357 37.4589 26.1675 37.4589 25.8537C37.4589 25.4383 37.1238 25.1022 36.7108 25.1022C36.3604 25.1022 36.069 25.3447 35.9874 25.6717C28.596 19.4369 23.9592 19.7891 21.398 20.8924C27.4175 20.6879 32.2337 24.0895 35.0535 26.5314C34.7882 26.6474 34.6029 26.9125 34.6029 27.2212C34.6029 27.636 34.9375 27.9726 35.351 27.9726C35.6885 27.9726 35.9701 27.7462 36.0637 27.4367C36.8793 28.1913 37.4264 28.7458 37.6682 28.8921C38.3427 29.2984 38.6254 29.904 39.6329 29.4991C40.4034 29.1893 40.7404 27.9807 40.5391 27.5755Z" fill="#F4F3E5"/>
<path d="M25.604 27.5755C25.8053 27.17 26.7123 26.8664 27.1152 27.6771C27.5183 28.4866 26.9136 28.4866 27.8201 27.7781C28.272 27.3453 28.7135 26.9366 29.1471 26.5483C28.8756 26.4357 28.6842 26.1675 28.6842 25.8537C28.6842 25.4383 29.0191 25.1022 29.4323 25.1022C29.7824 25.1022 30.0741 25.3447 30.1557 25.6717C37.5469 19.4369 42.1842 19.7891 44.7453 20.8924C38.7261 20.6879 33.9097 24.0895 31.0894 26.5314C31.3547 26.6474 31.5402 26.9125 31.5402 27.2212C31.5402 27.636 31.2056 27.9726 30.7926 27.9726C30.4543 27.9726 30.1725 27.7462 30.0794 27.4367C29.2641 28.1913 28.7167 28.7458 28.4749 28.8921C27.8004 29.2984 27.518 29.904 26.5105 29.4991C25.7394 29.1893 25.4027 27.9807 25.604 27.5755Z" fill="#F4F3E5"/>
<path d="M32.9837 21.7028C32.4294 21.7028 31.9255 21.7028 31.3717 21.7028C31.3717 21.0446 31.1702 20.3862 31.2709 19.7274C31.3717 19.3734 31.6741 19.3734 31.9761 19.4238C31.9761 18.9682 31.8756 18.4617 32.0265 18.0061C32.0265 17.9558 31.9255 17.5508 32.0265 17.449C32.2137 17.2611 32.0236 16.7772 31.9255 16.6391C32.0265 16.7916 31.8754 16.1836 32.1273 16.2345C32.0772 15.374 32.1774 15.374 32.1774 14.5132C32.4297 14.5132 32.1774 14.209 32.1273 14.0067C31.9255 13.3989 32.4294 12.7916 31.7239 12.3864C31.2707 12.1838 31.0694 12.7916 30.8177 13.0443C30.7166 13.2469 30.7673 13.5002 30.7673 13.7031C30.3636 13.5511 30.3636 13.0953 30.1629 12.7916C29.9613 12.4875 30.1125 12.1334 30.0621 11.7794C30.0117 11.7794 29.9109 11.7794 29.8611 11.7794C29.8107 11.9306 29.7096 12.0324 29.659 12.1841C29.5584 12.4877 29.659 12.7919 29.6088 13.0955C29.5083 12.9436 29.3068 12.8929 29.206 12.7916C28.7525 11.9815 28.7023 11.121 28.7525 10.2096C28.2992 10.1586 28.1984 10.8677 27.947 11.1207C27.8462 11.2218 27.7454 10.9176 27.7454 10.7664C27.5948 10.108 27.7454 9.44981 28.1486 8.89347C28.1987 8.7919 28.7527 8.38697 28.7527 8.2854C28.5013 8.2854 27.7961 8.23475 27.4431 8.58876C27.1719 8.86158 27.2922 7.57657 27.695 7.22202C28.1987 6.91839 28.7026 6.71552 29.2566 6.61396C29.2566 6.51319 29.1561 6.46254 29.2062 6.36151C28.6018 6.20956 27.9974 6.41216 27.393 6.46254C27.4935 5.95578 28.0982 5.75371 28.5514 5.70333C29.1564 5.6023 29.8112 5.65295 30.4154 5.65295C30.4154 5.34878 30.2141 5.0958 30.0122 4.89347C29.8616 4.69087 29.5086 4.84255 29.2569 4.79137C29.7603 4.63969 30.2138 4.74125 30.7177 4.74125C31.0195 4.79137 31.2213 5.0958 31.5234 5.19683C31.5234 4.74125 31.6245 3.9815 31.0195 3.83009C31.6245 3.77917 32.1281 4.2854 32.4305 4.79137C32.4806 4.79137 32.5307 4.79137 32.5816 4.79137C32.6318 4.74125 32.531 4.58957 32.5816 4.53892C32.6822 4.488 32.6822 4.33686 32.7328 4.23529C32.9341 4.0828 32.7829 3.07008 33.085 2.96904C33.3874 3.06981 33.2362 4.08254 33.4375 4.23529C33.4881 4.33659 33.4881 4.48774 33.5889 4.53892C33.639 4.58957 33.5388 4.74125 33.5889 4.79137C33.639 4.79137 33.6894 4.79137 33.7396 4.79137C34.0424 4.2854 34.5461 3.77917 35.1502 3.83009C34.5463 3.9815 34.6469 4.74125 34.6469 5.19683C34.9495 5.0958 35.1502 4.79137 35.4526 4.74125C35.9565 4.74125 36.4098 4.63969 36.9134 4.79137C36.6614 4.84228 36.309 4.69087 36.1581 4.89347C35.9565 5.0958 35.7549 5.34878 35.7549 5.65295C36.3588 5.65295 37.0142 5.6023 37.6181 5.70333C38.0719 5.75371 38.6763 5.95578 38.7771 6.46254C38.1721 6.41216 37.5679 6.20929 36.9638 6.36151C37.0139 6.46254 36.9134 6.51319 36.9134 6.61396C37.4674 6.71552 37.9711 6.91839 38.4747 7.22202C38.8778 7.57657 38.9621 8.8932 38.7269 8.58876C38.3745 8.13372 37.8196 8.13372 37.5677 8.13372C37.5677 8.23475 37.9708 8.7919 38.0212 8.89347C38.4243 9.45008 38.5755 10.108 38.4243 10.7664C38.4243 10.9176 38.3233 11.2218 38.2228 11.1207C37.9708 10.8677 37.87 10.1584 37.4165 10.2096C37.4672 11.1207 37.4165 11.9812 36.9638 12.7916C36.8633 12.8929 36.6612 12.9433 36.5604 13.0955C36.5103 12.7916 36.6105 12.4875 36.5103 12.1841C36.4599 12.0327 36.3588 11.9308 36.309 11.7794C36.2583 11.7794 36.1581 11.7794 36.1077 11.7794C36.057 12.1334 36.2082 12.4877 36.0066 12.7916C35.8053 13.0955 35.8053 13.5511 35.4027 13.7031C35.4027 13.5002 35.4526 13.2469 35.3521 13.0443C35.0999 12.7916 34.8986 12.1838 34.445 12.3864C33.9417 12.6901 34.3296 13.0392 33.9921 14.0576C33.9419 14.2594 33.7396 14.5129 33.9921 14.5129C33.9921 15.3737 34.1432 15.3225 34.0928 16.183C34.3445 16.1326 34.1432 16.7914 34.2443 16.6386C33.9921 16.9932 33.7905 17.2469 34.1936 17.6513C34.2947 17.7526 34.1435 17.9552 34.1435 18.0056C34.2947 18.4612 34.1936 18.9677 34.1936 19.4233C34.496 19.3729 34.798 19.3729 34.8988 19.7269C34.9996 20.3856 34.7983 21.0441 34.7983 21.7022C34.2445 21.7022 33.7401 21.7022 33.1863 21.7022L32.9837 21.7028Z" fill="#F4F3E5"/>
<path d="M41.6403 33.4718C41.5651 33.497 41.5182 33.5283 41.4931 33.5629C41.4683 33.5972 41.4619 33.6409 41.476 33.6929C41.4936 33.7481 41.519 33.785 41.5571 33.8065C41.6259 33.7829 41.6685 33.7604 41.696 33.7451C41.7464 33.7151 41.7912 33.6733 41.8293 33.6197C41.8389 33.605 41.8453 33.5755 41.8528 33.5358C41.8586 33.4929 41.8613 33.4669 41.8597 33.4557C41.7875 33.4396 41.7139 33.4447 41.6403 33.4718Z" fill="#F4F3E5"/>
<path d="M37.204 36.9822C37.2027 36.9998 37.1984 37.0663 37.1915 37.1842C37.1805 37.2992 37.1763 37.3616 37.1813 37.3697C37.2192 37.431 37.2645 37.4659 37.3203 37.4809C37.3762 37.4948 37.4568 37.4752 37.565 37.4273C37.6146 37.4053 37.6831 37.3659 37.7727 37.3123C37.8596 37.2539 37.9113 37.2174 37.9281 37.2003C37.8898 37.1488 37.7586 37.0971 37.5378 37.0473C37.3379 36.9939 37.2267 36.9704 37.204 36.9822Z" fill="#F4F3E5"/>
<path d="M25.3789 33.9734C25.376 33.9689 25.3277 33.9614 25.2414 33.9456C25.155 33.9287 25.087 33.9113 25.0401 33.892C24.9929 33.8727 24.9281 33.8411 24.8537 33.7936C24.8028 33.7564 24.7521 33.7349 24.7009 33.729C24.7148 33.7875 24.7521 33.8716 24.8153 33.9809C24.8769 34.0916 24.9294 34.1672 24.9627 34.2149C24.979 34.2122 25.0523 34.1693 25.1851 34.0876C25.2288 34.0613 25.2936 34.0238 25.3789 33.9734Z" fill="#F4F3E5"/>
<path d="M40.2083 31.3552C38.7736 33.8081 36.1202 35.5066 33.0842 35.5066C30.0485 35.5066 27.3948 33.8081 25.9602 31.3552H20.1711C21.8985 36.8704 27.0261 40.8112 33.0842 40.8112C39.0869 40.8112 44.1766 36.7929 45.9496 31.3552H40.2083ZM39.1349 34.094C39.1415 34.0881 39.2282 34.0758 39.3959 34.0533C39.5628 34.0257 39.6542 34.0142 39.6644 34.0187C39.6884 34.0289 39.707 34.0849 39.7217 34.1905C39.7329 34.2969 39.7294 34.3585 39.7129 34.3738C39.7009 34.3867 39.6201 34.407 39.4708 34.4322C39.3228 34.4545 39.2415 34.4606 39.2284 34.4537C39.2108 34.444 39.1901 34.3837 39.1623 34.2733C39.133 34.1645 39.1229 34.1053 39.1349 34.094ZM29.4409 35.9263C29.5923 35.8719 29.6736 35.8491 29.6883 35.8553C29.6963 35.8593 29.7163 35.9249 29.7493 36.056C29.7867 36.1849 29.8035 36.2562 29.7973 36.2661C29.784 36.2875 29.7078 36.3186 29.564 36.3604C29.4201 36.3971 29.335 36.4108 29.3118 36.4006C29.2958 36.3934 29.2681 36.3299 29.2286 36.217C29.1945 36.0991 29.183 36.0356 29.1937 36.0217C29.2054 36.0064 29.2892 35.974 29.4409 35.9263ZM25.6794 32.9189C25.6917 32.8463 25.7053 32.7988 25.7194 32.7739C25.886 32.824 26.0009 32.8599 26.0687 32.8825C26.1521 32.909 26.2049 32.9216 26.2206 32.9248C26.2004 32.9529 26.1831 33.0055 26.1684 33.0832C26.1591 33.1593 26.1599 33.2086 26.1735 33.2274C26.1815 33.2383 26.2404 33.2579 26.35 33.2858C26.4569 33.3123 26.5187 33.3295 26.5374 33.3362L26.5251 33.6813C26.4155 33.6698 26.3036 33.6535 26.1929 33.6312C26.0804 33.6098 26.0209 33.5924 26.014 33.5827C26.0082 33.5747 26.0047 33.5141 26.0084 33.4007C26.0119 33.2903 26.0172 33.2335 26.0185 33.2308C25.962 33.2121 25.9066 33.1931 25.8524 33.1735C25.7525 33.1421 25.6983 33.1247 25.685 33.1247C25.6703 33.0778 25.6679 33.01 25.6794 32.9189ZM25.1136 36.7608C24.9857 36.7517 24.9097 36.7447 24.8974 36.7324C24.8873 36.7222 24.8582 36.637 24.8068 36.4815C24.7737 36.3521 24.7532 36.2709 24.7446 36.2366C24.6508 36.2227 24.5692 36.205 24.4922 36.1884C24.4148 36.1707 24.3698 36.164 24.3572 36.1672C24.3221 36.109 24.2941 36.0147 24.2666 35.8901C24.2365 35.7716 24.229 35.6939 24.2375 35.6631C24.482 35.7081 24.6425 35.7312 24.7068 35.7489C24.7313 35.7553 24.7601 35.7593 24.7937 35.7633C24.7846 35.8094 24.7966 35.8855 24.8209 36C24.846 36.1168 24.8766 36.1819 24.8998 36.2066C24.9121 36.2192 24.9787 36.2337 25.0992 36.2495C25.2254 36.2588 25.2973 36.2693 25.3216 36.2765L25.4733 36.7605C25.3595 36.7702 25.2414 36.7688 25.1136 36.7608ZM29.8944 38.194C29.7445 38.1374 29.5976 38.0812 29.455 38.0211C29.3124 37.9608 29.1673 37.904 29.022 37.8451C28.9055 37.8033 28.7175 37.7824 28.4506 37.7848C28.18 37.781 27.991 37.7513 27.8891 37.6979L27.1631 37.2844L27.1575 37.2901L26.6798 36.9749C26.6542 36.9556 26.6392 36.9336 26.6363 36.9068C26.6334 36.8792 26.6448 36.8546 26.6704 36.8313L26.8651 36.6367C26.8291 36.6493 26.743 36.6764 26.612 36.7104C26.4798 36.7439 26.4062 36.7611 26.3923 36.7648L26.0548 36.5024L26.0569 36.5003L25.8626 36.3417C25.7487 36.2382 25.7039 36.1329 25.7362 36.0179C25.7509 35.9678 25.7877 35.9099 25.8476 35.8416L25.3683 35.8853L24.8417 35.3254L24.8385 35.3273L24.806 35.2879L24.7358 35.2134L24.7414 35.2107L24.4762 34.8916C24.3804 34.7753 24.3786 34.664 24.4644 34.5644C24.5535 34.4915 24.6497 34.4178 24.7492 34.3459C24.7097 34.3197 24.6241 34.3041 24.4935 34.2956C24.2501 34.2822 24.1136 34.2286 24.0808 34.1399C24.0304 34.0185 23.9757 33.8711 23.9069 33.7049C23.8163 33.4648 23.7531 33.3134 23.719 33.2477C23.784 33.237 23.9461 33.2499 24.2109 33.281C24.4714 33.308 24.6521 33.3426 24.7545 33.3887C24.8222 33.4131 24.9294 33.4739 25.0806 33.565C25.2358 33.6502 25.4147 33.7427 25.613 33.8427C25.6357 33.8357 25.6607 33.8199 25.6882 33.7958C25.7162 33.7716 25.741 33.7558 25.7639 33.7486C25.8556 33.7599 25.9298 33.7676 25.989 33.7695C26.1764 33.7821 26.3374 33.7877 26.4691 33.7896C26.4494 33.814 26.33 33.885 26.1081 34.0096C25.8898 34.1356 25.6722 34.2647 25.4576 34.3974C25.2494 34.5306 25.1395 34.6048 25.1318 34.618C25.1088 34.6603 25.107 34.704 25.1259 34.7493C25.1454 34.7938 25.191 34.8506 25.2536 34.9261L25.3147 34.9934L25.9831 35.6773C26.0289 35.6679 26.094 35.6403 26.178 35.5929C26.262 35.5455 26.3428 35.498 26.4211 35.4509C26.4353 35.4479 26.5443 35.4428 26.7403 35.4372C26.9384 35.4227 27.0469 35.4174 27.0709 35.4192C27.0637 35.4265 27.0565 35.434 27.0493 35.4393C27.0253 35.456 27.0032 35.4723 26.9818 35.4876C26.9224 35.5302 26.8539 35.5757 26.7755 35.624C26.6963 35.672 26.6032 35.7237 26.4947 35.7802C26.4243 35.8159 26.3905 35.8687 26.3942 35.9378C26.3995 36.0077 26.4331 36.0629 26.4907 36.1112L26.5667 36.1699L27.0106 36.4995L27.943 35.4085C28.076 35.3745 28.1776 35.3455 28.2459 35.3241C28.4594 35.2584 28.597 35.215 28.6586 35.2014C28.6794 35.2121 28.497 35.4302 28.1184 35.8595C27.7462 36.2953 27.5255 36.5518 27.4524 36.6249C27.3823 36.6943 27.3783 36.7501 27.4434 36.7871L27.4772 36.8085L27.478 36.808L28.3523 37.2906C28.4312 37.3316 28.5229 37.36 28.6189 37.3871C28.7162 37.4104 28.7898 37.4206 28.8415 37.4166C28.8284 37.3887 28.7682 37.3096 28.6634 37.1789C28.5445 37.0296 28.4642 36.9406 28.4149 36.9178C28.3248 36.8693 28.2467 36.8396 28.1795 36.8289C28.1147 36.8144 28.0358 36.8106 27.9411 36.8144C28.1174 36.7404 28.26 36.6847 28.3709 36.6509C28.6503 36.5555 28.8482 36.5338 28.969 36.5941C29.1196 36.6579 29.2494 36.7683 29.3635 36.9229C29.5998 37.2134 29.7256 37.3624 29.7269 37.3648C29.8672 37.4911 30.0029 37.5972 30.1343 37.6835C30.2666 37.7724 30.3711 37.8193 30.4415 37.8392L29.8944 38.194ZM31.4706 36.9556C31.4186 37.3241 31.3581 37.6486 31.2853 37.9252C31.2285 38.1425 31.1374 38.3291 31.0089 38.4874C30.9369 38.5684 30.8435 38.6464 30.7262 38.727L31.0166 37.07C31.0278 37.0352 31.1174 36.9296 31.2784 36.76C31.4112 36.6107 31.4957 36.5193 31.5352 36.4815C31.5104 36.6745 31.4888 36.8323 31.4706 36.9556ZM34.7215 37.7261C34.7421 37.7944 34.7746 37.8949 34.8186 38.026C34.8292 38.0715 34.8338 38.1533 34.8322 38.2717C34.83 38.3912 34.8226 38.5185 34.8092 38.6563C34.8092 38.689 34.7868 38.7163 34.7407 38.7396C34.6941 38.7597 34.6493 38.7699 34.6071 38.7699L34.0864 38.831L34.087 38.8337L34.0312 38.8382L33.9339 38.8495L33.9334 38.8452L33.4538 38.8811C33.4026 38.8816 33.3634 38.8495 33.3364 38.7852C33.2842 38.6541 33.2541 38.5879 33.2445 38.5708C33.217 38.5815 33.1773 38.637 33.1229 38.7385C33.0679 38.8398 33.0114 38.8918 32.9536 38.894L31.7391 38.8342C31.6946 38.828 31.6607 38.8101 31.6389 38.7801C31.617 38.7506 31.6101 38.7171 31.6173 38.6791C31.6453 38.5853 31.6674 38.5124 31.6834 38.4582C31.7378 38.2902 31.7911 38.1584 31.8444 38.0624C31.862 38.0123 31.8951 37.9576 31.9439 37.8938C31.9801 37.8478 32.0161 37.8201 32.0519 37.8102C32.05 37.8207 32.0404 37.8649 32.0223 37.9415C32.0039 38.019 31.9927 38.0726 31.9879 38.1023C31.9783 38.1629 31.9804 38.2093 31.9945 38.2425C32.0089 38.2763 32.0428 38.2956 32.0967 38.2972L33.1669 38.332C33.173 38.2714 33.137 38.1056 33.0632 37.8352C32.9949 37.5688 32.9626 37.43 32.9632 37.4249C32.9634 37.4136 33.0077 37.3225 33.0927 37.1443C33.1738 36.9706 33.2199 36.8725 33.2343 36.8506C33.2724 36.9779 33.3194 37.1478 33.3756 37.3584C33.3967 37.4342 33.4252 37.5409 33.4628 37.6768C33.542 37.9429 33.6036 38.116 33.6428 38.1943C33.6838 38.272 33.7278 38.3052 33.7756 38.3004L33.9547 38.2843L34.4658 38.227C34.4738 38.22 34.4754 38.1985 34.4685 38.1602C34.4522 38.0659 34.389 37.8692 34.2829 37.5696C34.2307 37.4152 34.1763 37.2507 34.1198 37.0743C34.0827 37.0505 34.056 37.0328 34.0395 37.0221C33.9875 36.987 33.9582 36.9634 33.9521 36.9527C33.996 36.8181 34.0334 36.7005 34.0648 36.6067C34.1216 36.4231 34.16 36.3245 34.184 36.3218C34.1864 36.3213 34.1992 36.3577 34.2229 36.4301C34.2467 36.5033 34.2757 36.5512 34.3112 36.574C34.4032 36.6263 34.4872 36.6716 34.5634 36.7064C34.7343 36.782 34.833 36.8136 34.857 36.8096L34.6074 37.3541C34.6106 37.3726 34.6487 37.4967 34.7215 37.7261ZM35.9456 38.5451L35.1868 37.025C35.1764 36.9913 35.1918 36.8699 35.2262 36.656C35.2521 36.4789 35.2694 36.3663 35.2817 36.3189C35.3771 36.4917 35.455 36.6338 35.5142 36.7461C35.6957 37.0824 35.8405 37.3774 35.9453 37.6398C36.0285 37.8459 36.0637 38.0439 36.0458 38.2259C36.033 38.3242 36 38.4296 35.9456 38.5451ZM36.6878 36.2315C36.6764 36.2709 36.6633 36.3173 36.647 36.3644C36.582 36.3719 36.4921 36.3703 36.3775 36.3542C36.2631 36.3355 36.1906 36.3173 36.1581 36.2966C36.1839 36.1763 36.2037 36.086 36.2205 36.023C36.2311 35.9793 36.241 35.9413 36.2492 35.9129C36.2959 35.9338 36.3732 35.9493 36.4831 35.9659C36.5948 35.9812 36.662 35.9847 36.6838 35.9742C36.6964 35.9686 36.7116 35.9244 36.7265 35.8405C36.7409 35.7577 36.7516 35.7063 36.762 35.6907L37.2528 35.7143C37.2603 35.792 37.2608 35.8772 37.2528 35.9667C37.2437 36.0576 37.232 36.109 37.2187 36.116C37.212 36.1187 37.1536 36.1187 37.0464 36.1176C36.8558 36.1085 36.747 36.0994 36.7174 36.0935C36.7206 36.1069 36.711 36.1522 36.6878 36.2315ZM38.2281 37.453C38.2153 37.4927 38.1585 37.5677 38.0559 37.6789C37.9476 37.7834 37.8663 37.8496 37.81 37.8743C37.653 37.9485 37.525 37.9909 37.4309 38.0088C37.2621 38.0324 37.1512 37.9965 37.0952 37.8949C37.0408 37.7952 37.0163 37.6602 37.0211 37.4948C37.0227 37.4278 37.0339 37.27 37.0504 37.0272C37.0536 36.9495 37.06 36.8637 37.0736 36.7753C37.08 36.7262 37.099 36.6206 37.1267 36.455C37.2205 36.4714 37.2912 36.4802 37.3432 36.4896C37.513 36.5145 37.6447 36.5354 37.7378 36.5563C37.8322 36.5759 37.9095 36.6045 37.9708 36.6442C38.0335 36.6844 38.0876 36.7327 38.1345 36.7881C38.1537 36.812 38.1694 36.8326 38.182 36.8511C38.1934 36.8693 38.2044 36.8867 38.214 36.9034C38.251 37.1151 38.2673 37.2373 38.2673 37.2713C38.2646 37.3305 38.2508 37.3906 38.2281 37.453ZM39.7201 37.7089C39.5833 37.7963 39.3268 37.878 38.961 37.9563C38.5955 38.0171 38.3977 38.0195 38.3667 37.9767C38.3521 37.9563 38.3563 37.9407 38.3803 37.9284C38.4862 37.8995 38.5931 37.8697 38.6976 37.8335C38.8043 37.7998 38.904 37.7548 38.9992 37.7028C39.0514 37.6722 39.1191 37.594 39.2058 37.4795C39.2975 37.3477 39.3698 37.2177 39.4164 37.0805C39.4372 37.0253 39.4681 36.939 39.5071 36.8197C39.5519 36.6504 39.5417 36.54 39.4777 36.4837C39.4268 36.4392 39.2767 36.4119 39.0242 36.3896C38.9426 36.3797 38.8259 36.373 38.6688 36.3612C38.6219 36.2645 38.5859 36.1935 38.5622 36.1474C38.4902 36.0002 38.4529 35.9107 38.4526 35.8786C38.7653 35.9139 38.9378 35.9319 38.9624 35.9348C39.2186 35.9788 39.4423 36.0745 39.6276 36.2245C39.7156 36.2972 39.7955 36.3808 39.867 36.4789C39.9664 36.6169 40.0195 36.8147 40.0184 37.0717C40.0022 37.3697 39.8995 37.5843 39.7201 37.7089ZM38.9032 35.2807C38.8733 35.259 38.816 35.1547 38.7309 34.9749C38.6541 34.8235 38.6038 34.7235 38.5878 34.6807C38.7773 34.7753 38.9328 34.8519 39.0517 34.913C39.4132 35.0947 39.7209 35.2635 39.9691 35.4227C40.1653 35.5479 40.3091 35.6853 40.3986 35.8408C40.4445 35.9252 40.4754 36.0252 40.4941 36.1463L38.9032 35.2807ZM42.6468 34.9401C42.3799 35.2051 42.2183 35.3268 42.1594 35.3091C42.1876 35.4707 42.1511 35.6095 42.0514 35.7261C41.9421 35.8512 41.7091 36.0088 41.3579 36.1921C40.9991 36.3545 40.8034 36.4215 40.7612 36.3918C40.7236 36.3652 40.7186 36.3417 40.7436 36.3205C40.8554 36.2599 40.9711 36.2055 41.083 36.1471C41.1969 36.0903 41.2875 36.0187 41.3622 35.945C41.476 35.8282 41.5432 35.613 41.5464 35.3005C41.5328 34.9921 41.4611 34.816 41.3326 34.7619C41.2697 34.734 41.1062 34.7463 40.8498 34.7975C40.7658 34.8096 40.6431 34.8323 40.485 34.865C40.4104 34.7889 40.3538 34.7327 40.3163 34.6975C40.2003 34.5796 40.1384 34.5081 40.1291 34.4789C40.4549 34.4293 40.633 34.3982 40.6575 34.3947C40.9263 34.3652 41.1766 34.3926 41.4046 34.4797C41.5192 34.5231 41.6235 34.5812 41.7179 34.6528C41.8744 34.7675 41.9992 34.9151 42.0919 35.1022C42.1234 35.1705 42.1445 35.2359 42.1573 35.2976C42.1722 35.2643 42.245 35.151 42.3796 34.957C42.5305 34.7219 42.6124 34.5488 42.6332 34.4464C42.6828 34.1902 42.667 33.9496 42.5948 33.7296C42.5135 33.5047 42.3919 33.3782 42.2444 33.3501C42.2159 33.3447 42.1834 33.3429 42.1463 33.3439C42.282 33.4543 42.3551 33.5286 42.3719 33.5685C42.4015 33.6422 42.3751 33.7473 42.2874 33.8788C42.2007 34.015 42.0695 34.0844 41.9042 34.0911C41.8117 34.0938 41.6856 34.0691 41.5267 34.0198C41.4105 33.9694 41.2806 33.8545 41.1441 33.6872C40.9844 33.5074 40.9359 33.3801 40.9943 33.2925C41.0487 33.2182 41.1982 33.1588 41.4526 33.1145C41.7056 33.0634 41.9384 33.0526 42.1471 33.0856C42.4879 33.1392 42.7787 33.27 43.0166 33.4897C43.276 33.751 43.3266 34.0139 43.1752 34.2658C43.0416 34.4706 42.8683 34.6981 42.6468 34.9401Z" fill="#F4F3E5"/>
<path d="M16.4144 33.6553C16.4635 33.6393 16.5293 33.6167 16.6245 33.5846C16.6229 33.5795 16.585 33.5629 16.5117 33.5345C16.4376 33.5055 16.3824 33.4785 16.3448 33.4549C16.307 33.4297 16.2614 33.3906 16.2083 33.337C16.1718 33.2973 16.131 33.271 16.0851 33.2593C16.0811 33.3128 16.0899 33.3941 16.1102 33.5029C16.1302 33.6117 16.1534 33.6872 16.1779 33.7323C16.1928 33.7325 16.2742 33.7057 16.4144 33.6553Z" fill="#F4F3E5"/>
<path d="M29.0489 44.7262C29.0135 44.7471 28.9607 44.7669 28.8919 44.7852C28.8412 44.8023 28.8031 44.8243 28.7757 44.8594C28.8223 44.8934 28.9002 44.9234 29.0041 44.9628C29.1092 45.003 29.1868 45.0245 29.2348 45.0355C29.2409 45.0221 29.2476 44.935 29.2558 44.7731C29.2596 44.7206 29.263 44.6488 29.2697 44.5456C29.2644 44.5448 29.2361 44.57 29.183 44.6201C29.13 44.6705 29.0849 44.7064 29.0489 44.7262Z" fill="#F4F3E5"/>
<path d="M19.0339 38.7648C19.0115 38.7635 18.9779 38.7648 18.9334 38.7675C18.8753 38.8007 18.8513 38.8527 18.8609 38.9237C18.875 38.9918 18.9006 39.054 18.9499 39.103C18.9857 39.1486 19.0134 39.1654 19.0337 39.1534C19.0963 39.0893 19.143 39.025 19.175 38.9636C19.2096 38.891 19.2078 38.8428 19.1824 38.8101C19.1574 38.7854 19.1091 38.7696 19.0339 38.7648Z" fill="#F4F3E5"/>
<path d="M48.0189 31.3552C46.2565 37.9871 40.2381 42.7439 33.0839 42.7439C25.9551 42.7439 19.9532 37.9517 18.1674 31.3552H12.5655C14.466 40.9998 22.9303 48.2331 33.0839 48.2331C43.1928 48.2331 51.6262 40.935 53.5768 31.3552H48.0189ZM49.2829 32.577C49.6876 32.5638 50.0382 32.5662 50.3355 32.5863C50.5688 32.6021 50.7645 32.648 50.9253 32.727C51.0111 32.7715 51.1095 32.8369 51.1863 32.9152L49.3714 32.9457C49.3346 32.9422 49.2296 32.8859 49.0555 32.7782C48.9075 32.6887 48.8113 32.6297 48.7662 32.5981C48.9763 32.5871 49.1491 32.5802 49.2829 32.577ZM28.7493 43.1279C28.809 43.0856 28.846 43.0524 28.8556 43.043C28.8706 43.0834 28.9068 43.1424 28.9647 43.2156C29.0239 43.2935 29.0639 43.3345 29.0855 43.3404C29.0983 43.3437 29.1425 43.319 29.2193 43.2576C29.2945 43.2022 29.3398 43.17 29.355 43.1646L29.6299 43.4779C29.5635 43.5422 29.4923 43.6119 29.4193 43.6722C29.3452 43.733 29.3033 43.7617 29.2924 43.7593C29.2833 43.7569 29.2345 43.706 29.1465 43.6108C29.0591 43.5152 29.0161 43.4632 29.0145 43.4602C28.9738 43.4876 28.9332 43.5144 28.8919 43.5379C28.821 43.5851 28.7826 43.6125 28.777 43.6232C28.7325 43.6007 28.6738 43.5505 28.6069 43.4637C28.5546 43.3943 28.5208 43.3415 28.5069 43.3072C28.6205 43.2215 28.7013 43.1614 28.7493 43.1279ZM17.2252 32.5936C17.2513 32.5223 17.2793 32.4735 17.3017 32.4478C17.4393 32.5175 17.5433 32.5657 17.6033 32.5952C17.6742 32.633 17.7163 32.6544 17.7302 32.6595C17.703 32.6874 17.671 32.7412 17.6345 32.8214C17.5982 32.9028 17.5833 32.9545 17.5897 32.9752C17.5934 32.9878 17.6502 33.0143 17.7451 33.0599C17.8357 33.1065 17.8877 33.1349 17.9005 33.1462L17.7792 33.5034C17.6808 33.4699 17.579 33.434 17.4849 33.3916C17.3905 33.3488 17.3417 33.3212 17.3382 33.311C17.3353 33.3024 17.3537 33.2405 17.3937 33.1261C17.4201 33.0167 17.443 32.9591 17.4452 32.9564C17.398 32.9296 17.3532 32.9034 17.3094 32.876C17.2297 32.8291 17.1839 32.8055 17.1719 32.8045C17.1721 32.7554 17.1911 32.6844 17.2252 32.5936ZM16.1262 37.0888C16.0227 37.0717 15.9078 37.0529 15.8046 37.024C15.6991 36.9939 15.6444 36.9722 15.6383 36.9602C15.6335 36.9505 15.6412 36.8755 15.6615 36.7364C15.6817 36.5989 15.6812 36.5322 15.6847 36.5271C15.6737 36.5244 15.6215 36.5035 15.5252 36.4655C15.4314 36.4261 15.3797 36.4054 15.3703 36.4054C15.3663 36.3551 15.3738 36.2741 15.3938 36.164C15.4021 36.06 15.4207 35.9927 15.4332 35.97C15.6009 36.016 15.7081 36.0525 15.7676 36.0755C15.827 36.0983 15.8737 36.1163 15.9076 36.1281C15.8838 36.1659 15.8614 36.2347 15.8404 36.3347C15.8228 36.4344 15.8185 36.4968 15.8428 36.5158C15.8481 36.526 15.8814 36.5418 15.9433 36.5638C16.0961 36.6201 16.1766 36.6496 16.1846 36.6528L16.1262 37.0888ZM16.1518 35.788L16.1496 35.7883L16.1337 35.754L16.1153 35.7175L16.1171 35.7172L15.891 35.2156L15.8873 35.2164L15.6687 34.6772L15.6641 34.6782L15.494 34.2465C15.4548 34.1291 15.4914 34.0345 15.6031 33.9625C15.7132 33.9118 15.8249 33.8633 15.939 33.8161C15.911 33.7877 15.8284 33.7631 15.7071 33.7384C15.4946 33.6904 15.3866 33.6256 15.3834 33.5457C15.3791 33.4329 15.3701 33.3005 15.3434 33.1518C15.3317 32.9331 15.3181 32.7946 15.3021 32.7343C15.3655 32.73 15.5156 32.7525 15.7516 32.8042C15.9875 32.8524 16.147 32.9018 16.2302 32.9554C16.2808 32.9859 16.3616 33.0545 16.4811 33.1569C16.6042 33.2568 16.7365 33.3721 16.8855 33.498C16.9087 33.4953 16.9367 33.4846 16.9695 33.4653C17.0028 33.4471 17.0308 33.4367 17.0538 33.4337C17.1348 33.4602 17.1999 33.4793 17.2495 33.4927C17.4294 33.5364 17.5729 33.5741 17.6926 33.6028C17.6662 33.6221 17.5315 33.6706 17.2878 33.7475C17.0442 33.8252 16.8023 33.9043 16.5621 33.9858C16.3219 34.0678 16.1963 34.1141 16.1843 34.1241C16.1473 34.1581 16.1291 34.1961 16.135 34.2377C16.1462 34.2768 16.1616 34.3374 16.1907 34.4156L16.2027 34.4472L16.4341 35.0087L16.4349 35.0081L16.7173 35.6208L17.2167 36.5788C17.271 36.5402 17.3457 36.4738 17.4361 36.3832C17.5502 36.2709 17.6278 36.1809 17.6688 36.1109C17.7264 36.1211 17.8259 36.1332 17.968 36.1444C18.0624 36.1514 18.168 36.1597 18.2917 36.1632C18.2303 36.2484 18.176 36.3165 18.1338 36.3642C18.0045 36.5161 17.8829 36.626 17.7686 36.693C17.7275 36.7195 17.6723 36.7442 17.6043 36.7704C17.5534 36.7903 17.4702 36.8155 17.3558 36.846C17.3422 36.8508 17.3206 36.8573 17.291 36.8626C17.2615 36.8677 17.1812 36.8873 17.0498 36.9189C16.918 36.9505 16.8253 36.9682 16.7717 36.9717L16.1518 35.788ZM17.2588 37.3104C17.3364 37.285 17.4473 37.2496 17.5899 37.203L18.1024 37.9825C18.1701 37.9493 18.2338 37.8783 18.2938 37.7679C18.3487 37.6636 18.3783 37.5773 18.3853 37.5082C18.3898 37.4763 18.3962 37.427 18.4047 37.3595C18.4092 37.312 18.4066 37.2732 18.3967 37.2416L19.0369 37.125C19.0473 37.1681 19.0419 37.2375 19.0275 37.3295C19.011 37.4444 18.975 37.5487 18.9246 37.6379C18.8673 37.7489 18.7924 37.8504 18.6999 37.9426C18.6124 38.0321 18.5274 38.0986 18.4492 38.138C18.4383 38.1471 18.4199 38.1578 18.3954 38.1701C18.3709 38.1825 18.3375 38.1996 18.2959 38.2203C18.156 38.2915 18.0306 38.3425 17.9192 38.3741C17.7667 38.417 17.6718 38.4062 17.6313 38.3443L17.0114 37.3831C17.0274 37.3817 17.1097 37.3581 17.2588 37.3104ZM26.592 43.9911C26.5654 44.0616 26.5265 44.164 26.4779 44.2985C26.4571 44.3441 26.411 44.4175 26.3385 44.5217C26.2641 44.6246 26.1825 44.7342 26.0913 44.8492C26.0724 44.8779 26.0404 44.8913 25.997 44.8883C25.954 44.8859 25.9178 44.8749 25.8887 44.857L25.3749 44.6504L25.3789 44.6429L24.8769 44.4199L24.8764 44.4218L24.8476 44.4073L24.8054 44.3885L24.8062 44.3869L24.3316 44.1519L24.3295 44.1554L23.9802 43.9756L24.0069 43.8017L23.8347 43.8914L23.2777 43.569C23.279 43.5505 23.2793 43.5363 23.2782 43.5291C23.2689 43.4811 23.2598 43.4476 23.2449 43.4375C23.2358 43.4321 23.2105 43.4361 23.1676 43.4506C23.1231 43.4672 23.0945 43.4677 23.0788 43.4584L22.4938 43.0832C22.4952 43.0526 22.4946 43.0229 22.493 42.9963C22.4901 42.9685 22.4866 42.9524 22.4795 42.947C22.452 42.9615 22.4304 42.9682 22.4085 42.973C22.3648 42.9811 22.3219 42.9693 22.2771 42.9417L21.9494 42.7109L21.9547 42.7053L21.5124 42.3848L21.5098 42.3891L21.0456 42.0147L21.0429 42.0171L20.5822 41.6253L20.6899 41.3316C20.6278 41.3536 20.5737 41.3683 20.5222 41.382C20.4499 41.4007 20.3889 41.416 20.3433 41.4208L19.7157 40.827L19.7229 40.8211L19.3336 40.4309L19.3325 40.4317L19.3165 40.414L19.2782 40.3754L19.2806 40.3735L18.9406 39.9976L18.9361 40.0005L18.6865 39.7129C18.4572 39.7767 18.2111 39.7901 17.9443 39.7515C17.652 39.7156 17.463 39.6293 17.3705 39.5015C17.2796 39.3997 17.2148 39.2209 17.1665 38.9744C17.1108 38.7369 17.1241 38.596 17.1919 38.5633C17.2127 38.5526 17.23 38.5582 17.2433 38.5783C17.2697 38.6523 17.2974 38.7225 17.3324 38.7881C17.3588 38.8597 17.3908 38.9232 17.4286 38.9789C17.4609 39.0258 17.4993 39.0709 17.5449 39.1137C17.5923 39.1545 17.6448 39.1933 17.715 39.219C17.8493 39.2909 17.9752 39.3482 18.092 39.3906C18.2325 39.4388 18.3727 39.4637 18.4964 39.4766C18.4367 39.3999 18.3778 39.3217 18.3343 39.2308C18.2301 38.9921 18.2538 38.8326 18.4215 38.7391C18.5284 38.6799 18.7436 38.6222 19.0526 38.5743C19.4285 38.5089 19.6634 38.5268 19.7567 38.6351C19.8194 38.7128 19.7946 38.8326 19.6837 38.9969C19.5786 39.1579 19.4365 39.3102 19.2483 39.457L19.3525 39.5822L19.8127 40.0855L20.2428 40.5121L20.2388 40.5153L20.7686 41.014C20.7926 40.957 20.8019 40.8918 20.7958 40.8181C20.7886 40.7233 20.7552 40.6482 20.6915 40.5962C20.6616 40.5737 20.635 40.5518 20.6075 40.5349C20.5803 40.5166 20.5606 40.5035 20.5473 40.4952C20.5539 40.4893 20.6283 40.4663 20.7696 40.4242C20.9099 40.3819 21.0272 40.3454 21.113 40.3242C21.1298 40.3167 21.1741 40.3167 21.2367 40.3317C21.381 40.3652 21.5007 40.4274 21.6017 40.5134C21.7313 40.622 21.7838 40.7653 21.7697 40.9366C21.7614 41.0695 21.7199 41.1719 21.6489 41.2402C21.6073 41.2799 21.5335 41.3147 21.4274 41.3437C21.3157 41.3772 21.2517 41.3997 21.2285 41.4136L21.3839 41.5398L21.3855 41.5382L21.8577 41.9164L21.858 41.9155L22.4109 42.3132L22.408 42.3165L22.7535 42.5566C22.7917 42.5724 22.8287 42.5681 22.8706 42.5378C22.8876 42.5247 22.9196 42.4909 22.9652 42.4349C23.0799 42.3776 23.1668 42.3358 23.226 42.31C23.4035 42.2288 23.5115 42.1913 23.5553 42.1943C23.4995 42.2645 23.3833 42.3722 23.2116 42.5086C23.1559 42.5552 23.0745 42.6153 22.9674 42.6924L23.4547 43.0036C23.4822 43.0218 23.5107 43.0183 23.5355 43.0014C23.5606 42.9848 23.5872 42.9586 23.6147 42.9208C23.627 42.9042 23.6403 42.8841 23.656 42.8597C23.8283 42.7648 23.9664 42.6991 24.072 42.6555C24.1469 42.6265 24.2007 42.6112 24.2354 42.6086C24.2125 42.6316 24.1898 42.6587 24.1655 42.6895C24.1421 42.7206 24.0949 42.7854 24.0245 42.8841C23.9944 42.9235 23.9224 42.9993 23.8083 43.1119C23.7939 43.1266 23.7747 43.147 23.7507 43.1732L24.077 43.3554C24.0864 43.3603 24.0965 43.3533 24.1093 43.3335C24.1208 43.3171 24.1376 43.2842 24.1597 43.2343C24.1821 43.1842 24.1989 43.1496 24.2103 43.1336C24.3026 43.0805 24.4002 43.0298 24.5018 42.9829C24.6199 42.9277 24.6916 42.9009 24.7129 42.913L24.4847 43.3155C24.4575 43.3662 24.4458 43.4208 24.4535 43.4734C24.4575 43.531 24.4738 43.5669 24.5002 43.5816L24.5569 43.6127L25.1582 43.9067L25.7213 44.1551L25.7189 44.1591L26.1084 44.3157C26.1183 44.313 26.1316 44.2931 26.1489 44.2578C26.1932 44.1667 26.2628 43.9697 26.3636 43.6516C26.4161 43.4919 26.4721 43.3217 26.5286 43.1445C26.5139 43.1068 26.5033 43.0784 26.4974 43.0601C26.4769 43.0044 26.4673 42.9695 26.4681 42.9583C26.583 42.8575 26.6811 42.7734 26.7621 42.7053C26.924 42.5635 27.0149 42.4971 27.037 42.5062C27.0386 42.5062 27.0274 42.5448 27.0024 42.6196C26.977 42.6949 26.9712 42.7509 26.9858 42.7884C27.0274 42.8798 27.0669 42.9596 27.1069 43.0223C27.1925 43.17 27.2458 43.2493 27.2674 43.2574L26.735 43.6135C26.7275 43.6304 26.6795 43.7569 26.592 43.9911ZM27.8033 43.5294C27.702 43.9086 27.5988 44.2371 27.4924 44.5148C27.4092 44.7332 27.3021 44.9157 27.1711 45.0641C27.0989 45.1424 27.0096 45.2158 26.9037 45.2852L27.3762 43.6039C27.3903 43.569 27.4844 43.4672 27.6516 43.3061C27.7918 43.17 27.8827 43.0842 27.9251 43.0499C27.8766 43.2472 27.8361 43.4074 27.8033 43.5294ZM32.1966 47.0842C32.1289 47.1614 32.0873 47.1989 32.0735 47.1979C32.062 47.1968 31.9956 47.1512 31.8738 47.0687C31.777 46.9947 31.7165 46.9452 31.6906 46.9251C31.6373 46.9728 31.5882 47.0167 31.5418 47.0585C31.4949 47.0998 31.4706 47.1263 31.4661 47.1376C31.413 47.1121 31.3389 47.0759 31.2491 47.0057C31.1587 46.9331 31.1054 46.8814 31.0902 46.8527C31.228 46.708 31.3176 46.6163 31.3587 46.5839C31.3731 46.571 31.3893 46.5539 31.4082 46.5335C31.4352 46.5625 31.4904 46.6182 31.5754 46.6871C31.6615 46.7568 31.7183 46.7937 31.7455 46.7962C31.7589 46.7975 31.8002 46.7613 31.8682 46.6911C31.9367 46.6123 31.9791 46.5716 31.9956 46.5609L32.3763 46.8556C32.3244 46.9296 32.2644 47.0073 32.1966 47.0842ZM33.8323 46.2808L33.7697 46.2843V46.2808L33.2213 46.2822V46.2843L32.6062 46.269V46.2725L32.3113 46.2645C32.1873 46.2546 32.0948 46.1932 32.0361 46.0814C32.0105 46.0329 31.9905 45.9616 31.9759 45.8673L31.7642 46.2272L31.0936 46.1605L31.0934 46.1632L30.4703 46.0873L30.47 46.0881L30.4519 46.0852L30.3927 46.0785L30.393 46.0758L29.8984 45.9946L29.8971 45.9997L29.443 45.9115C29.323 45.8869 29.251 45.8041 29.2281 45.6652C29.2244 45.5409 29.2225 45.4152 29.2225 45.2876C29.1846 45.3045 29.1324 45.3546 29.0652 45.445C28.942 45.6141 28.8436 45.6765 28.7714 45.6374C28.6682 45.5814 28.544 45.5283 28.404 45.4557C28.2016 45.3608 28.0718 45.3021 28.0131 45.2839C28.0326 45.2236 28.1102 45.1006 28.2437 44.9109C28.3749 44.7243 28.4816 44.6003 28.5597 44.5534C28.6066 44.5241 28.6983 44.4882 28.8327 44.4429C28.9679 44.392 29.1215 44.3309 29.2905 44.2661C29.2964 44.2436 29.2972 44.213 29.2932 44.1734C29.2884 44.1342 29.2897 44.1021 29.2956 44.0804C29.3492 44.023 29.391 43.9745 29.423 43.9386C29.5289 43.8094 29.6174 43.6979 29.6886 43.6079C29.6963 43.6417 29.6888 43.7885 29.6662 44.0479C29.6454 44.3076 29.627 44.5662 29.6088 44.8232C29.5928 45.0813 29.5875 45.219 29.5915 45.2341C29.6088 45.282 29.6368 45.3182 29.6776 45.3351C29.7163 45.3557 29.7763 45.3747 29.8584 45.3914L29.8915 45.3981L30.5625 45.5061L31.088 45.569L31.0883 45.568L31.934 45.6473C31.9522 45.6119 31.9665 45.5463 31.978 45.4533C31.9892 45.3603 31.9988 45.2681 32.0068 45.1791C32.0132 45.1625 32.0673 45.0912 32.1694 44.9599C32.2702 44.8294 32.327 44.7568 32.3417 44.7442C32.343 44.7549 32.3441 44.7653 32.3438 44.7744C32.3425 44.8026 32.3411 44.831 32.3401 44.8567C32.3363 44.9285 32.3302 45.0097 32.3201 45.0982C32.31 45.1877 32.2948 45.2895 32.2745 45.4045C32.2612 45.4779 32.2793 45.5433 32.3278 45.5977C32.3771 45.6486 32.4334 45.6778 32.4963 45.6749L32.5334 45.677L33.1381 45.6912L33.8177 45.6883V45.6891L34.7194 45.6382C34.6914 45.5463 34.6655 45.4739 34.6429 45.4227C34.5709 45.2568 34.4797 45.1231 34.3677 45.0205L34.5714 44.4491C34.6178 44.4874 34.6781 44.5611 34.7532 44.679C34.8415 44.8133 34.914 44.95 34.9708 45.0885C34.9855 45.1223 34.9967 45.1587 35.0057 45.1979C35.0151 45.2359 35.0231 45.2863 35.0313 45.3474C35.0388 45.405 35.0439 45.4535 35.0465 45.4924C35.0487 45.5312 35.0521 45.569 35.0543 45.6076C35.0444 45.7127 35.0332 45.8284 35.0185 45.9573C35.0033 46.0844 34.9916 46.1688 34.9831 46.2103L33.8489 46.2797L33.8494 46.2811L33.8323 46.2808ZM34.6503 47.1065C34.5389 47.2091 34.4688 47.2598 34.4413 47.2617C34.4226 47.2713 34.3477 47.2231 34.2211 47.1274C34.0947 47.0296 34.0315 46.9725 34.0307 46.9543C34.0296 46.9315 34.083 46.8602 34.1915 46.7423C34.2981 46.6222 34.361 46.563 34.3818 46.5534C34.3896 46.5528 34.4624 46.6091 34.5983 46.723C34.7375 46.8364 34.8082 46.9007 34.8095 46.9151C34.813 46.9411 34.7596 47.0047 34.6503 47.1065ZM41.4449 44.4596C41.4155 44.4888 41.3835 44.5081 41.3499 44.5174L40.8487 44.753L40.8436 44.7442L40.3378 44.9553L40.3402 44.9588L39.7801 45.1657L39.7825 45.1705L39.2092 45.3576L38.9605 45.1354C38.9544 45.1888 38.9496 45.2445 38.9437 45.2946C38.9344 45.3648 38.9242 45.4184 38.9114 45.4586L38.0809 45.6926L38.0777 45.6835L37.5453 45.8142L37.5463 45.8185L36.9579 45.9308L36.9585 45.9335L36.7006 45.9866C36.6564 45.9903 36.6225 45.9917 36.6007 45.9917C36.5332 45.9858 36.4839 45.9707 36.4516 45.9461C36.4343 46.1251 36.3799 46.3234 36.2895 46.5507C36.1543 46.8532 35.9962 47.0132 35.8224 47.0416C35.6933 47.054 35.471 46.9974 35.159 46.8784C34.8519 46.7498 34.6965 46.6469 34.6898 46.5799C34.6871 46.5544 34.6925 46.541 34.7061 46.5408C34.7879 46.5844 34.8692 46.6303 34.9492 46.6665C35.0385 46.7045 35.13 46.7214 35.2236 46.7147C35.3065 46.7061 35.3929 46.6686 35.4838 46.623C35.5995 46.5617 35.7059 46.474 35.8013 46.3585C35.8589 46.283 35.9157 46.2149 35.973 46.146C36.0967 45.9909 36.1503 45.8689 36.1335 45.7856C36.1218 45.7285 36.0573 45.6411 35.9378 45.5173C35.8805 45.4559 35.8205 45.3959 35.76 45.3353C35.7939 45.2204 35.8272 45.1076 35.8589 45.0009C35.8901 44.8942 35.9114 44.8272 35.9237 44.8031C36.0256 44.9259 36.129 45.047 36.2356 45.1738C36.3887 45.3402 36.5412 45.4082 36.6913 45.3753L36.7137 45.3718L37.3069 45.2584L37.9681 45.0966L37.9703 45.1022L38.6675 44.9068C38.6198 44.8583 38.5582 44.8187 38.484 44.7878C38.3865 44.7468 38.3006 44.745 38.223 44.7691C38.1865 44.7782 38.1548 44.7892 38.1273 44.8031C38.0998 44.8176 38.0785 44.8275 38.0657 44.8339C38.0625 44.8254 38.0681 44.7525 38.0793 44.6145C38.0903 44.4762 38.102 44.3668 38.1118 44.2797C38.1097 44.2618 38.1297 44.231 38.1681 44.1811C38.2561 44.0785 38.3641 44.0104 38.4902 43.9691C38.6504 43.9155 38.8144 43.9415 38.9832 44.0412C39.1143 44.1152 39.201 44.1999 39.242 44.2921C39.2655 44.3451 39.2711 44.4234 39.2586 44.5241C39.2466 44.63 39.2434 44.6954 39.2484 44.7214L39.4385 44.656L39.4375 44.6533L40.0046 44.4454L40.0043 44.4443L40.6319 44.1833L40.6362 44.1902L41.0183 44.0174C41.0228 44.0093 41.0145 43.9876 40.9929 43.9515C40.9415 43.8619 40.81 43.684 40.5967 43.4064C40.4906 43.2662 40.3757 43.1161 40.2536 42.9562C40.2109 42.9422 40.1805 42.931 40.1603 42.9229C40.0982 42.9009 40.0624 42.8854 40.0523 42.8766C40.0368 42.7313 40.0243 42.6078 40.0166 42.5059C39.9979 42.3087 39.9936 42.1937 40.0155 42.1835C40.0182 42.1825 40.044 42.2157 40.0939 42.2822C40.1437 42.3489 40.1893 42.3888 40.2312 42.4019C40.3368 42.4328 40.432 42.4561 40.5162 42.4746C40.6986 42.507 40.8015 42.5204 40.8226 42.5116L40.7943 43.1129C40.8055 43.1301 40.8855 43.2461 41.0351 43.4602C41.0785 43.5232 41.1454 43.6162 41.2329 43.7381C41.259 43.7816 41.2937 43.8625 41.3387 43.9804C41.3833 44.0999 41.427 44.2288 41.4702 44.3663C41.4822 44.3993 41.4744 44.4304 41.4449 44.4596ZM41.1974 42.6662C41.1774 42.634 41.1476 42.5008 41.1121 42.2747C41.0822 42.0889 41.066 41.9699 41.0628 41.9196C41.2041 42.0782 41.3185 42.2103 41.4059 42.3143C41.6728 42.6279 41.8933 42.9095 42.0669 43.1604C42.2047 43.3584 42.2962 43.5492 42.3402 43.7349C42.3628 43.8354 42.3708 43.9464 42.3631 44.0662L41.1974 42.6662ZM42.5726 41.3999C42.5652 41.405 42.4887 41.4085 42.3495 41.4133C42.2055 41.4117 42.133 41.4096 42.1287 41.4085C42.1266 41.4549 42.1229 41.5004 42.1175 41.5444C42.1122 41.6242 42.1186 41.6821 42.1242 41.6918C42.0709 41.7049 41.9853 41.7076 41.8664 41.7004C41.7712 41.6934 41.7043 41.6843 41.6651 41.673C41.6637 41.5377 41.6637 41.4442 41.6651 41.3884C41.668 41.3201 41.6675 41.2801 41.6656 41.2673C41.7107 41.2828 41.7856 41.2949 41.8845 41.2914C41.989 41.2978 42.0511 41.2949 42.0706 41.2842C42.0823 41.2772 42.0882 41.2298 42.0903 41.1419C42.0919 41.0556 42.0949 41.0055 42.0999 40.9921L42.5558 40.9931C42.5676 41.0797 42.5761 41.1668 42.5804 41.2566C42.5852 41.3463 42.582 41.3938 42.5726 41.3999ZM50.9218 33.7309C50.8861 33.7609 50.8578 33.7934 50.8378 33.8274C50.817 33.8617 50.7965 33.9072 50.7789 33.9665C50.7888 33.9783 50.7805 34.0013 50.768 34.0402C50.7544 34.0798 50.7448 34.1026 50.7397 34.1096L50.572 34.5437L50.576 34.5445L50.3331 35.1253L50.3363 35.1263L50.0681 35.7084L50.0705 35.7092L49.9148 36.0276C49.9017 36.0538 49.9292 36.0879 50.0081 36.1383C50.0753 36.1819 50.1057 36.2248 50.0996 36.2669L49.0912 36.9085C49.0931 36.9272 49.1333 36.9696 49.2227 37.0403C49.3005 37.1057 49.3101 37.1864 49.2512 37.2812L49.1168 37.5045L49.1141 37.5034L48.7897 38.0418L48.7819 38.038L48.4844 38.4909L48.4884 38.4936L48.2108 38.8704C48.2039 38.898 48.1818 38.909 48.1511 38.9138C48.1229 38.9178 48.0919 38.9117 48.0613 38.8937L47.8064 38.7651C47.8266 38.7919 47.869 38.8514 47.9333 38.9462C47.997 39.0419 48.0325 39.0942 48.0391 39.1046L47.8773 39.3225L47.8813 39.3252L47.4806 39.8102L47.4827 39.8113L47.0852 40.268L47.0889 40.2717L46.8266 40.5585C46.8178 40.5544 46.7618 40.5566 46.6594 40.5641C46.4277 40.5748 46.296 40.5802 46.2664 40.5839C46.2706 40.5903 46.2922 40.6421 46.3349 40.745C46.3781 40.8605 46.4088 40.9361 46.4277 40.9704L45.8243 41.5519L45.8283 41.5559L45.3516 41.9643L45.3535 41.9667L44.8994 42.3315L44.904 42.3341L44.5347 42.6153C44.435 42.6863 44.3174 42.6882 44.1844 42.6209C44.0737 42.548 43.9727 42.485 43.8612 42.4062C43.8465 42.4379 43.8559 42.5049 43.8897 42.6102C43.9543 42.7996 43.9455 42.9095 43.8639 42.9385C43.7559 42.9854 43.621 43.0331 43.4693 43.0899C43.2592 43.1834 43.1224 43.2346 43.0686 43.2659C43.0299 43.2148 42.9723 43.0816 42.8963 42.8715C42.8179 42.6611 42.7841 42.515 42.7851 42.4164C42.7907 42.3647 42.8179 42.2757 42.8651 42.1514C42.9134 42.027 42.9592 41.8775 43.0126 41.7164C42.9971 41.6995 42.9715 41.6792 42.9337 41.6572C42.8966 41.6352 42.8713 41.6154 42.8553 41.5977C42.8393 41.524 42.827 41.4645 42.815 41.4206C42.7761 41.27 42.7422 41.1416 42.7086 41.0328C42.7371 41.0384 42.859 41.1357 43.0688 41.3104C43.28 41.4844 43.4909 41.6572 43.702 41.8282C43.914 41.9962 44.0287 42.0857 44.0441 42.0919C44.1001 42.1101 44.1497 42.1125 44.1937 42.0972C44.2379 42.083 44.2881 42.0426 44.3555 41.993L44.3827 41.9734L44.857 41.5961H44.856L45.3175 41.204L45.3164 41.2032L45.9456 40.592L44.78 40.548C44.7109 40.4714 44.6355 40.3805 44.5536 40.2744C44.4723 40.1688 44.3827 40.0415 44.2854 39.893L44.9173 38.8205L45.313 39.2477C45.2588 39.3549 45.2076 39.4353 45.1676 39.4937C44.9554 39.8389 44.8282 40.041 44.7976 40.1061L46.4461 40.0796L46.5271 39.9954L46.9273 39.5406L47.3166 39.0759L47.628 38.6694L46.2043 38.0788C46.1472 37.9801 46.1021 37.9051 46.0694 37.8526C45.9734 37.6934 45.9113 37.5889 45.8915 37.5406C45.8993 37.5179 46.1797 37.6339 46.7284 37.8807C47.2787 38.1243 47.6016 38.2693 47.696 38.3191C47.7837 38.366 47.8472 38.3647 47.8845 38.3146L47.9056 38.2864L48.286 37.721L48.2887 37.7229L48.6054 37.2059L48.61 37.2078L48.8153 36.8728C48.8243 36.8369 48.8097 36.8026 48.7633 36.7635C48.675 36.6903 48.6094 36.623 48.562 36.556C48.4919 36.4601 48.4519 36.3366 48.442 36.1849C48.4212 36.0292 48.4356 35.9166 48.4788 35.8416C48.5084 35.7899 48.5396 35.7582 48.5713 35.7491C48.5908 35.7435 48.6233 35.7473 48.6676 35.7607C48.6812 35.7657 48.7046 35.7722 48.7387 35.7821C48.7737 35.7909 48.8078 35.7963 48.843 35.7979C48.936 35.8014 49.0488 35.785 49.1941 35.7518C49.3445 35.721 49.4312 35.6848 49.4519 35.6441L49.4711 35.6071L49.729 35.0583H49.7282L49.9684 34.5003L49.966 34.5L50.1436 34.0487C50.1446 34.0388 50.1193 34.0297 50.0684 34.0209C49.9628 34.0037 49.7407 33.9906 49.4016 33.9812C49.2293 33.9745 49.0451 33.9673 48.8489 33.9608C48.8078 33.9836 48.7777 33.9997 48.7579 34.0099C48.6974 34.0415 48.6588 34.0579 48.6441 34.0571C48.5476 33.9895 48.4553 33.9233 48.3684 33.859C48.2204 33.7499 48.1519 33.6829 48.1607 33.6569C48.2119 33.6658 48.2655 33.6717 48.3218 33.6736C48.3769 33.676 48.4236 33.6661 48.4612 33.6446C48.5761 33.5591 48.6876 33.4854 48.7819 33.4184C48.8937 33.3383 48.9539 33.2866 48.963 33.2654C49.0398 33.3423 49.0981 33.401 49.1365 33.4399C49.2538 33.5599 49.325 33.632 49.3493 33.6545C49.369 33.6572 49.5071 33.669 49.7634 33.6878C49.8393 33.6942 49.9516 33.7014 50.0982 33.7119C50.1606 33.7159 50.2582 33.6535 50.3902 33.5248C50.5222 33.3949 50.6147 33.3287 50.7005 33.3386C50.8042 33.3506 50.9069 33.3849 51.0127 33.4442C51.0799 33.4833 51.1418 33.5323 51.2015 33.5916C51.1815 33.6052 51.1348 33.6264 51.0602 33.6556C51.0029 33.6752 50.9567 33.7001 50.9218 33.7309Z" fill="#F4F3E5"/>
<path d="M43.2405 41.9054C43.2368 41.908 43.2395 41.9429 43.2483 42.0128C43.2581 42.0817 43.2597 42.1364 43.2544 42.1744C43.2483 42.213 43.2323 42.2629 43.2083 42.3304C43.1853 42.3714 43.1797 42.4137 43.192 42.4542C43.2512 42.4419 43.3277 42.4036 43.4304 42.3524C43.5322 42.302 43.6037 42.2629 43.6466 42.2358C43.6389 42.2224 43.5671 42.1642 43.433 42.0589C43.3893 42.0243 43.3253 41.9724 43.2405 41.9054Z" fill="#F4F3E5"/>
<path d="M48.8739 36.1843C48.819 36.2878 48.8057 36.3668 48.8262 36.4175L48.9704 36.3344C49.0304 36.2972 49.0752 36.2706 49.1011 36.253C49.152 36.2205 49.1752 36.1991 49.1723 36.1868C49.1339 36.1685 49.0787 36.1551 49.0083 36.1458C48.9387 36.1369 48.8934 36.1498 48.8739 36.1843Z" fill="#F4F3E5"/>
</svg>
