<svg width="1731" height="37" viewBox="0 0 1731 37" fill="none" xmlns="http://www.w3.org/2000/svg">
<g clip-path="url(#clip0_1988_1513)">
<path d="M252.2 19.5006C252.2 19.5006 252.152 19.5006 252.128 19.5006C250.618 19.3302 249.216 18.6182 247.743 18.197C246.82 17.9262 245.861 17.6956 244.891 17.5451C243.477 17.3245 242.027 17.2042 240.601 17.0337C238.948 16.8331 237.33 16.1813 235.641 17.0237C234.874 17.4047 233.987 17.6554 233.112 17.856C231.435 18.2471 229.745 18.6081 228.044 18.909C227.229 19.0494 226.211 19.29 225.552 19.0193C224.054 18.4176 222.604 17.9663 220.927 18.0265C220.567 18.0365 220.208 17.6655 219.812 17.5852C219.033 17.4248 218.159 17.134 217.452 17.2944C216.421 17.5351 215.631 17.495 214.828 16.9234C214.648 16.793 214.36 16.7128 214.109 16.6927C212.419 16.5423 210.73 16.432 209.052 16.2916C207.207 16.1311 205.254 16.3116 203.78 15.008C203.648 14.8977 203.217 14.9277 202.977 15.008C201.228 15.5796 198.891 14.9879 197.669 13.7544C197.106 13.1929 196.351 12.7316 195.608 12.3204C194.518 11.7087 193.356 11.1872 192.229 10.6256C191.271 10.1543 190.264 10.1041 189.186 10.2546C188.838 10.3047 188.371 10.2345 188.084 10.064C187.221 9.57264 186.442 8.991 185.591 8.47956C185.316 8.30908 184.812 8.11854 184.597 8.2088C182.752 9.01106 181.374 7.81769 179.876 7.40653C178.294 6.98535 176.88 6.14297 175.323 5.63153C174.64 5.41091 173.801 5.52122 173.034 5.51119C172.303 5.51119 171.536 5.6917 170.853 5.54127C169.056 5.14014 167.307 4.59862 165.521 4.11726C163.005 3.44536 160.465 2.7835 158.188 1.63024C157.086 1.06866 156.199 1.14889 155.145 1.61019C154.45 1.91104 153.671 2.15171 152.904 2.22191C151.442 2.37234 149.956 2.28208 148.507 2.47262C146.877 2.69324 145.295 3.12446 143.69 3.45539C143.45 3.50553 143.175 3.55567 142.959 3.4955C140.574 2.83364 138.226 2.55285 135.913 3.74621C135.638 3.88661 135.003 3.76627 134.667 3.58576C133.876 3.16457 133.181 2.82361 132.151 3.21471C131.6 3.42531 130.833 3.27488 130.162 3.26485C129.814 3.26485 129.455 3.23477 129.108 3.19466C128.365 3.1044 127.61 3.0342 126.867 2.90384C126.052 2.75341 125.237 2.35228 124.434 2.38236C122.433 2.45256 120.492 2.31217 118.599 1.76061C118.276 1.67036 117.964 1.55002 117.677 1.39959C116.574 0.817952 115.568 0.216255 114.142 0.0758595C112.153 -0.114678 110.32 0.0457746 108.474 0.647472C107.959 0.817952 107.288 0.687585 106.689 0.667528C105.97 0.637443 105.203 0.416821 104.532 0.557217C102.831 0.898179 101.177 1.44973 99.4757 1.81075C98.1816 2.08152 96.8396 2.17177 95.5096 2.34225C94.7068 2.45256 93.7602 2.37234 93.1371 2.7133C91.879 3.39522 90.537 3.43533 89.1471 3.60581C87.7572 3.76627 86.4032 4.17743 85.0372 4.47828C84.4022 4.61867 83.7911 4.80921 83.156 4.91952C82.6288 5.00977 81.838 4.84932 81.5744 5.10003C80.7955 5.82207 79.789 5.86218 78.8185 6.0828C77.776 6.32348 76.6976 6.60427 75.775 7.05554C74.8764 7.49679 74.1694 8.21882 73.3307 8.77038C73.0191 8.97095 72.6117 9.11134 72.2163 9.16148C71.2578 9.29185 70.2513 9.27179 69.3286 9.48239C67.8548 9.81332 66.429 10.3147 64.9671 10.6958C64.6077 10.7861 64.1643 10.7159 63.7689 10.6858C62.8583 10.6156 61.8158 10.2546 61.0729 10.5153C59.2037 11.1571 57.8138 10.766 56.4359 9.69298C54.7464 8.37928 52.6974 8.35922 50.7923 9.11134C48.8631 9.88352 46.8621 9.92363 44.8491 10.0339C44.4178 10.054 43.9744 9.88352 43.5311 9.83338C43.2915 9.80329 42.8841 9.77321 42.8361 9.85343C42.2131 10.9565 40.8711 11.0669 39.7447 11.3878C38.4387 11.7588 37.0607 11.9794 35.6948 12.1599C34.3648 12.3304 33.0108 12.3505 31.6688 12.4608C31.1056 12.5009 30.4226 12.4307 30.0272 12.6814C29.0926 13.2631 28.2179 13.2229 27.1635 13.0023C26.6123 12.892 26.169 12.9121 25.8215 13.0625C25.3422 13.1929 25.1026 14.8575 24.6712 14.9077C24.2518 14.9478 22.814 15.5194 22.3227 15.5996C21.448 15.4994 20.5733 15.369 19.6986 15.2186C18.8599 15.0681 17.9732 14.5266 17.2303 14.657C15.0615 15.0481 12.737 14.326 10.6761 15.3088C10.5922 15.3489 10.4484 15.3088 10.3406 15.3289C7.89623 15.5595 5.43989 15.7902 2.99553 16.0309C2.73193 16.0509 2.40841 16.1813 2.22868 16.1011C0.790821 15.4292 1.41389 16.1913 0 16.2114V37H252.188V19.5006H252.2Z" fill="#494343"/>
<path d="M497.971 16.46C497.791 16.55 497.468 16.42 497.204 16.39C494.76 16.16 492.303 15.93 489.859 15.69C489.751 15.68 489.607 15.72 489.523 15.67C487.462 14.68 485.138 15.41 482.969 15.02C482.226 14.89 481.339 15.43 480.5 15.58C479.35 15.78 478.188 15.98 477.013 16.05C474.94 16.19 472.855 16.31 470.782 16.3C470.339 16.3 469.932 16.86 469.536 17.52C469.177 17.54 468.829 17.57 468.47 17.59C467.583 17.63 466.876 17.73 466.361 18.42C465.882 19.06 463.329 19.63 462.586 19.23C461.16 18.45 459.567 18.83 458.057 18.65C457.637 18.6 457.014 18.8 456.715 19.07C455.648 20.02 454.498 19.82 453.276 19.43C452.82 19.29 452.341 19.09 451.886 19.11C449.453 19.2 447.057 19.4 444.588 19.34C442.324 19.28 440.131 19.08 437.926 18.75C437.015 18.61 436.093 18.07 435.266 18.17C434.115 18.31 432.785 17.55 431.767 18.58C431.659 18.69 431.192 18.58 430.892 18.54C430.377 18.48 429.874 18.35 429.358 18.35C428.088 18.33 426.806 18.45 425.536 18.35C423.894 18.23 422.276 17.93 420.635 17.79C420.18 17.75 419.532 17.83 419.245 18.08C418.526 18.7 417.651 18.51 416.824 18.63C416.345 18.7 415.866 18.77 415.41 18.87C414.44 19.09 413.493 19.41 412.523 19.57C411.384 19.76 410.222 19.83 409.06 19.93C408.065 20.01 406.963 20.29 406.088 20.04C405.093 19.75 404.254 19.87 403.392 20.08C400.815 20.69 398.251 21.34 395.579 21.6C394.189 21.74 392.787 21.86 391.421 22.12C390.343 22.32 389.36 22.37 388.377 21.88C388.21 21.79 387.934 21.84 387.706 21.83C385.406 21.75 383.201 21.48 381.068 20.62C380.109 20.23 378.995 19.8 377.737 20.29C375.939 20.99 374.046 20.95 372.189 20.35C371.997 20.29 371.662 20.26 371.542 20.35C370.727 20.97 369.948 20.63 369.133 20.36C368.115 20.03 367.168 20.02 366.341 20.8C366.078 21.04 365.562 21.11 365.155 21.22C363.849 21.58 362.531 21.92 361.225 22.27C360.865 22.37 360.47 22.63 360.17 22.56C358.229 22.13 356.06 22.34 354.658 21.36C353.412 21.65 352.369 22.13 351.375 22.07C350.224 22 349.134 21.41 347.996 21.13C347.169 20.92 346.222 20.96 345.443 20.68C344.245 20.25 343.167 19.6 341.98 19.11C341.321 18.84 340.59 18.6 339.859 18.56C338.829 18.5 337.786 18.69 336.744 18.66C334.527 18.59 332.31 18.52 330.105 18.32C328.188 18.14 326.451 18.34 324.713 19.07C324.09 19.33 323.144 19.32 322.449 19.16C320.208 18.65 318.003 18.01 315.798 17.42C314.588 17.1 313.485 16.56 312.095 16.79C308.776 17.35 305.481 15.8 302.15 16.66C302.09 16.68 301.994 16.64 301.922 16.64C301.143 16.69 300.364 16.77 299.586 16.8C298.962 16.83 298.291 16.94 297.74 16.78C296.865 16.53 296.17 16.59 295.38 16.96C293.402 17.9 291.305 18.31 289.041 17.74C288.262 17.54 287.471 17.32 287.052 18.23C286.98 18.37 286.596 18.5 286.357 18.49C284.212 18.43 282.043 18.89 279.934 18.2C279.215 17.96 278.424 17.83 277.657 17.72C276.914 17.61 276.159 17.54 275.404 17.54C274.266 17.54 273.104 17.5 272.001 17.68C269.533 18.08 267.1 18.6 264.656 19.06C264.452 19.1 264.213 19.01 263.997 18.98C263.853 18.97 263.697 18.95 263.554 18.94C263.338 18.82 263.038 18.77 262.667 18.77C262.439 18.77 262.223 18.78 261.996 18.79C261.876 18.78 261.768 18.81 261.648 18.79C261.253 18.8 260.857 18.8 260.462 18.81L259.312 18.83C259.18 18.83 259.06 18.83 258.928 18.83C258.221 18.82 257.49 18.51 256.819 18.59C255.333 18.77 253.884 19.16 252.398 19.36C250.948 19.56 249.426 19.87 248 19.73V37.18H500.2V16.44C498.786 16.42 499.409 15.79 497.971 16.46Z" fill="#494343"/>
<path d="M747.92 36.8968H748.4V7.26681C747.705 7.31681 745.943 7.11681 745.332 7.35681C744.326 7.73681 743.235 8.00681 742.085 7.53681C741.761 7.40681 741.318 7.47681 740.934 7.46681C740.108 7.43681 739.245 7.50681 738.466 7.34681C737.184 7.07681 735.77 7.13681 734.62 6.42681C734.284 6.22681 733.637 6.33681 733.134 6.33681C732.75 6.33681 732.355 6.44681 731.971 6.41681C730.593 6.32681 729.311 6.27681 727.897 6.65681C726.771 6.95681 725.381 6.60681 724.099 6.55681C723.847 6.54681 723.584 6.55681 723.332 6.57681C721.882 6.71681 720.528 6.75681 719.042 6.37681C717.58 5.99681 715.855 6.18681 714.249 6.25681C711.505 6.38681 708.917 5.93681 706.34 5.25681C705.969 5.15681 705.514 5.13681 705.142 5.20681C701.631 5.85681 698.096 6.34681 694.478 6.33681C694.202 6.33681 693.771 6.38681 693.675 6.26681C692.776 5.19681 691.698 5.82681 690.631 5.97681C688.822 6.23681 686.976 6.37681 685.167 6.64681C684.46 6.75681 683.753 7.02681 683.118 7.31681C681.716 7.95681 680.362 7.87681 678.912 7.41681C677.774 7.05681 676.659 6.76681 675.293 7.00681C674.514 7.14681 673.52 6.50681 672.621 6.20681C671.003 5.66681 669.422 5.02681 667.756 4.60681C667.133 4.44681 666.318 4.79681 665.575 4.89681C663.838 5.11681 662.232 4.81681 660.662 4.18681C659.512 3.71681 658.314 3.58681 656.936 3.61681C654.935 3.65681 653.017 3.77681 651.088 4.18681C650.573 4.29681 649.914 4.10681 649.351 3.95681C647.23 3.38681 645.133 2.75681 643 2.20681C642.664 2.11681 642.197 2.42681 641.778 2.44681C641.166 2.47681 640.543 2.44681 639.932 2.36681C639.189 2.26681 638.482 2.05681 637.751 1.93681C635.618 1.59681 633.426 1.76681 631.293 1.18681C629.172 0.606808 626.907 0.346808 624.69 0.0168082C624.199 -0.0531918 623.576 0.106808 623.097 0.286808C620.856 1.15681 618.423 1.45681 616.015 1.33681C614.637 1.26681 613.355 1.34681 612.025 1.38681C610.647 1.42681 609.628 1.74681 608.442 2.15681C606.764 2.74681 604.919 3.02681 603.181 3.50681C600.917 4.13681 598.376 4.51681 596.531 5.61681C595.105 6.46681 593.415 5.86681 592.229 6.79681C590.611 8.06681 588.251 8.16681 586.406 9.08681C585.914 9.33681 585.495 9.67681 584.968 9.86681C583.841 10.2868 582.691 10.6568 581.541 11.0168C580.714 11.2768 579.803 11.3868 579.036 11.7168C577.083 12.5568 574.926 12.6268 572.817 12.9068C572.458 12.9568 572.002 13.1268 571.823 13.3568C570.397 15.1568 568.036 15.5068 565.735 16.0068C565.064 16.1568 564.489 16.5768 563.842 16.8268C562.943 17.1768 562.033 17.5168 561.098 17.8068C560.199 18.0768 559.097 18.0968 558.378 18.5368C556.772 19.5068 554.987 19.4468 553.177 19.4768C552.758 19.4768 552.267 19.4768 551.919 19.6368C550.134 20.4368 548.193 20.3568 546.539 19.7568C544.682 19.0868 542.908 19.1368 541.063 19.3368C539.937 19.4668 539.17 18.9668 538.283 18.6368C537.876 18.4868 537.456 18.2968 537.025 18.2168C535.467 17.9368 533.897 17.5668 532.316 17.4768C531.225 17.4168 530.099 17.7568 528.984 17.9068C528.948 17.9068 528.901 17.9368 528.865 17.9268C526.66 17.1068 524.395 18.4068 522.166 17.7968C521.795 17.6968 521.315 17.8768 520.884 17.9168C519.806 18.0368 518.727 18.2868 517.709 17.6568C517.481 17.5168 516.978 17.6768 516.606 17.6568C515.612 17.6168 514.521 17.7568 513.635 17.4868C511.609 16.8568 509.656 16.9568 507.631 17.3768C507.044 17.4968 506.385 17.4468 505.774 17.4068C503.677 17.2468 501.58 17.2668 499.543 17.5868C499.052 17.5768 499.112 17.4468 498.836 17.3868C497.973 17.1968 496.2 16.7168 496.2 16.7168V36.8768H747.932L747.92 36.8968Z" fill="#494343"/>
<path d="M994.203 16.4991C993.999 16.5791 993.652 16.4591 993.376 16.4291C990.728 16.1991 988.092 15.2991 985.444 15.0691C985.324 15.0591 985.168 15.0991 985.072 15.0491C982.843 14.0591 980.339 14.7891 977.99 14.3991C977.188 14.2691 976.229 14.8091 975.318 14.9591C974.072 15.1591 972.658 11.8791 971.388 11.9591C969.147 12.0991 967.386 11.9591 965.145 11.9591C964.126 12.0291 962.245 8.73914 961.227 8.78914C960.304 8.82914 957.009 6.34914 956.47 7.03914C955.966 7.67914 953.306 8.24914 952.527 7.84914C951.041 7.06914 949.376 7.44914 947.794 7.26914C947.351 7.21914 946.704 7.41914 946.392 7.68914C945.278 8.63914 944.079 8.43914 942.797 8.04914C942.33 7.90914 941.815 7.70914 941.335 7.72914C938.795 7.82914 936.291 8.01914 933.714 7.95914C931.354 7.89914 929.053 7.69914 926.752 7.36914C925.806 7.22914 924.835 6.68914 923.972 6.78914C922.774 6.92914 921.384 6.16914 920.318 7.19914C920.21 7.30914 919.719 7.19914 919.407 7.15914C918.868 7.09914 918.341 6.96914 917.813 6.96914C916.483 6.94914 915.141 7.06914 913.823 6.96914C912.11 6.84914 910.408 6.54914 908.695 6.40914C908.215 6.36914 907.544 6.44914 907.245 6.69914C906.502 7.31914 905.579 7.12914 904.716 7.24914C904.225 7.31914 903.722 7.38914 903.23 7.48914C902.224 7.70914 901.229 8.02914 900.211 8.18914C899.024 8.37914 897.802 8.44914 896.592 8.53914C895.549 8.61914 894.399 8.89914 893.488 8.64914C892.446 8.35914 891.571 8.47914 890.673 8.68914C887.976 9.29914 885.304 9.94914 882.5 10.2091C881.05 10.3391 879.577 10.4691 878.163 10.7191C877.036 10.9191 876.006 10.9691 874.987 10.4791C874.807 10.3891 874.52 10.4391 874.292 10.4291C871.896 10.3491 869.583 10.0791 867.366 9.21914C866.36 8.82914 865.209 8.39914 863.891 8.88914C862.01 9.58914 860.033 9.54914 858.092 8.94914C857.888 8.88914 857.54 8.85914 857.409 8.94914C856.558 9.56914 855.743 9.22914 854.892 8.95914C853.826 8.62914 852.831 8.61914 851.968 9.39914C851.705 9.63914 851.154 9.70914 850.722 9.81914C849.356 10.1791 847.99 10.5191 846.624 10.8691C846.253 10.9691 845.833 11.2291 845.522 11.1591C843.485 10.7291 841.22 10.9391 839.758 9.95914C838.464 10.2491 837.373 10.7291 836.331 10.6691C835.133 10.5991 833.994 10.0091 832.796 9.72914C831.921 9.51914 830.951 9.55914 830.124 9.27914C828.866 8.84914 827.739 8.19914 826.505 7.70914C825.822 7.43914 825.043 7.20914 824.3 7.15914C823.222 7.09914 822.131 7.28914 821.041 7.25914C818.728 7.18914 816.404 7.11914 814.103 6.91914C812.102 6.73914 810.281 6.93914 808.471 7.66914C807.812 7.92914 806.842 7.91914 806.099 7.75914C803.762 7.24914 801.461 6.60914 799.149 6.01914C797.89 5.69914 796.728 5.15914 795.278 5.38914C791.815 5.94914 788.376 4.39914 784.889 5.25914C784.817 5.27914 784.733 5.23914 784.65 5.23914C783.835 5.28914 783.032 5.36914 782.217 5.39914C781.57 5.42914 780.863 5.53914 780.288 5.37914C779.377 5.12914 778.646 5.18914 777.819 5.55914C775.746 6.49914 773.554 6.90914 771.193 6.33914C770.378 6.13914 769.551 5.91914 769.108 6.83914C769.036 6.97914 768.629 7.10914 768.377 7.09914C766.136 7.03914 763.872 7.49914 761.667 6.80914C760.912 6.56914 760.097 6.43914 759.294 6.32914C758.515 6.21914 757.724 6.14914 756.946 6.14914C755.759 6.14914 754.549 6.10914 753.399 6.28914C750.87 6.65914 747.108 6.87914 744.543 7.19914C744.507 7.19914 744.46 7.19914 744.412 7.19914V36.8291H996.612V16.6691C995.881 16.5091 995.761 15.8291 994.203 16.4991Z" fill="#494343"/>
<path d="M1244.8 19.5006C1244.8 19.5006 1244.75 19.5006 1244.73 19.5006C1243.22 19.3302 1241.82 18.6182 1240.34 18.197C1239.42 17.9262 1238.46 17.6956 1237.49 17.5451C1236.08 17.3245 1234.63 17.2042 1233.2 17.0337C1231.55 16.8331 1229.93 16.1813 1228.24 17.0237C1227.47 17.4047 1226.59 17.6554 1225.71 17.856C1224.04 18.2471 1222.35 18.6081 1220.64 18.909C1219.83 19.0494 1218.81 19.29 1218.15 19.0193C1216.65 18.4176 1215.2 17.9663 1213.53 18.0265C1213.17 18.0365 1212.81 17.6655 1212.41 17.5852C1211.63 17.4248 1210.76 17.134 1210.05 17.2944C1209.02 17.5351 1208.23 17.495 1207.43 16.9234C1207.25 16.793 1206.96 16.7128 1206.71 16.6927C1205.02 16.5423 1203.33 16.432 1201.65 16.2916C1199.81 16.1311 1197.85 16.3116 1196.38 15.008C1196.25 14.8977 1195.82 14.9277 1195.58 15.008C1193.83 15.5796 1191.49 14.9879 1190.27 13.7544C1189.71 13.1929 1188.95 12.7316 1188.21 12.3204C1187.12 11.7087 1185.96 11.1872 1184.83 10.6256C1183.87 10.1543 1182.86 10.1041 1181.79 10.2546C1181.44 10.3047 1180.97 10.2345 1180.68 10.064C1179.82 9.57264 1179.04 8.991 1178.19 8.47956C1177.92 8.30908 1177.41 8.11854 1177.2 8.2088C1175.35 9.01106 1173.97 7.81769 1172.48 7.40653C1170.89 6.98535 1169.48 6.14297 1167.92 5.63153C1167.24 5.41091 1166.4 5.52122 1165.63 5.51119C1164.9 5.51119 1164.14 5.6917 1163.45 5.54127C1161.66 5.14014 1159.91 4.59862 1158.12 4.11726C1155.61 3.44536 1153.06 2.7835 1150.79 1.63024C1149.69 1.06866 1148.8 1.14889 1147.74 1.61019C1147.05 1.91104 1146.27 2.15171 1145.5 2.22191C1144.04 2.37234 1142.56 2.28208 1141.11 2.47262C1139.48 2.69324 1137.9 3.12446 1136.29 3.45539C1136.05 3.50553 1135.77 3.55567 1135.56 3.4955C1133.17 2.83364 1130.83 2.55285 1128.51 3.74621C1128.24 3.88661 1127.6 3.76627 1127.27 3.58576C1126.48 3.16457 1125.78 2.82361 1124.75 3.21471C1124.2 3.42531 1123.43 3.27488 1122.76 3.26485C1122.41 3.26485 1122.06 3.23477 1121.71 3.19466C1120.96 3.1044 1120.21 3.0342 1119.47 2.90384C1118.65 2.75341 1117.84 2.35228 1117.03 2.38236C1115.03 2.45256 1113.09 2.31217 1111.2 1.76061C1110.88 1.67036 1110.56 1.55002 1110.28 1.39959C1109.17 0.817952 1108.17 0.216255 1106.74 0.0758595C1104.75 -0.114678 1102.92 0.0457746 1101.07 0.647472C1100.56 0.817952 1099.89 0.687585 1099.29 0.667528C1098.57 0.637443 1097.8 0.416821 1097.13 0.557217C1095.43 0.898179 1093.78 1.44973 1092.08 1.81075C1090.78 2.08152 1089.44 2.17177 1088.11 2.34225C1087.31 2.45256 1086.36 2.37234 1085.74 2.7133C1084.48 3.39522 1083.14 3.43533 1081.75 3.60581C1080.36 3.76627 1079 4.17743 1077.64 4.47828C1077 4.61867 1076.39 4.80921 1075.76 4.91952C1075.23 5.00977 1074.44 4.84932 1074.17 5.10003C1073.4 5.82207 1072.39 5.86218 1071.42 6.0828C1070.38 6.32348 1069.3 6.60427 1068.38 7.05554C1067.48 7.49679 1066.77 8.21882 1065.93 8.77038C1065.62 8.97095 1065.21 9.11134 1064.82 9.16148C1063.86 9.29185 1062.85 9.27179 1061.93 9.48239C1060.45 9.81332 1059.03 10.3147 1057.57 10.6958C1057.21 10.7861 1056.76 10.7159 1056.37 10.6858C1055.46 10.6156 1054.42 10.2546 1053.67 10.5153C1051.8 11.1571 1050.41 10.766 1049.04 9.69298C1047.35 8.37928 1045.3 8.35922 1043.39 9.11134C1041.46 9.88352 1039.46 9.92363 1037.45 10.0339C1037.02 10.054 1036.57 9.88352 1036.13 9.83338C1035.89 9.80329 1035.48 9.77321 1035.44 9.85343C1034.81 10.9565 1033.47 11.0669 1032.34 11.3878C1031.04 11.7588 1029.66 11.9794 1028.29 12.1599C1026.96 12.3304 1025.61 12.3505 1024.27 12.4608C1023.71 12.5009 1023.02 12.4307 1022.63 12.6814C1021.69 13.2631 1020.82 13.2229 1019.76 13.0023C1019.21 12.892 1018.77 12.9121 1018.42 13.0625C1017.94 13.1929 1017.7 14.8575 1017.27 14.9077C1016.85 14.9478 1015.41 15.5194 1014.92 15.5996C1014.05 15.4994 1013.17 15.369 1012.3 15.2186C1011.46 15.0681 1010.57 14.5266 1009.83 14.657C1007.66 15.0481 1005.34 14.326 1003.28 15.3088C1003.19 15.3489 1003.05 15.3088 1002.94 15.3289C1000.5 15.5595 998.04 15.7902 995.596 16.0309C995.332 16.0509 995.009 16.1813 994.829 16.1011C993.391 15.4292 994.014 16.1913 992.6 16.2114V37H1244.79V19.5006H1244.8Z" fill="#494343"/>
<path d="M1490.77 16.46C1490.59 16.55 1490.27 16.42 1490 16.39C1487.56 16.16 1485.1 15.93 1482.66 15.69C1482.55 15.68 1482.41 15.72 1482.32 15.67C1480.26 14.68 1477.94 15.41 1475.77 15.02C1475.03 14.89 1474.14 15.43 1473.3 15.58C1472.15 15.78 1470.99 15.98 1469.81 16.05C1467.74 16.19 1465.66 16.31 1463.58 16.3C1463.14 16.3 1462.73 16.86 1462.34 17.52C1461.98 17.54 1461.63 17.57 1461.27 17.59C1460.38 17.63 1459.68 17.73 1459.16 18.42C1458.68 19.06 1456.13 19.63 1455.39 19.23C1453.96 18.45 1452.37 18.83 1450.86 18.65C1450.44 18.6 1449.81 18.8 1449.52 19.07C1448.45 20.02 1447.3 19.82 1446.08 19.43C1445.62 19.29 1445.14 19.09 1444.69 19.11C1442.25 19.2 1439.86 19.4 1437.39 19.34C1435.12 19.28 1432.93 19.08 1430.73 18.75C1429.82 18.61 1428.89 18.07 1428.07 18.17C1426.92 18.31 1425.59 17.55 1424.57 18.58C1424.46 18.69 1423.99 18.58 1423.69 18.54C1423.18 18.48 1422.67 18.35 1422.16 18.35C1420.89 18.33 1419.61 18.45 1418.34 18.35C1416.69 18.23 1415.08 17.93 1413.44 17.79C1412.98 17.75 1412.33 17.83 1412.05 18.08C1411.33 18.7 1410.45 18.51 1409.62 18.63C1409.15 18.7 1408.67 18.77 1408.21 18.87C1407.24 19.09 1406.29 19.41 1405.32 19.57C1404.18 19.76 1403.02 19.83 1401.86 19.93C1400.87 20.01 1399.76 20.29 1398.89 20.04C1397.89 19.75 1397.05 19.87 1396.19 20.08C1393.62 20.69 1391.05 21.34 1388.38 21.6C1386.99 21.74 1385.59 21.86 1384.22 22.12C1383.14 22.32 1382.16 22.37 1381.18 21.88C1381.01 21.79 1380.73 21.84 1380.51 21.83C1378.21 21.75 1376 21.48 1373.87 20.62C1372.91 20.23 1371.8 19.8 1370.54 20.29C1368.74 20.99 1366.85 20.95 1364.99 20.35C1364.8 20.29 1364.46 20.26 1364.34 20.35C1363.53 20.97 1362.75 20.63 1361.93 20.36C1360.91 20.03 1359.97 20.02 1359.14 20.8C1358.88 21.04 1358.36 21.11 1357.96 21.22C1356.65 21.58 1355.33 21.92 1354.02 22.27C1353.67 22.37 1353.27 22.63 1352.97 22.56C1351.03 22.13 1348.86 22.34 1347.46 21.36C1346.21 21.65 1345.17 22.13 1344.18 22.07C1343.02 22 1341.93 21.41 1340.8 21.13C1339.97 20.92 1339.02 20.96 1338.24 20.68C1337.05 20.25 1335.97 19.6 1334.78 19.11C1334.12 18.84 1333.39 18.6 1332.66 18.56C1331.63 18.5 1330.59 18.69 1329.54 18.66C1327.33 18.59 1325.11 18.52 1322.91 18.32C1320.99 18.14 1319.25 18.34 1317.51 19.07C1316.89 19.33 1315.94 19.32 1315.25 19.16C1313.01 18.65 1310.8 18.01 1308.6 17.42C1307.39 17.1 1306.29 16.56 1304.9 16.79C1301.58 17.35 1298.28 15.8 1294.95 16.66C1294.89 16.68 1294.79 16.64 1294.72 16.64C1293.94 16.69 1293.16 16.77 1292.39 16.8C1291.76 16.83 1291.09 16.94 1290.54 16.78C1289.67 16.53 1288.97 16.59 1288.18 16.96C1286.2 17.9 1284.11 18.31 1281.84 17.74C1281.06 17.54 1280.27 17.32 1279.85 18.23C1279.78 18.37 1279.4 18.5 1279.16 18.49C1277.01 18.43 1274.84 18.89 1272.73 18.2C1272.02 17.96 1271.22 17.83 1270.46 17.72C1269.71 17.61 1268.96 17.54 1268.2 17.54C1267.07 17.54 1265.9 17.5 1264.8 17.68C1262.33 18.08 1259.9 18.6 1257.46 19.06C1257.25 19.1 1257.01 19.01 1256.8 18.98C1256.65 18.97 1256.5 18.95 1256.35 18.94C1256.14 18.82 1255.84 18.77 1255.47 18.77C1255.24 18.77 1255.02 18.78 1254.8 18.79C1254.68 18.78 1254.57 18.81 1254.45 18.79C1254.05 18.8 1253.66 18.8 1253.26 18.81L1252.11 18.83C1251.98 18.83 1251.86 18.83 1251.73 18.83C1251.02 18.82 1250.29 18.51 1249.62 18.59C1248.13 18.77 1246.68 19.16 1245.2 19.36C1243.75 19.56 1242.23 19.87 1240.8 19.73V37.18H1493V16.44C1491.59 16.42 1492.21 15.79 1490.77 16.46Z" fill="#494343"/>
<path d="M1740.72 36.8968H1741.2V7.26681C1740.51 7.31681 1738.74 7.11681 1738.13 7.35681C1737.13 7.73681 1736.04 8.00681 1734.89 7.53681C1734.56 7.40681 1734.12 7.47681 1733.74 7.46681C1732.91 7.43681 1732.05 7.50681 1731.27 7.34681C1729.98 7.07681 1728.57 7.13681 1727.42 6.42681C1727.08 6.22681 1726.44 6.33681 1725.93 6.33681C1725.55 6.33681 1725.16 6.44681 1724.77 6.41681C1723.39 6.32681 1722.11 6.27681 1720.7 6.65681C1719.57 6.95681 1718.18 6.60681 1716.9 6.55681C1716.65 6.54681 1716.38 6.55681 1716.13 6.57681C1714.68 6.71681 1713.33 6.75681 1711.84 6.37681C1710.38 5.99681 1708.66 6.18681 1707.05 6.25681C1704.31 6.38681 1701.72 5.93681 1699.14 5.25681C1698.77 5.15681 1698.31 5.13681 1697.94 5.20681C1694.43 5.85681 1690.9 6.34681 1687.28 6.33681C1687 6.33681 1686.57 6.38681 1686.48 6.26681C1685.58 5.19681 1684.5 5.82681 1683.43 5.97681C1681.62 6.23681 1679.78 6.37681 1677.97 6.64681C1677.26 6.75681 1676.55 7.02681 1675.92 7.31681C1674.52 7.95681 1673.16 7.87681 1671.71 7.41681C1670.57 7.05681 1669.46 6.76681 1668.09 7.00681C1667.32 7.14681 1666.32 6.50681 1665.42 6.20681C1663.8 5.66681 1662.22 5.02681 1660.56 4.60681C1659.93 4.44681 1659.12 4.79681 1658.38 4.89681C1656.64 5.11681 1655.03 4.81681 1653.46 4.18681C1652.31 3.71681 1651.11 3.58681 1649.74 3.61681C1647.74 3.65681 1645.82 3.77681 1643.89 4.18681C1643.37 4.29681 1642.71 4.10681 1642.15 3.95681C1640.03 3.38681 1637.93 2.75681 1635.8 2.20681C1635.47 2.11681 1635 2.42681 1634.58 2.44681C1633.97 2.47681 1633.34 2.44681 1632.73 2.36681C1631.99 2.26681 1631.28 2.05681 1630.55 1.93681C1628.42 1.59681 1626.23 1.76681 1624.09 1.18681C1621.97 0.606808 1619.71 0.346808 1617.49 0.0168082C1617 -0.0531918 1616.38 0.106808 1615.9 0.286808C1613.66 1.15681 1611.22 1.45681 1608.82 1.33681C1607.44 1.26681 1606.16 1.34681 1604.83 1.38681C1603.45 1.42681 1602.43 1.74681 1601.24 2.15681C1599.56 2.74681 1597.72 3.02681 1595.98 3.50681C1593.72 4.13681 1591.18 4.51681 1589.33 5.61681C1587.91 6.46681 1586.22 5.86681 1585.03 6.79681C1583.41 8.06681 1581.05 8.16681 1579.21 9.08681C1578.71 9.33681 1578.3 9.67681 1577.77 9.86681C1576.64 10.2868 1575.49 10.6568 1574.34 11.0168C1573.51 11.2768 1572.6 11.3868 1571.84 11.7168C1569.88 12.5568 1567.73 12.6268 1565.62 12.9068C1565.26 12.9568 1564.8 13.1268 1564.62 13.3568C1563.2 15.1568 1560.84 15.5068 1558.54 16.0068C1557.87 16.1568 1557.29 16.5768 1556.64 16.8268C1555.74 17.1768 1554.83 17.5168 1553.9 17.8068C1553 18.0768 1551.9 18.0968 1551.18 18.5368C1549.57 19.5068 1547.79 19.4468 1545.98 19.4768C1545.56 19.4768 1545.07 19.4768 1544.72 19.6368C1542.93 20.4368 1540.99 20.3568 1539.34 19.7568C1537.48 19.0868 1535.71 19.1368 1533.86 19.3368C1532.74 19.4668 1531.97 18.9668 1531.08 18.6368C1530.68 18.4868 1530.26 18.2968 1529.83 18.2168C1528.27 17.9368 1526.7 17.5668 1525.12 17.4768C1524.03 17.4168 1522.9 17.7568 1521.79 17.9068C1521.75 17.9068 1521.7 17.9368 1521.67 17.9268C1519.46 17.1068 1517.2 18.4068 1514.97 17.7968C1514.6 17.6968 1514.12 17.8768 1513.68 17.9168C1512.61 18.0368 1511.53 18.2868 1510.51 17.6568C1510.28 17.5168 1509.78 17.6768 1509.41 17.6568C1508.41 17.6168 1507.32 17.7568 1506.44 17.4868C1504.41 16.8568 1502.46 16.9568 1500.43 17.3768C1499.84 17.4968 1499.19 17.4468 1498.57 17.4068C1496.48 17.2468 1494.38 17.2668 1492.34 17.5868C1491.85 17.5768 1491.91 17.4468 1491.64 17.3868C1490.77 17.1968 1489 16.7168 1489 16.7168V36.8768H1740.73L1740.72 36.8968Z" fill="#494343"/>
</g>
<defs>
<clipPath id="clip0_1988_1513">
<rect width="1731" height="37" fill="white"/>
</clipPath>
</defs>
</svg>
