<svg width="34" height="28" viewBox="0 0 34 28" fill="none" xmlns="http://www.w3.org/2000/svg">
<path d="M0.244629 12.4711C11.8762 12.4711 26.9707 12.4711 26.9707 12.4711C27.6696 12.4711 28.3684 12.4401 29.0672 12.3318C30.2009 12.1616 31.319 11.8521 32.3595 11.388L32.4371 11.357L33.2446 12.239L33.198 12.3009C32.2507 13.5232 31.2569 14.5599 30.2475 15.086C29.5331 15.4573 28.7722 15.6739 28.0889 15.6739H0.244629V12.4711Z" fill="#494343"/>
<path d="M-7.62939e-05 23.8281C11.6315 23.8281 19.9863 23.8281 19.9863 23.8281C20.6851 23.8281 21.3839 23.7971 22.0827 23.6888C23.2164 23.5186 24.3345 23.2092 25.375 22.745L25.4526 22.714L26.2602 23.596L26.2136 23.6579C25.2663 24.8802 24.2724 25.9169 23.263 26.443C22.5486 26.8143 21.7877 27.0309 21.1044 27.0309H-7.62939e-05V23.8281Z" fill="#494343"/>
<path d="M0.244629 1.12951C11.8762 1.12951 13.9707 1.12951 13.9707 1.12951C14.6696 1.12951 15.3684 1.09857 16.0672 0.990258C17.2164 0.804584 18.319 0.495129 19.3595 0.0309456L19.4371 0L20.2446 0.881948L20.198 0.943839C19.2507 2.16619 18.2569 3.20287 17.2475 3.72894C16.5331 4.10029 15.7722 4.31691 15.0889 4.31691H0.244629V1.12951Z" fill="#494343"/>
</svg>
