<svg width="34" height="28" viewBox="0 0 34 28" fill="none" xmlns="http://www.w3.org/2000/svg">
<path d="M1 12.4711C12.6315 12.4711 27.7261 12.4711 27.7261 12.4711C28.4249 12.4711 29.1238 12.4401 29.8226 12.3318C30.9562 12.1616 32.0744 11.8521 33.1148 11.388L33.1925 11.357L34 12.239L33.9534 12.3009C33.0061 13.5232 32.0122 14.5599 31.0028 15.086C30.2885 15.4573 29.5275 15.6739 28.8442 15.6739H1V12.4711Z" fill="#F4F3E5"/>
<path d="M0.755295 23.8281C12.3868 23.8281 20.7416 23.8281 20.7416 23.8281C21.4405 23.8281 22.1393 23.7971 22.8381 23.6888C23.9718 23.5186 25.0899 23.2092 26.1304 22.745L26.208 22.714L27.0155 23.596L26.9689 23.6579C26.0216 24.8802 25.0278 25.9169 24.0184 26.443C23.304 26.8143 22.5431 27.0309 21.8598 27.0309H0.755295V23.8281Z" fill="#F4F3E5"/>
<path d="M1 1.12951C12.6315 1.12951 14.7261 1.12951 14.7261 1.12951C15.4249 1.12951 16.1238 1.09857 16.8226 0.990258C17.9718 0.804585 19.0744 0.495129 20.1148 0.0309456L20.1925 0L21 0.881948L20.9534 0.943839C20.0061 2.16619 19.0122 3.20287 18.0028 3.72894C17.2885 4.10029 16.5275 4.31691 15.8442 4.31691H1V1.12951Z" fill="#F4F3E5"/>
</svg>
